M48
;DRILL file {KiCad (2016-11-25 revision 30df041)-makepkg} date 12/05/16 22:01:48
;FORMAT={-:-/ absolute / metric / decimal}
FMAT,2
METRIC,TZ
T1C0.991
T2C1.092
T3C1.702
T4C3.048
T5C3.988
T6C6.375
%
G90
G05
M71
T1
X86.309Y-33.376
X86.309Y-38.379
T2
X184.785Y-45.085
X187.325Y-45.085
X189.865Y-45.085
T3
X30.095Y-145.416
X38.144Y-162.68
X39.303Y-141.122
X46.196Y-179.947
X47.352Y-158.386
X47.359Y-137.366
X55.404Y-175.653
X55.411Y-154.631
X56.567Y-133.073
X61.892Y-156.513
X63.46Y-171.895
X64.619Y-150.337
X66.185Y-165.721
X67.31Y-65.1
X72.39Y-83.83
X72.39Y-93.99
X72.39Y-112.405
X72.39Y-122.565
X72.668Y-167.601
X72.675Y-146.579
X77.47Y-65.1
X79.156Y-148.461
X80.727Y-163.846
X81.884Y-142.285
X83.45Y-157.67
X86.36Y-65.1
X86.36Y-84.148
X86.36Y-103.198
X86.36Y-122.248
X89.935Y-159.552
X96.52Y-65.1
X96.52Y-84.148
X96.52Y-103.198
X96.52Y-122.248
X105.41Y-63.828
X105.41Y-82.878
X105.41Y-101.928
X105.41Y-120.978
X105.41Y-140.028
X115.57Y-63.828
X115.57Y-82.878
X115.57Y-101.928
X115.57Y-120.978
X115.57Y-140.028
X124.46Y-62.23
X124.46Y-81.28
X124.46Y-100.33
X124.46Y-119.38
X124.46Y-138.43
X134.62Y-62.23
X134.62Y-81.28
X134.62Y-100.33
X134.62Y-119.38
X134.62Y-138.43
X143.51Y-63.828
X143.51Y-82.878
X143.51Y-101.928
X143.51Y-120.978
X143.51Y-140.028
X153.67Y-63.828
X153.67Y-82.878
X153.67Y-101.928
X153.67Y-120.978
X153.67Y-140.028
X162.56Y-67.005
X162.56Y-86.053
X162.56Y-105.103
X162.56Y-124.153
X162.56Y-143.203
X172.72Y-67.005
X172.72Y-86.053
X172.72Y-105.103
X172.72Y-124.153
X172.72Y-143.203
X181.61Y-143.203
X191.77Y-143.203
X196.532Y-67.005
X196.532Y-86.053
X196.532Y-105.103
X196.532Y-124.153
T4
X65.324Y-147.346
X69.927Y-145.198
X75.414Y-168.985
X80.018Y-166.837
T5
X34.699Y-143.269
X42.748Y-160.533
X50.8Y-177.8
X51.512Y-153.786
X51.963Y-135.219
X60.015Y-152.484
X61.602Y-175.425
X64.038Y-161.117
X68.064Y-169.748
X72.39Y-65.1
X72.39Y-88.91
X72.39Y-117.485
X77.279Y-144.432
X81.303Y-153.065
X83.739Y-138.757
X85.331Y-161.699
X91.44Y-65.1
X91.44Y-84.148
X91.44Y-103.198
X91.44Y-122.248
X93.83Y-160.396
X110.49Y-63.828
X110.49Y-82.878
X110.49Y-101.928
X110.49Y-120.978
X110.49Y-140.028
X129.54Y-62.23
X129.54Y-81.28
X129.54Y-100.33
X129.54Y-119.38
X129.54Y-138.43
X148.59Y-63.828
X148.59Y-82.878
X148.59Y-101.928
X148.59Y-120.978
X148.59Y-140.028
X167.64Y-67.005
X167.64Y-86.053
X167.64Y-105.103
X167.64Y-124.153
X167.64Y-143.203
X186.69Y-143.203
T6
X53.899Y-165.837
X59.665Y-121.666
X67.412Y-37.135
X105.435Y-157.759
X118.212Y-37.135
X139.04Y-91.592
X201.143Y-37.135
X201.778Y-140.056
T0
M30
