0
SECTION
2
HEADER
9
$INSUNITS
70
4
9
$ACADVER
1
AC1014
9
$HANDSEED
5
FFFF
0
ENDSEC
0
SECTION
2
TABLES
0
TABLE
2
VPORT
5
8
100
AcDbSymbolTable
0
ENDTAB
0
TABLE
2
LTYPE
5
5
100
AcDbSymbolTable
0
LTYPE
5
14
100
AcDbSymbolTableRecord
100
AcDbLinetypeTableRecord
2
BYBLOCK
70
0
0
LTYPE
5
15
100
AcDbSymbolTableRecord
100
AcDbLinetypeTableRecord
2
BYLAYER
70
0
0
ENDTAB
0
TABLE
2
LAYER
5
2
100
AcDbSymbolTable
70
2
0
LAYER
5
50
100
AcDbSymbolTableRecord
100
AcDbLayerTableRecord
2
0
70
0
6
CONTINUOUS
0
ENDTAB
0
TABLE
2
STYLE
5
3
100
AcDbSymbolTable
70
1
0
STYLE
5
11
100
AcDbSymbolTableRecord
100
AcDbTextStyleTableRecord
2
STANDARD
70
0
0
ENDTAB
0
TABLE
2
VIEW
5
6
100
AcDbSymbolTable
70
0
0
ENDTAB
0
TABLE
2
UCS
5
7
100
AcDbSymbolTable
70
0
0
ENDTAB
0
TABLE
2
APPID
5
9
100
AcDbSymbolTable
70
2
0
APPID
5
12
100
AcDbSymbolTableRecord
100
AcDbRegAppTableRecord
2
ACAD
70
0
0
ENDTAB
0
TABLE
2
DIMSTYLE
5
A
100
AcDbSymbolTable
70
1
0
ENDTAB
0
TABLE
2
BLOCK_RECORD
5
1
100
AcDbSymbolTable
70
1
0
BLOCK_RECORD
5
1F
100
AcDbSymbolTableRecord
100
AcDbBlockTableRecord
2
*MODEL_SPACE
0
BLOCK_RECORD
5
1B
100
AcDbSymbolTableRecord
100
AcDbBlockTableRecord
2
*PAPER_SPACE
0
ENDTAB
0
ENDSEC
0
SECTION
2
BLOCKS
0
BLOCK
5
20
100
AcDbEntity
100
AcDbBlockBegin
2
*MODEL_SPACE
0
ENDBLK
5
21
100
AcDbEntity
100
AcDbBlockEnd
0
BLOCK
5
1C
100
AcDbEntity
100
AcDbBlockBegin
2
*PAPER_SPACE
0
ENDBLK
5
1D
100
AcDbEntity
100
AcDbBlockEnd
0
ENDSEC
0
SECTION
2
ENTITIES
0
LWPOLYLINE
5
100
100
AcDbEntity
8
0
100
AcDbPolyline
90
50
70
1
43
0.0
10
835
20
1815,0077999999999
10
835
20
1800
10
800
20
1800
10
800
20
1764,5718642217357
10
770,03657999999984
20
1764,5718642217357
10
770,04448041380692
20
1684,9807351302861
10
800
20
1685
10
800
20
1665
10
927,70799999999997
20
1665
10
927,70799999999997
20
1695,4281357782638
10
957,66351958619293
20
1695,4088709085511
10
957,67142000000013
20
1775
10
927,70799999999997
20
1775
10
927,70799999999997
20
1800
10
895
20
1800
10
895
20
1815,0077999999999
10
900,57100000000003
20
1815,0077999999999
10
1039,3679999999999
20
1866,1379999999999
10
1230,1220000000001
20
1866,1379999999999
10
1322,9196000000002
20
1815,0077999999999
10
1337,9196000000002
20
1815,0077999999999
10
1337,9196000000002
20
1775
10
1310
20
1775
10
1310
20
1728,47
10
1190
20
1728,47
10
1190
20
1599,9999999999959
10
1592,1911999999993
20
1599,9999999999959
10
1592,1911999999993
20
1579,9999999999959
10
1920
20
1579,9999999999959
10
1920
20
1775
10
1414,9323999999999
20
1775
10
1414,9323999999999
20
1815,0077999999999
10
1429,9323999999999
20
1815,0077999999999
10
1522,9839999999999
20
1866,1379999999999
10
2078,0784508837469
20
1866,1370330684158
42
-0,41421356237309503
10
2148,0784508837469
20
1796,1370330684158
10
2148,0784508837469
20
551,83703306843177
42
-0,41421356237311768
10
2078,0784508837414
20
481,83703306843177
10
1306,7505308276429
20
481,83703306849083
42
0,1052384702497936
10
1277,1723462431999
20
475,28095316087501
10
481,49256093649331
20
104,32710200235366
42
-0,41419101926410135
10
388,47273139456195
20
138,1879500350322
10
128,82886733619341
20
695,00077209690187
42
-0,41422217770076342
10
162,68930473442401
20
788,02635482065739
10
496,79165541710887
20
943,80754392262452
42
0,29148228585438041
10
537,21045088374672
20
1007,2500559973801
10
537,21045088374672
20
1796,1370330684181
42
-0,41421356237310575
10
607,21045088374933
20
1866,1370330684181
10
688,34000000000003
20
1866,1379999999999
10
827,13700000000006
20
1815,0077999999999
0
LWPOLYLINE
5
101
100
AcDbEntity
8
0
100
AcDbPolyline
90
20
70
1
43
0.0
10
793,75
20
1508,8616000000002
10
793,75
20
1518,6660000000002
10
654,04999999999995
20
1518,6660000000002
10
654,04999999999995
20
1508,8616000000002
10
645,92200000000003
20
1508,8616000000002
10
645,92200000000003
20
1473,8603999999998
10
654,04999999999995
20
1473,8603999999998
10
654,04999999999995
20
1423,7716
10
645,92200000000003
20
1423,7716
10
645,92200000000003
20
1388,7703999999999
10
654,04999999999995
20
1388,7703999999999
10
654,04999999999995
20
1378,9660000000001
10
793,75
20
1378,9660000000001
10
793,75
20
1388,7703999999999
10
801,87800000000027
20
1388,7703999999999
10
801,87800000000027
20
1423,7716
10
793,75
20
1423,7716
10
793,75
20
1473,8603999999998
10
801,87800000000027
20
1473,8603999999998
10
801,87800000000027
20
1508,8616000000002
0
CIRCLE
5
102
100
AcDbEntity
8
0
100
AcDbCircle
10
599,91271354221772
20
1803,4982704099468
30
0
40
15
0
CIRCLE
5
103
100
AcDbEntity
8
0
100
AcDbCircle
10
1134,745450883747
20
1821,6870330684183
30
0
40
15
0
CIRCLE
5
104
100
AcDbEntity
8
0
100
AcDbCircle
10
2085,4396882252759
20
1803,4982704099459
30
0
40
15
0
CIRCLE
5
105
100
AcDbEntity
8
0
100
AcDbCircle
10
2085,4396908837466
20
560,35079572689324
30
0
40
15
0
CIRCLE
5
106
100
AcDbEntity
8
0
100
AcDbCircle
10
1281,379650883747
20
526,28703306840566
30
0
40
15
0
CIRCLE
5
107
100
AcDbEntity
8
0
100
AcDbCircle
10
448,35748373468704
20
157,98108504111281
30
0
40
15
0
CIRCLE
5
108
100
AcDbEntity
8
0
100
AcDbCircle
10
182,49310359509852
20
728,14188429284627
30
0
40
15
0
LWPOLYLINE
5
109
100
AcDbEntity
8
0
100
AcDbPolyline
90
5
70
1
43
0.0
10
1059,011254852081
20
1616,037235395529
10
1116,488367787598
20
1673,514348312415
10
1017,493418421481
20
1772,5092976785309
10
970
20
1725,015879257051
10
970
20
1705,0484902476101
0
CIRCLE
5
110
100
AcDbEntity
8
0
100
AcDbCircle
10
1390,3960000000002
20
1183,894
30
0
40
15,24
0
CIRCLE
5
111
100
AcDbEntity
8
0
100
AcDbCircle
10
538,98800000000006
20
441,452
30
0
40
15,24
0
LWPOLYLINE
5
112
100
AcDbEntity
8
0
100
AcDbPolyline
90
4
70
1
43
0.0
10
540,51200000000006
20
555,57419999999991
10
667,13099999999997
20
614,62919999999997
10
653,16100000000006
20
644,55040000000008
10
526,56740000000002
20
585,49540000000002
0
LWPOLYLINE
5
113
100
AcDbEntity
8
0
100
AcDbPolyline
90
4
70
1
43
0.0
10
641,42620000000011
20
339,19160000000011
10
768,01980000000003
20
398,22120000000012
10
754,07519999999988
20
428,14240000000012
10
627,45619999999997
20
369,11279999999999
0
LWPOLYLINE
5
114
100
AcDbEntity
8
0
100
AcDbPolyline
90
4
70
1
43
0.0
10
912,90139999999997
20
502,23420000000004
10
786,28240000000005
20
443,17920000000004
10
800,25240000000031
20
413,25800000000004
10
926,846
20
472,31299999999999
0
LWPOLYLINE
5
115
100
AcDbEntity
8
0
100
AcDbPolyline
90
4
70
1
43
0.0
10
811,98720000000026
20
718,61680000000001
10
685,39359999999999
20
659,58719999999994
10
699,33820000000014
20
629,66600000000005
10
825,95720000000006
20
688,6955999999999
0
LWPOLYLINE
5
116
100
AcDbEntity
8
0
100
AcDbPolyline
90
20
70
1
43
0.0
10
1844,675
20
928,14139999999998
10
1844,675
20
918,33699999999999
10
1836,547
20
918,33699999999999
10
1836,547
20
883,33580000000006
10
1844,675
20
883,33580000000006
10
1844,675
20
833,24700000000007
10
1836,547
20
833,24700000000007
10
1836,547
20
798,24580000000026
10
1844,675
20
798,24580000000026
10
1844,675
20
788,44140000000027
10
1984,375
20
788,44140000000027
10
1984,375
20
798,24580000000026
10
1992,5030000000002
20
798,24580000000026
10
1992,5030000000002
20
833,24700000000007
10
1984,375
20
833,24700000000007
10
1984,375
20
883,33580000000006
10
1992,5030000000002
20
883,33580000000006
10
1992,5030000000002
20
918,33699999999999
10
1984,375
20
918,33699999999999
10
1984,375
20
928,14139999999998
0
LWPOLYLINE
5
117
100
AcDbEntity
8
0
100
AcDbPolyline
90
20
70
1
43
0.0
10
1844,675
20
1118,6414
10
1844,675
20
1108,837
10
1836,547
20
1108,837
10
1836,547
20
1073,8358000000001
10
1844,675
20
1073,8358000000001
10
1844,675
20
1023,7470000000001
10
1836,547
20
1023,7470000000001
10
1836,547
20
988,74579999999992
10
1844,675
20
988,74579999999992
10
1844,675
20
978,94139999999993
10
1984,375
20
978,94139999999993
10
1984,375
20
988,74579999999992
10
1992,5030000000002
20
988,74579999999992
10
1992,5030000000002
20
1023,7470000000001
10
1984,375
20
1023,7470000000001
10
1984,375
20
1073,8358000000001
10
1992,5030000000002
20
1073,8358000000001
10
1992,5030000000002
20
1108,837
10
1984,375
20
1108,837
10
1984,375
20
1118,6414
0
LWPOLYLINE
5
118
100
AcDbEntity
8
0
100
AcDbPolyline
90
20
70
1
43
0.0
10
1844,675
20
1309,1414
10
1844,675
20
1299,337
10
1836,547
20
1299,337
10
1836,547
20
1264,3358000000001
10
1844,675
20
1264,3358000000001
10
1844,675
20
1214,2470000000001
10
1836,547
20
1214,2470000000001
10
1836,547
20
1179,2458000000001
10
1844,675
20
1179,2458000000001
10
1844,675
20
1169,4413999999999
10
1984,375
20
1169,4413999999999
10
1984,375
20
1179,2458000000001
10
1992,5030000000002
20
1179,2458000000001
10
1992,5030000000002
20
1214,2470000000001
10
1984,375
20
1214,2470000000001
10
1984,375
20
1264,3358000000001
10
1992,5030000000002
20
1264,3358000000001
10
1992,5030000000002
20
1299,337
10
1984,375
20
1299,337
10
1984,375
20
1309,1414
0
LWPOLYLINE
5
119
100
AcDbEntity
8
0
100
AcDbPolyline
90
20
70
1
43
0.0
10
1844,675
20
1499,616
10
1844,675
20
1489,8116000000002
10
1836,547
20
1489,8116000000002
10
1836,547
20
1454,8103999999998
10
1844,675
20
1454,8103999999998
10
1844,675
20
1404,7216000000001
10
1836,547
20
1404,7216000000001
10
1836,547
20
1369,7203999999999
10
1844,675
20
1369,7203999999999
10
1844,675
20
1359,9160000000002
10
1984,375
20
1359,9160000000002
10
1984,375
20
1369,7203999999999
10
1992,5030000000002
20
1369,7203999999999
10
1992,5030000000002
20
1404,7216000000001
10
1984,375
20
1404,7216000000001
10
1984,375
20
1454,8103999999998
10
1992,5030000000002
20
1454,8103999999998
10
1992,5030000000002
20
1489,8116000000002
10
1984,375
20
1489,8116000000002
10
1984,375
20
1499,616
0
LWPOLYLINE
5
120
100
AcDbEntity
8
0
100
AcDbPolyline
90
20
70
1
43
0.0
10
844,54999999999995
20
1518,6660000000002
10
844,54999999999995
20
1508,8616000000002
10
836,42200000000003
20
1508,8616000000002
10
836,42200000000003
20
1473,8603999999998
10
844,54999999999995
20
1473,8603999999998
10
844,54999999999995
20
1423,7716
10
836,42200000000003
20
1423,7716
10
836,42200000000003
20
1388,7703999999999
10
844,54999999999995
20
1388,7703999999999
10
844,54999999999995
20
1378,9660000000001
10
984,25
20
1378,9660000000001
10
984,25
20
1388,7703999999999
10
992,37799999999993
20
1388,7703999999999
10
992,37799999999993
20
1423,7716
10
984,25
20
1423,7716
10
984,25
20
1473,8603999999998
10
992,37799999999993
20
1473,8603999999998
10
992,37799999999993
20
1508,8616000000002
10
984,25
20
1508,8616000000002
10
984,25
20
1518,6660000000002
0
LWPOLYLINE
5
121
100
AcDbEntity
8
0
100
AcDbPolyline
90
20
70
1
43
0.0
10
1416,05
20
1340,8914
10
1416,05
20
1331,087
10
1407,922
20
1331,087
10
1407,922
20
1296,0858000000003
10
1416,05
20
1296,0858000000003
10
1416,05
20
1245,9970000000001
10
1407,922
20
1245,9970000000001
10
1407,922
20
1210,9958000000001
10
1416,05
20
1210,9958000000001
10
1416,05
20
1201,1913999999999
10
1555,75
20
1201,1913999999999
10
1555,75
20
1210,9958000000001
10
1563,8779999999999
20
1210,9958000000001
10
1563,8779999999999
20
1245,9970000000001
10
1555,75
20
1245,9970000000001
10
1555,75
20
1296,0858000000003
10
1563,8779999999999
20
1296,0858000000003
10
1563,8779999999999
20
1331,087
10
1555,75
20
1331,087
10
1555,75
20
1340,8914
0
LWPOLYLINE
5
122
100
AcDbEntity
8
0
100
AcDbPolyline
90
20
70
1
43
0.0
10
606,60280000000012
20
395,80820000000006
10
615,49279999999999
20
399,97379999999998
10
618,92180000000008
20
392,6078
10
650,64639999999997
20
407,39059999999995
10
647,2174
20
414,75659999999999
10
692,60719999999992
20
435,91479999999996
10
696,03619999999989
20
428,54880000000003
10
727,76080000000024
20
443,35700000000003
10
724,33180000000016
20
450,72300000000013
10
733,22180000000003
20
454,86320000000006
10
674,16679999999997
20
581,48219999999992
10
665,27680000000009
20
577,31660000000011
10
661,84780000000001
20
584,68259999999998
10
630,1232
20
569,89980000000003
10
633,55219999999997
20
562,53380000000004
10
588,16240000000005
20
541,37559999999996
10
584,73339999999996
20
548,74159999999995
10
553,00880000000006
20
533,93340000000001
10
556,43780000000004
20
526,56740000000002
10
547,54780000000005
20
522,42720000000008
0
LWPOLYLINE
5
123
100
AcDbEntity
8
0
100
AcDbPolyline
90
20
70
1
43
0.0
10
779,24660000000006
20
476,32620000000003
10
788,13660000000004
20
480,49180000000001
10
791,56560000000002
20
473,12579999999997
10
823,29020000000003
20
487,90859999999998
10
819,86120000000005
20
495,27459999999996
10
865,2510000000002
20
516,43279999999993
10
868,68000000000029
20
509,0668
10
900,4046000000003
20
523,875
10
896,97560000000021
20
531,2410000000001
10
905,86559999999986
20
535,38120000000004
10
846,81060000000002
20
662,00020000000006
10
837,92059999999992
20
657,83459999999991
10
834,49159999999995
20
665,20060000000001
10
802,76700000000005
20
650,41780000000006
10
806,19600000000003
20
643,05180000000007
10
760,80620000000022
20
621,89359999999999
10
757,37720000000024
20
629,25959999999998
10
725,65260000000023
20
614,45140000000004
10
729,08160000000021
20
607,08540000000005
10
720,19159999999999
20
602,94520000000011
0
LWPOLYLINE
5
124
100
AcDbEntity
8
0
100
AcDbPolyline
90
20
70
1
43
0.0
10
1035,05
20
769,3914000000002
10
1035,05
20
759,58700000000022
10
1026,922
20
759,58700000000022
10
1026,922
20
724,58579999999995
10
1035,05
20
724,58579999999995
10
1035,05
20
674,49700000000007
10
1026,922
20
674,49700000000007
10
1026,922
20
639,49580000000003
10
1035,05
20
639,49580000000003
10
1035,05
20
629,69140000000004
10
1174,75
20
629,69140000000004
10
1174,75
20
639,49580000000003
10
1182,8780000000002
20
639,49580000000003
10
1182,8780000000002
20
674,49700000000007
10
1174,75
20
674,49700000000007
10
1174,75
20
724,58579999999995
10
1182,8780000000002
20
724,58579999999995
10
1182,8780000000002
20
759,58700000000022
10
1174,75
20
759,58700000000022
10
1174,75
20
769,3914000000002
0
LWPOLYLINE
5
125
100
AcDbEntity
8
0
100
AcDbPolyline
90
20
70
1
43
0.0
10
1225,5500000000002
20
785,36799999999994
10
1225,5500000000002
20
775,56359999999995
10
1217,422
20
775,56359999999995
10
1217,422
20
740,56240000000003
10
1225,5500000000002
20
740,56240000000003
10
1225,5500000000002
20
690,47360000000003
10
1217,422
20
690,47360000000003
10
1217,422
20
655,47239999999999
10
1225,5500000000002
20
655,47239999999999
10
1225,5500000000002
20
645,66800000000001
10
1365,25
20
645,66800000000001
10
1365,25
20
655,47239999999999
10
1373,3779999999999
20
655,47239999999999
10
1373,3779999999999
20
690,47360000000003
10
1365,25
20
690,47360000000003
10
1365,25
20
740,56240000000003
10
1373,3779999999999
20
740,56240000000003
10
1373,3779999999999
20
775,56359999999995
10
1365,25
20
775,56359999999995
10
1365,25
20
785,36799999999994
0
LWPOLYLINE
5
126
100
AcDbEntity
8
0
100
AcDbPolyline
90
20
70
1
43
0.0
10
1606,55
20
737,64139999999998
10
1606,55
20
727,83700000000022
10
1598,422
20
727,83700000000022
10
1598,422
20
692,83580000000006
10
1606,55
20
692,83580000000006
10
1606,55
20
642,74700000000007
10
1598,422
20
642,74700000000007
10
1598,422
20
607,74580000000003
10
1606,55
20
607,74580000000003
10
1606,55
20
597,94140000000016
10
1746,25
20
597,94140000000016
10
1746,25
20
607,74580000000003
10
1754,3780000000002
20
607,74580000000003
10
1754,3780000000002
20
642,74700000000007
10
1746,25
20
642,74700000000007
10
1746,25
20
692,83580000000006
10
1754,3780000000002
20
692,83580000000006
10
1754,3780000000002
20
727,83700000000022
10
1746,25
20
727,83700000000022
10
1746,25
20
737,64139999999998
0
LWPOLYLINE
5
127
100
AcDbEntity
8
0
100
AcDbPolyline
90
20
70
1
43
0.0
10
844,54999999999995
20
947,19139999999993
10
844,54999999999995
20
937,38699999999994
10
836,42200000000003
20
937,38699999999994
10
836,42200000000003
20
902,38580000000002
10
844,54999999999995
20
902,38580000000002
10
844,54999999999995
20
852,29700000000025
10
836,42200000000003
20
852,29700000000025
10
836,42200000000003
20
817,29579999999999
10
844,54999999999995
20
817,29579999999999
10
844,54999999999995
20
807,49140000000023
10
984,25
20
807,49140000000023
10
984,25
20
817,29579999999999
10
992,37799999999993
20
817,29579999999999
10
992,37799999999993
20
852,29700000000025
10
984,25
20
852,29700000000025
10
984,25
20
902,38580000000002
10
992,37799999999993
20
902,38580000000002
10
992,37799999999993
20
937,38699999999994
10
984,25
20
937,38699999999994
10
984,25
20
947,19139999999993
0
LWPOLYLINE
5
128
100
AcDbEntity
8
0
100
AcDbPolyline
90
20
70
1
43
0.0
10
1035,05
20
959,89140000000009
10
1035,05
20
950,08699999999999
10
1026,922
20
950,08699999999999
10
1026,922
20
915,08579999999995
10
1035,05
20
915,08579999999995
10
1035,05
20
864,99700000000007
10
1026,922
20
864,99700000000007
10
1026,922
20
829,99580000000026
10
1035,05
20
829,99580000000026
10
1035,05
20
820,19140000000016
10
1174,75
20
820,19140000000016
10
1174,75
20
829,99580000000026
10
1182,8780000000002
20
829,99580000000026
10
1182,8780000000002
20
864,99700000000007
10
1174,75
20
864,99700000000007
10
1174,75
20
915,08579999999995
10
1182,8780000000002
20
915,08579999999995
10
1182,8780000000002
20
950,08699999999999
10
1174,75
20
950,08699999999999
10
1174,75
20
959,89140000000009
0
LWPOLYLINE
5
129
100
AcDbEntity
8
0
100
AcDbPolyline
90
20
70
1
43
0.0
10
1225,5500000000002
20
975,86799999999994
10
1225,5500000000002
20
966,06359999999995
10
1217,422
20
966,06359999999995
10
1217,422
20
931,06240000000003
10
1225,5500000000002
20
931,06240000000003
10
1225,5500000000002
20
880,97360000000026
10
1217,422
20
880,97360000000026
10
1217,422
20
845,97239999999999
10
1225,5500000000002
20
845,97239999999999
10
1225,5500000000002
20
836,16800000000012
10
1365,25
20
836,16800000000012
10
1365,25
20
845,97239999999999
10
1373,3779999999999
20
845,97239999999999
10
1373,3779999999999
20
880,97360000000026
10
1365,25
20
880,97360000000026
10
1365,25
20
931,06240000000003
10
1373,3779999999999
20
931,06240000000003
10
1373,3779999999999
20
966,06359999999995
10
1365,25
20
966,06359999999995
10
1365,25
20
975,86799999999994
0
LWPOLYLINE
5
130
100
AcDbEntity
8
0
100
AcDbPolyline
90
20
70
1
43
0.0
10
1416,05
20
959,89140000000009
10
1416,05
20
950,08699999999999
10
1407,922
20
950,08699999999999
10
1407,922
20
915,08579999999995
10
1416,05
20
915,08579999999995
10
1416,05
20
864,99700000000007
10
1407,922
20
864,99700000000007
10
1407,922
20
829,99580000000026
10
1416,05
20
829,99580000000026
10
1416,05
20
820,19140000000016
10
1555,75
20
820,19140000000016
10
1555,75
20
829,99580000000026
10
1563,8779999999999
20
829,99580000000026
10
1563,8779999999999
20
864,99700000000007
10
1555,75
20
864,99700000000007
10
1555,75
20
915,08579999999995
10
1563,8779999999999
20
915,08579999999995
10
1563,8779999999999
20
950,08699999999999
10
1555,75
20
950,08699999999999
10
1555,75
20
959,89140000000009
0
LWPOLYLINE
5
131
100
AcDbEntity
8
0
100
AcDbPolyline
90
20
70
1
43
0.0
10
1606,55
20
928,14139999999998
10
1606,55
20
918,33699999999999
10
1598,422
20
918,33699999999999
10
1598,422
20
883,33580000000006
10
1606,55
20
883,33580000000006
10
1606,55
20
833,24700000000007
10
1598,422
20
833,24700000000007
10
1598,422
20
798,24580000000026
10
1606,55
20
798,24580000000026
10
1606,55
20
788,44140000000027
10
1746,25
20
788,44140000000027
10
1746,25
20
798,24580000000026
10
1754,3780000000002
20
798,24580000000026
10
1754,3780000000002
20
833,24700000000007
10
1746,25
20
833,24700000000007
10
1746,25
20
883,33580000000006
10
1754,3780000000002
20
883,33580000000006
10
1754,3780000000002
20
918,33699999999999
10
1746,25
20
918,33699999999999
10
1746,25
20
928,14139999999998
0
LWPOLYLINE
5
132
100
AcDbEntity
8
0
100
AcDbPolyline
90
20
70
1
43
0.0
10
844,54999999999995
20
1137,6913999999999
10
844,54999999999995
20
1127,8870000000002
10
836,42200000000003
20
1127,8870000000002
10
836,42200000000003
20
1092,8858
10
844,54999999999995
20
1092,8858
10
844,54999999999995
20
1042,797
10
836,42200000000003
20
1042,797
10
836,42200000000003
20
1007,7958000000001
10
844,54999999999995
20
1007,7958000000001
10
844,54999999999995
20
997,99139999999989
10
984,25
20
997,99139999999989
10
984,25
20
1007,7958000000001
10
992,37799999999993
20
1007,7958000000001
10
992,37799999999993
20
1042,797
10
984,25
20
1042,797
10
984,25
20
1092,8858
10
992,37799999999993
20
1092,8858
10
992,37799999999993
20
1127,8870000000002
10
984,25
20
1127,8870000000002
10
984,25
20
1137,6913999999999
0
LWPOLYLINE
5
133
100
AcDbEntity
8
0
100
AcDbPolyline
90
20
70
1
43
0.0
10
1035,05
20
1150,3914
10
1035,05
20
1140,587
10
1026,922
20
1140,587
10
1026,922
20
1105,5858000000001
10
1035,05
20
1105,5858000000001
10
1035,05
20
1055,4970000000001
10
1026,922
20
1055,4970000000001
10
1026,922
20
1020,4958
10
1035,05
20
1020,4958
10
1035,05
20
1010,6914
10
1174,75
20
1010,6914
10
1174,75
20
1020,4958
10
1182,8780000000002
20
1020,4958
10
1182,8780000000002
20
1055,4970000000001
10
1174,75
20
1055,4970000000001
10
1174,75
20
1105,5858000000001
10
1182,8780000000002
20
1105,5858000000001
10
1182,8780000000002
20
1140,587
10
1174,75
20
1140,587
10
1174,75
20
1150,3914
0
LWPOLYLINE
5
134
100
AcDbEntity
8
0
100
AcDbPolyline
90
20
70
1
43
0.0
10
1225,5500000000002
20
1166,3679999999999
10
1225,5500000000002
20
1156,5636
10
1217,422
20
1156,5636
10
1217,422
20
1121,5624
10
1225,5500000000002
20
1121,5624
10
1225,5500000000002
20
1071,4736
10
1217,422
20
1071,4736
10
1217,422
20
1036,4723999999999
10
1225,5500000000002
20
1036,4723999999999
10
1225,5500000000002
20
1026,6679999999999
10
1365,25
20
1026,6679999999999
10
1365,25
20
1036,4723999999999
10
1373,3779999999999
20
1036,4723999999999
10
1373,3779999999999
20
1071,4736
10
1365,25
20
1071,4736
10
1365,25
20
1121,5624
10
1373,3779999999999
20
1121,5624
10
1373,3779999999999
20
1156,5636
10
1365,25
20
1156,5636
10
1365,25
20
1166,3679999999999
0
LWPOLYLINE
5
135
100
AcDbEntity
8
0
100
AcDbPolyline
90
20
70
1
43
0.0
10
1416,05
20
1150,3914
10
1416,05
20
1140,587
10
1407,922
20
1140,587
10
1407,922
20
1105,5858000000001
10
1416,05
20
1105,5858000000001
10
1416,05
20
1055,4970000000001
10
1407,922
20
1055,4970000000001
10
1407,922
20
1020,4958
10
1416,05
20
1020,4958
10
1416,05
20
1010,6914
10
1555,75
20
1010,6914
10
1555,75
20
1020,4958
10
1563,8779999999999
20
1020,4958
10
1563,8779999999999
20
1055,4970000000001
10
1555,75
20
1055,4970000000001
10
1555,75
20
1105,5858000000001
10
1563,8779999999999
20
1105,5858000000001
10
1563,8779999999999
20
1140,587
10
1555,75
20
1140,587
10
1555,75
20
1150,3914
0
LWPOLYLINE
5
136
100
AcDbEntity
8
0
100
AcDbPolyline
90
20
70
1
43
0.0
10
1606,55
20
1118,6414
10
1606,55
20
1108,837
10
1598,422
20
1108,837
10
1598,422
20
1073,8358000000001
10
1606,55
20
1073,8358000000001
10
1606,55
20
1023,7470000000001
10
1598,422
20
1023,7470000000001
10
1598,422
20
988,74579999999992
10
1606,55
20
988,74579999999992
10
1606,55
20
978,94139999999993
10
1746,25
20
978,94139999999993
10
1746,25
20
988,74579999999992
10
1754,3780000000002
20
988,74579999999992
10
1754,3780000000002
20
1023,7470000000001
10
1746,25
20
1023,7470000000001
10
1746,25
20
1073,8358000000001
10
1754,3780000000002
20
1073,8358000000001
10
1754,3780000000002
20
1108,837
10
1746,25
20
1108,837
10
1746,25
20
1118,6414
0
LWPOLYLINE
5
137
100
AcDbEntity
8
0
100
AcDbPolyline
90
20
70
1
43
0.0
10
1035,05
20
1340,8914
10
1035,05
20
1331,087
10
1026,922
20
1331,087
10
1026,922
20
1296,0858000000003
10
1035,05
20
1296,0858000000003
10
1035,05
20
1245,9970000000001
10
1026,922
20
1245,9970000000001
10
1026,922
20
1210,9958000000001
10
1035,05
20
1210,9958000000001
10
1035,05
20
1201,1913999999999
10
1174,75
20
1201,1913999999999
10
1174,75
20
1210,9958000000001
10
1182,8780000000002
20
1210,9958000000001
10
1182,8780000000002
20
1245,9970000000001
10
1174,75
20
1245,9970000000001
10
1174,75
20
1296,0858000000003
10
1182,8780000000002
20
1296,0858000000003
10
1182,8780000000002
20
1331,087
10
1174,75
20
1331,087
10
1174,75
20
1340,8914
0
LWPOLYLINE
5
138
100
AcDbEntity
8
0
100
AcDbPolyline
90
20
70
1
43
0.0
10
1225,5500000000002
20
1356,8679999999999
10
1225,5500000000002
20
1347,0636000000002
10
1217,422
20
1347,0636000000002
10
1217,422
20
1312,0623999999998
10
1225,5500000000002
20
1312,0623999999998
10
1225,5500000000002
20
1261,9736
10
1217,422
20
1261,9736
10
1217,422
20
1226,9723999999999
10
1225,5500000000002
20
1226,9723999999999
10
1225,5500000000002
20
1217,1680000000001
10
1365,25
20
1217,1680000000001
10
1365,25
20
1226,9723999999999
10
1373,3779999999999
20
1226,9723999999999
10
1373,3779999999999
20
1261,9736
10
1365,25
20
1261,9736
10
1365,25
20
1312,0623999999998
10
1373,3779999999999
20
1312,0623999999998
10
1373,3779999999999
20
1347,0636000000002
10
1365,25
20
1347,0636000000002
10
1365,25
20
1356,8679999999999
0
LWPOLYLINE
5
139
100
AcDbEntity
8
0
100
AcDbPolyline
90
20
70
1
43
0.0
10
1606,55
20
1309,1414
10
1606,55
20
1299,337
10
1598,422
20
1299,337
10
1598,422
20
1264,3358000000001
10
1606,55
20
1264,3358000000001
10
1606,55
20
1214,2470000000001
10
1598,422
20
1214,2470000000001
10
1598,422
20
1179,2458000000001
10
1606,55
20
1179,2458000000001
10
1606,55
20
1169,4413999999999
10
1746,25
20
1169,4413999999999
10
1746,25
20
1179,2458000000001
10
1754,3780000000002
20
1179,2458000000001
10
1754,3780000000002
20
1214,2470000000001
10
1746,25
20
1214,2470000000001
10
1746,25
20
1264,3358000000001
10
1754,3780000000002
20
1264,3358000000001
10
1754,3780000000002
20
1299,337
10
1746,25
20
1299,337
10
1746,25
20
1309,1414
0
LWPOLYLINE
5
140
100
AcDbEntity
8
0
100
AcDbPolyline
90
20
70
1
43
0.0
10
1416,05
20
769,3914000000002
10
1416,05
20
759,58700000000022
10
1407,922
20
759,58700000000022
10
1407,922
20
724,58579999999995
10
1416,05
20
724,58579999999995
10
1416,05
20
674,49700000000007
10
1407,922
20
674,49700000000007
10
1407,922
20
639,49580000000003
10
1416,05
20
639,49580000000003
10
1416,05
20
629,69140000000004
10
1555,75
20
629,69140000000004
10
1555,75
20
639,49580000000003
10
1563,8779999999999
20
639,49580000000003
10
1563,8779999999999
20
674,49700000000007
10
1555,75
20
674,49700000000007
10
1555,75
20
724,58579999999995
10
1563,8779999999999
20
724,58579999999995
10
1563,8779999999999
20
759,58700000000022
10
1555,75
20
759,58700000000022
10
1555,75
20
769,3914000000002
0
LWPOLYLINE
5
141
100
AcDbEntity
8
0
100
AcDbPolyline
90
20
70
1
43
0.0
10
1035,05
20
1531,3914
10
1035,05
20
1521,587
10
1026,922
20
1521,587
10
1026,922
20
1486,5858000000001
10
1035,05
20
1486,5858000000001
10
1035,05
20
1436,4969999999998
10
1026,922
20
1436,4969999999998
10
1026,922
20
1401,4958000000001
10
1035,05
20
1401,4958000000001
10
1035,05
20
1391,6913999999999
10
1174,75
20
1391,6913999999999
10
1174,75
20
1401,4958000000001
10
1182,8780000000002
20
1401,4958000000001
10
1182,8780000000002
20
1436,4969999999998
10
1174,75
20
1436,4969999999998
10
1174,75
20
1486,5858000000001
10
1182,8780000000002
20
1486,5858000000001
10
1182,8780000000002
20
1521,587
10
1174,75
20
1521,587
10
1174,75
20
1531,3914
0
LWPOLYLINE
5
142
100
AcDbEntity
8
0
100
AcDbPolyline
90
20
70
1
43
0.0
10
1225,5500000000002
20
1547,3679999999999
10
1225,5500000000002
20
1537,5636
10
1217,422
20
1537,5636
10
1217,422
20
1502,5623999999998
10
1225,5500000000002
20
1502,5623999999998
10
1225,5500000000002
20
1452,4736000000003
10
1217,422
20
1452,4736000000003
10
1217,422
20
1417,4723999999997
10
1225,5500000000002
20
1417,4723999999997
10
1225,5500000000002
20
1407,6679999999999
10
1365,25
20
1407,6679999999999
10
1365,25
20
1417,4723999999997
10
1373,3779999999999
20
1417,4723999999997
10
1373,3779999999999
20
1452,4736000000003
10
1365,25
20
1452,4736000000003
10
1365,25
20
1502,5623999999998
10
1373,3779999999999
20
1502,5623999999998
10
1373,3779999999999
20
1537,5636
10
1365,25
20
1537,5636
10
1365,25
20
1547,3679999999999
0
LWPOLYLINE
5
143
100
AcDbEntity
8
0
100
AcDbPolyline
90
20
70
1
43
0.0
10
1416,05
20
1531,3914
10
1416,05
20
1521,587
10
1407,922
20
1521,587
10
1407,922
20
1486,5858000000001
10
1416,05
20
1486,5858000000001
10
1416,05
20
1436,4969999999998
10
1407,922
20
1436,4969999999998
10
1407,922
20
1401,4958000000001
10
1416,05
20
1401,4958000000001
10
1416,05
20
1391,6913999999999
10
1555,75
20
1391,6913999999999
10
1555,75
20
1401,4958000000001
10
1563,8779999999999
20
1401,4958000000001
10
1563,8779999999999
20
1436,4969999999998
10
1555,75
20
1436,4969999999998
10
1555,75
20
1486,5858000000001
10
1563,8779999999999
20
1486,5858000000001
10
1563,8779999999999
20
1521,587
10
1555,75
20
1521,587
10
1555,75
20
1531,3914
0
LWPOLYLINE
5
144
100
AcDbEntity
8
0
100
AcDbPolyline
90
20
70
1
43
0.0
10
1606,55
20
1499,616
10
1606,55
20
1489,8116000000002
10
1598,422
20
1489,8116000000002
10
1598,422
20
1454,8103999999998
10
1606,55
20
1454,8103999999998
10
1606,55
20
1404,7216000000001
10
1598,422
20
1404,7216000000001
10
1598,422
20
1369,7203999999999
10
1606,55
20
1369,7203999999999
10
1606,55
20
1359,9160000000002
10
1746,25
20
1359,9160000000002
10
1746,25
20
1369,7203999999999
10
1754,3780000000002
20
1369,7203999999999
10
1754,3780000000002
20
1404,7216000000001
10
1746,25
20
1404,7216000000001
10
1746,25
20
1454,8103999999998
10
1754,3780000000002
20
1454,8103999999998
10
1754,3780000000002
20
1489,8116000000002
10
1746,25
20
1489,8116000000002
10
1746,25
20
1499,616
0
LWPOLYLINE
5
145
100
AcDbEntity
8
0
100
AcDbPolyline
90
20
70
1
43
0.0
10
426,7962
20
781,40560000000028
10
430,96179999999998
20
772,51559999999995
10
423,5958
20
769,08660000000032
10
438,37860000000001
20
737,36200000000031
10
445,74459999999993
20
740,79100000000028
10
466,90280000000001
20
695,40120000000002
10
459,53680000000014
20
691,97220000000004
10
474,34500000000003
20
660,24760000000003
10
481,71100000000001
20
663,67660000000001
10
485,85120000000006
20
654,78659999999991
10
612,47020000000009
20
713,8416000000002
10
608,30459999999994
20
722,73160000000007
10
615,67060000000015
20
726,16060000000004
10
600,88780000000008
20
757,88519999999994
10
593,52179999999998
20
754,45619999999985
10
572,36360000000002
20
799,846
10
579,7296
20
803,27499999999998
10
564,92140000000006
20
834,99959999999999
10
557,55540000000008
20
831,57060000000001
10
553,41519999999991
20
840,46060000000023
0
LWPOLYLINE
5
146
100
AcDbEntity
8
0
100
AcDbPolyline
90
20
70
1
43
0.0
10
254,1524
20
700,91300000000001
10
258,31799999999998
20
692,02300000000014
10
250,952
20
688,59400000000005
10
265,73480000000001
20
656,86940000000004
10
273,10079999999999
20
660,29840000000013
10
294,25900000000001
20
614,90859999999998
10
286,89299999999997
20
611,4796
10
301,70120000000003
20
579,755
10
309,06720000000001
20
583,18399999999997
10
313,20740000000001
20
574,29399999999998
10
439,82640000000004
20
633,34899999999993
10
435,66079999999999
20
642,23900000000003
10
443,02680000000004
20
645,66800000000001
10
428,24399999999997
20
677,39260000000002
10
420,87800000000004
20
673,96360000000004
10
399,71980000000002
20
719,35340000000019
10
407,08579999999995
20
722,78240000000028
10
392,27759999999995
20
754,50699999999995
10
384,91160000000002
20
751,0780000000002
10
380,77139999999997
20
759,96800000000019
0
LWPOLYLINE
5
147
100
AcDbEntity
8
0
100
AcDbPolyline
90
20
70
1
43
0.0
10
415,16300000000001
20
355,60000000000002
10
419,32860000000011
20
346,70999999999998
10
411,96259999999995
20
343,28100000000001
10
426,74540000000002
20
311,5564
10
434,1114
20
314,98540000000003
10
455,26959999999997
20
269,59559999999999
10
447,90359999999998
20
266,16659999999996
10
462,71180000000004
20
234,44199999999998
10
470,07779999999997
20
237,87099999999998
10
474,21799999999996
20
228,98099999999999
10
600,83699999999999
20
288,036
10
596,67140000000006
20
296,92599999999999
10
604,03740000000005
20
300,35500000000002
10
589,25459999999998
20
332,07960000000003
10
581,88860000000011
20
328,6506
10
560,73040000000003
20
374,04040000000003
10
568,09640000000002
20
377,46940000000001
10
553,28819999999996
20
409,19400000000002
10
545,92219999999998
20
405,76500000000004
10
541,78199999999993
20
414,65500000000014
0
LWPOLYLINE
5
148
100
AcDbEntity
8
0
100
AcDbPolyline
90
20
70
1
43
0.0
10
334,64499999999998
20
528,26919999999996
10
338,81060000000014
20
519,37920000000008
10
331,44459999999992
20
515,95020000000011
10
346,22739999999999
20
484,22559999999999
10
353,59340000000003
20
487,65459999999996
10
374,75159999999994
20
442,26480000000004
10
367,38560000000001
20
438,83580000000001
10
382,19380000000001
20
407,1112
10
389,5598
20
410,54020000000003
10
393,69999999999999
20
401,65020000000015
10
520,31899999999996
20
460,70519999999999
10
516,15340000000003
20
469,59519999999998
10
523,51940000000002
20
473,02420000000012
10
508,73660000000001
20
504,74880000000013
10
501,37060000000014
20
501,3198000000001
10
480,21240000000012
20
546,70960000000002
10
487,57839999999999
20
550,1386
10
472,77019999999999
20
581,86320000000001
10
465,40420000000006
20
578,43419999999992
10
461,26399999999995
20
587,32420000000002
0
LWPOLYLINE
5
149
100
AcDbEntity
8
0
100
AcDbPolyline
90
20
70
1
43
0.0
10
844,54999999999995
20
1328,1914000000002
10
844,54999999999995
20
1318,3869999999999
10
836,42200000000003
20
1318,3869999999999
10
836,42200000000003
20
1283,3858
10
844,54999999999995
20
1283,3858
10
844,54999999999995
20
1233,297
10
836,42200000000003
20
1233,297
10
836,42200000000003
20
1198,2958000000001
10
844,54999999999995
20
1198,2958000000001
10
844,54999999999995
20
1188,4913999999999
10
984,25
20
1188,4913999999999
10
984,25
20
1198,2958000000001
10
992,37799999999993
20
1198,2958000000001
10
992,37799999999993
20
1233,297
10
984,25
20
1233,297
10
984,25
20
1283,3858
10
992,37799999999993
20
1283,3858
10
992,37799999999993
20
1318,3869999999999
10
984,25
20
1318,3869999999999
10
984,25
20
1328,1914000000002
0
LWPOLYLINE
5
150
100
AcDbEntity
8
0
100
AcDbPolyline
90
20
70
1
43
0.0
10
1797,0500000000002
20
737,64139999999998
10
1797,0500000000002
20
727,83700000000022
10
1788,922
20
727,83700000000022
10
1788,922
20
692,83580000000006
10
1797,0500000000002
20
692,83580000000006
10
1797,0500000000002
20
642,74700000000007
10
1788,922
20
642,74700000000007
10
1788,922
20
607,74580000000003
10
1797,0500000000002
20
607,74580000000003
10
1797,0500000000002
20
597,94140000000016
10
1936,75
20
597,94140000000016
10
1936,75
20
607,74580000000003
10
1944,8779999999999
20
607,74580000000003
10
1944,8779999999999
20
642,74700000000007
10
1936,75
20
642,74700000000007
10
1936,75
20
692,83580000000006
10
1944,8779999999999
20
692,83580000000006
10
1944,8779999999999
20
727,83700000000022
10
1936,75
20
727,83700000000022
10
1936,75
20
737,64139999999998
0
LWPOLYLINE
5
151
100
AcDbEntity
8
0
100
AcDbPolyline
90
20
70
1
43
0.0
10
654,04999999999995
20
855,1164
10
663,85440000000006
20
855,1164
10
663,85440000000006
20
846,98840000000007
10
698,85559999999998
20
846,98840000000007
10
698,85559999999998
20
855,1164
10
748,94440000000009
20
855,1164
10
748,94440000000009
20
846,98840000000007
10
783,94560000000001
20
846,98840000000007
10
783,94560000000001
20
855,1164
10
793,75
20
855,1164
10
793,75
20
994,81639999999993
10
783,94560000000001
20
994,81639999999993
10
783,94560000000001
20
1002,9444000000001
10
748,94440000000009
20
1002,9444000000001
10
748,94440000000009
20
994,81639999999993
10
698,85559999999998
20
994,81639999999993
10
698,85559999999998
20
1002,9444000000001
10
663,85440000000006
20
1002,9444000000001
10
663,85440000000006
20
994,81639999999993
10
654,04999999999995
20
994,81639999999993
0
LWPOLYLINE
5
152
100
AcDbEntity
8
0
100
AcDbPolyline
90
20
70
1
43
0.0
10
654,04999999999995
20
1140,8663999999999
10
663,85440000000006
20
1140,8663999999999
10
663,85440000000006
20
1132,7384
10
698,85559999999998
20
1132,7384
10
698,85559999999998
20
1140,8663999999999
10
748,94440000000009
20
1140,8663999999999
10
748,94440000000009
20
1132,7384
10
783,94560000000001
20
1132,7384
10
783,94560000000001
20
1140,8663999999999
10
793,75
20
1140,8663999999999
10
793,75
20
1280,5663999999999
10
783,94560000000001
20
1280,5663999999999
10
783,94560000000001
20
1288,6943999999999
10
748,94440000000009
20
1288,6943999999999
10
748,94440000000009
20
1280,5663999999999
10
698,85559999999998
20
1280,5663999999999
10
698,85559999999998
20
1288,6943999999999
10
663,85440000000006
20
1288,6943999999999
10
663,85440000000006
20
1280,5663999999999
10
654,04999999999995
20
1280,5663999999999
0
ENDSEC
0
SECTION
2
OBJECTS
0
DICTIONARY
5
C
100
AcDbDictionary
3
ACAD_GROUP
350
D
3
ACAD_MLINESTYLE
350
17
0
DICTIONARY
5
D
100
AcDbDictionary
0
DICTIONARY
5
1A
330
C
100
AcDbDictionary
0
DICTIONARY
5
17
100
AcDbDictionary
0
ENDSEC
0
EOF
