0
SECTION
2
HEADER
9
$INSUNITS
70
4
9
$ACADVER
1
AC1014
9
$HANDSEED
5
FFFF
0
ENDSEC
0
SECTION
2
TABLES
0
TABLE
2
VPORT
5
8
100
AcDbSymbolTable
0
ENDTAB
0
TABLE
2
LTYPE
5
5
100
AcDbSymbolTable
0
LTYPE
5
14
100
AcDbSymbolTableRecord
100
AcDbLinetypeTableRecord
2
BYBLOCK
70
0
0
LTYPE
5
15
100
AcDbSymbolTableRecord
100
AcDbLinetypeTableRecord
2
BYLAYER
70
0
0
ENDTAB
0
TABLE
2
LAYER
5
2
100
AcDbSymbolTable
70
2
0
LAYER
5
50
100
AcDbSymbolTableRecord
100
AcDbLayerTableRecord
2
0
70
0
6
CONTINUOUS
0
ENDTAB
0
TABLE
2
STYLE
5
3
100
AcDbSymbolTable
70
1
0
STYLE
5
11
100
AcDbSymbolTableRecord
100
AcDbTextStyleTableRecord
2
STANDARD
70
0
0
ENDTAB
0
TABLE
2
VIEW
5
6
100
AcDbSymbolTable
70
0
0
ENDTAB
0
TABLE
2
UCS
5
7
100
AcDbSymbolTable
70
0
0
ENDTAB
0
TABLE
2
APPID
5
9
100
AcDbSymbolTable
70
2
0
APPID
5
12
100
AcDbSymbolTableRecord
100
AcDbRegAppTableRecord
2
ACAD
70
0
0
ENDTAB
0
TABLE
2
DIMSTYLE
5
A
100
AcDbSymbolTable
70
1
0
ENDTAB
0
TABLE
2
BLOCK_RECORD
5
1
100
AcDbSymbolTable
70
1
0
BLOCK_RECORD
5
1F
100
AcDbSymbolTableRecord
100
AcDbBlockTableRecord
2
*MODEL_SPACE
0
BLOCK_RECORD
5
1B
100
AcDbSymbolTableRecord
100
AcDbBlockTableRecord
2
*PAPER_SPACE
0
ENDTAB
0
ENDSEC
0
SECTION
2
BLOCKS
0
BLOCK
5
20
100
AcDbEntity
100
AcDbBlockBegin
2
*MODEL_SPACE
0
ENDBLK
5
21
100
AcDbEntity
100
AcDbBlockEnd
0
BLOCK
5
1C
100
AcDbEntity
100
AcDbBlockBegin
2
*PAPER_SPACE
0
ENDBLK
5
1D
100
AcDbEntity
100
AcDbBlockEnd
0
ENDSEC
0
SECTION
2
ENTITIES
0
LWPOLYLINE
5
100
100
AcDbEntity
8
0
100
AcDbPolyline
90
4
70
1
43
0.0
10
800
20
1800
10
927.70799999999997
20
1800
10
927.70799999999997
20
1665
10
800
20
1665
0
LWPOLYLINE
5
101
100
AcDbEntity
8
0
100
AcDbPolyline
90
8
70
1
43
0.0
10
1920
20
1775
10
1310
20
1775
10
1310
20
1728.47
10
1190
20
1728.47
10
1190
20
1600
10
1592.1912
20
1600
10
1592.1912
20
1580
10
1920
20
1580
0
LWPOLYLINE
5
102
100
AcDbEntity
8
0
100
AcDbPolyline
90
53
70
1
43
0.0
10
766.28439080500004
20
760.03182669900002
42
0.80258485167199645
10
761.99058928300008
20
779.39991382000005
10
636.39658725799995
20
779.39991382000005
42
-0.41421356237299056
10
626.23658725799999
20
789.55991381999991
10
626.23658725799987
20
1536.31991382
42
-0.41421356237297829
10
636.39658725799995
20
1546.4799138200001
10
991.99658725800009
20
1546.4799138200001
42
0.26794919243100601
10
1005.1948144100003
20
1554.0999138200002
42
-0.26794919243101967
10
1013.99363252
20
1559.1799138199999
10
1182.4965872600001
20
1559.1799138199999
42
0.30561468458099877
10
1196.6244453799998
20
1568.70491382
42
-0.30561468458098506
10
1206.0430174600001
20
1575.0549138199999
10
1385.0101570799998
20
1575.0549138199997
42
-0.30561468458097796
10
1394.4287291599999
20
1568.70491382
42
0.30561468458103047
10
1408.55658726
20
1559.1799138199999
10
1573.6565872599999
20
1559.1799138199999
42
-0.41421356237297219
10
1583.8165872600002
20
1549.0199138200001
10
1583.8165872600002
20
1542.6699138200001
42
0.41421356237298579
10
1599.05658726
20
1527.4299138200001
10
2049.1779999999999
20
1527.4299138200001
42
-0.41421356237299511
10
2059.1779999999999
20
1517.4299138200001
10
2059.1779999999999
20
770.34991381999998
42
-0.41421356237299511
10
2049.1779999999999
20
760.34991381999998
10
1980.0565872599998
20
760.34991381999987
42
0.41421356237301582
10
1964.8165872599998
20
745.10991381999997
10
1964.8165872599996
20
580.00991381999995
42
-0.41421356237300488
10
1954.6565872599999
20
569.84991381999998
10
1588.8965872599999
20
569.84991381999998
42
-0.4142135623730131
10
1578.7365872600001
20
580.00991381999995
10
1578.7365872600001
20
586.35991381999997
42
0.41421356237298579
10
1563.4965872600001
20
601.59991381999998
10
1396.5430174600001
20
601.59991381999998
42
-0.30561468458098862
10
1387.12444538
20
607.94991382000012
42
0.30561468458098884
10
1372.9965872599998
20
617.47491381999998
10
1218.05658726
20
617.47491381999998
42
0.30561468458100777
10
1203.9287291399999
20
607.94991382000001
42
-0.30561468458099783
10
1194.5101570799998
20
601.59991381999998
10
1017.3965872600002
20
601.59991381999998
42
-0.41421356237300699
10
1007.2365872600001
20
611.75991381999995
10
1007.2365872600001
20
764.15991382000004
42
0.41421356237300216
10
991.99658725800009
20
779.39991382000005
10
847.18559681999989
20
779.39991381999994
42
0.54861878662700558
10
833.37346614599994
20
757.71921151100003
10
979.37581562399998
20
444.61616266299995
42
-0.41421356237400409
10
974.46153004200005
20
431.11427402499999
10
470.31876043599993
20
196.028639747
42
-0.41421356237300022
10
456.816871773
20
200.94292530399997
10
221.73123749999996
20
705.08569494300002
42
-0.41421356237299511
10
226.64552307700001
20
718.58758359899991
10
558.13665924700001
20
873.164438991
42
-0.41421356237299978
10
571.63854791000006
20
868.25015343399991
10
641.41282292100004
20
718.618737796
42
0.41421356237300827
10
661.66565589800007
20
711.24730943000009
0
LWPOLYLINE
5
103
100
AcDbEntity
8
0
100
AcDbPolyline
90
22
70
1
43
0.0
10
2078.078
20
1866.1379999999997
42
-0.41421356237300111
10
2148.078
20
1796.1379999999999
10
2148.078
20
551.83799999999997
42
-0.41421356237300172
10
2078.078
20
481.83799999999997
10
1306.75007994
20
481.83799999999991
42
0.10949751085699622
10
1277.17189233
20
475.28191868199997
10
481.49211005299998
20
104.32806893400006
42
-0.41419101926300084
10
388.47228051000002
20
138.18891696700001
10
128.82841645200006
20
695.00173902799997
42
-0.41422217769799941
10
162.68885385000004
20
788.02732175200003
10
496.79120453300004
20
943.80851085399991
42
0.29148228585300107
10
537.21000000000004
20
1007.2510229299999
10
537.20999999999992
20
1796.1379999999997
42
-0.41421356237300055
10
607.21000000000004
20
1866.1379999999999
10
688.34000000000003
20
1866.1379999999999
10
827.13700000000006
20
1815.0077999999999
10
900.57100000000003
20
1815.0077999999999
10
1039.3679999999999
20
1866.1379999999999
10
1230.1220000000001
20
1866.1379999999999
10
1322.9191491200002
20
1815.0087669299999
10
1429.9319491200001
20
1815.0087669299999
10
1522.9817894000003
20
1866.1379999999999
0
CIRCLE
5
104
100
AcDbEntity
8
0
100
AcDbCircle
10
1134.7454508799999
20
1821.6870330700001
30
0
40
15
0
CIRCLE
5
105
100
AcDbEntity
8
0
100
AcDbCircle
10
2085.4392373400001
20
1803.49923734
30
0
40
15
0
CIRCLE
5
106
100
AcDbEntity
8
0
100
AcDbCircle
10
2085.4392400000002
20
560.35176265799998
30
0
40
15
0
CIRCLE
5
107
100
AcDbEntity
8
0
100
AcDbCircle
10
1281.3796499999999
20
526.28702999999996
30
0
40
15
0
CIRCLE
5
108
100
AcDbEntity
8
0
100
AcDbCircle
10
1134.7450000000001
20
1821.6880000000001
30
0
40
15
0
CIRCLE
5
109
100
AcDbEntity
8
0
100
AcDbCircle
10
599.91226265800003
20
1803.49923734
30
0
40
15
0
CIRCLE
5
110
100
AcDbEntity
8
0
100
AcDbCircle
10
182.49265271100001
20
728.14285122399997
30
0
40
15
0
CIRCLE
5
111
100
AcDbEntity
8
0
100
AcDbCircle
10
448.35703285100004
20
157.98205197300001
30
0
40
15
0
ENDSEC
0
SECTION
2
OBJECTS
0
DICTIONARY
5
C
100
AcDbDictionary
3
ACAD_GROUP
350
D
3
ACAD_MLINESTYLE
350
17
0
DICTIONARY
5
D
100
AcDbDictionary
0
DICTIONARY
5
1A
330
C
100
AcDbDictionary
0
DICTIONARY
5
17
100
AcDbDictionary
0
ENDSEC
0
EOF
