0
SECTION
2
HEADER
9
$INSUNITS
70
4
9
$ACADVER
1
AC1014
9
$HANDSEED
5
FFFF
0
ENDSEC
0
SECTION
2
TABLES
0
TABLE
2
VPORT
5
8
100
AcDbSymbolTable
0
ENDTAB
0
TABLE
2
LTYPE
5
5
100
AcDbSymbolTable
0
LTYPE
5
14
100
AcDbSymbolTableRecord
100
AcDbLinetypeTableRecord
2
BYBLOCK
70
0
0
LTYPE
5
15
100
AcDbSymbolTableRecord
100
AcDbLinetypeTableRecord
2
BYLAYER
70
0
0
ENDTAB
0
TABLE
2
LAYER
5
2
100
AcDbSymbolTable
70
2
0
LAYER
5
50
100
AcDbSymbolTableRecord
100
AcDbLayerTableRecord
2
0
70
0
6
CONTINUOUS
0
ENDTAB
0
TABLE
2
STYLE
5
3
100
AcDbSymbolTable
70
1
0
STYLE
5
11
100
AcDbSymbolTableRecord
100
AcDbTextStyleTableRecord
2
STANDARD
70
0
0
ENDTAB
0
TABLE
2
VIEW
5
6
100
AcDbSymbolTable
70
0
0
ENDTAB
0
TABLE
2
UCS
5
7
100
AcDbSymbolTable
70
0
0
ENDTAB
0
TABLE
2
APPID
5
9
100
AcDbSymbolTable
70
2
0
APPID
5
12
100
AcDbSymbolTableRecord
100
AcDbRegAppTableRecord
2
ACAD
70
0
0
ENDTAB
0
TABLE
2
DIMSTYLE
5
A
100
AcDbSymbolTable
70
1
0
ENDTAB
0
TABLE
2
BLOCK_RECORD
5
1
100
AcDbSymbolTable
70
1
0
BLOCK_RECORD
5
1F
100
AcDbSymbolTableRecord
100
AcDbBlockTableRecord
2
*MODEL_SPACE
0
BLOCK_RECORD
5
1B
100
AcDbSymbolTableRecord
100
AcDbBlockTableRecord
2
*PAPER_SPACE
0
ENDTAB
0
ENDSEC
0
SECTION
2
BLOCKS
0
BLOCK
5
20
100
AcDbEntity
100
AcDbBlockBegin
2
*MODEL_SPACE
0
ENDBLK
5
21
100
AcDbEntity
100
AcDbBlockEnd
0
BLOCK
5
1C
100
AcDbEntity
100
AcDbBlockBegin
2
*PAPER_SPACE
0
ENDBLK
5
1D
100
AcDbEntity
100
AcDbBlockEnd
0
ENDSEC
0
SECTION
2
ENTITIES
0
CIRCLE
5
100
100
AcDbEntity
8
0
100
AcDbCircle
10
1872.0779999999993
20
1686.138000000004
30
0
40
15
0
ARC
5
101
100
AcDbEntity
8
0
100
AcDbCircle
10
2049.1780000000008
20
1517.4299138201868
30
0
40
10
100
AcDbArc
50
0
51
90
0
ARC
5
102
100
AcDbEntity
8
0
100
AcDbCircle
10
2049.1780000000008
20
770.34991382018643
30
0
40
10
100
AcDbArc
50
-90
51
0
0
LWPOLYLINE
5
103
100
AcDbEntity
8
0
100
AcDbPolyline
90
14
70
1
43
0.0
10
537.21000000000026
20
1007.2510229289683
42
-0.29148228585438207
10
496.79120453336122
20
943.80851085421284
10
162.68885385067728
20
788.02732175224492
42
0.4142221777007607
10
128.82841645244719
20
695.00173902848906
10
388.47228051081601
20
138.18891696661899
42
0.41419101926410135
10
481.49211005274736
20
104.32806893394051
10
1277.1718923335507
20
475.28191868175634
42
-0.1094975108592052
10
1306.7500799438972
20
481.8380000000775
10
2078.077999999995
20
481.83800000001867
42
0.41421356237311885
10
2148.0780000000009
20
551.83800000001861
10
2148.0780000000009
20
1796.1380000000031
42
0.41421356237309503
10
2078.0780000000009
20
1866.1380000000031
10
607.21000000000322
20
1866.1380000000051
42
0.41421356237310575
10
537.21000000000072
20
1796.1380000000051
0
LINE
5
104
100
AcDbEntity
8
0
100
AcDbLine
10
636.39658725844913
20
779.39991382018616
30
0
11
761.99058928304908
21
779.39991382018616
31
0
0
CIRCLE
5
105
100
AcDbEntity
8
0
100
AcDbCircle
10
1134.7454508837482
20
1821.6870330684219
30
0
40
15
0
ARC
5
106
100
AcDbEntity
8
0
100
AcDbCircle
10
636.39658725844913
20
789.55991382018613
30
0
40
10.160000000000693
100
AcDbArc
50
180
51
270
0
ARC
5
107
100
AcDbEntity
8
0
100
AcDbCircle
10
636.39658725844913
20
1536.3199138201858
30
0
40
10.160000000000764
100
AcDbArc
50
90
51
180
0
LINE
5
108
100
AcDbEntity
8
0
100
AcDbLine
10
626.23658725844848
20
1536.3199138201858
30
0
11
626.23658725844848
21
789.55991382018613
31
0
0
LINE
5
109
100
AcDbEntity
8
0
100
AcDbLine
10
991.99658725844915
20
1546.4799138201856
30
0
11
636.39658725844913
21
1546.4799138201865
31
0
0
ARC
5
110
100
AcDbEntity
8
0
100
AcDbCircle
10
1013.993632520049
20
1549.0199138201867
30
0
40
10.160000000000764
100
AcDbArc
50
90
51
149.99999999999977
0
ARC
5
111
100
AcDbEntity
8
0
100
AcDbCircle
10
991.82228299659141
20
1562.0218176673084
30
0
40
15.542881237689009
100
AcDbArc
50
270.64255190174401
51
329.35744807767259
0
LINE
5
112
100
AcDbEntity
8
0
100
AcDbLine
10
1182.4965872584489
20
1559.1799138201859
30
0
11
1013.993632520049
21
1559.1799138201875
31
0
0
ARC
5
113
100
AcDbEntity
8
0
100
AcDbCircle
10
1206.1351783255082
20
1564.7582171584238
30
0
40
10.297109097696753
100
AcDbArc
50
90.512813762013565
51
157.4628733846842
0
ARC
5
114
100
AcDbEntity
8
0
100
AcDbCircle
10
1182.4965872584489
20
1574.4199138201859
30
0
40
15.240000000000009
100
AcDbArc
50
270
51
337.9756871629998
0
LINE
5
115
100
AcDbEntity
8
0
100
AcDbLine
10
1385.010157084449
20
1575.0549138201859
30
0
11
1206.0430174578491
21
1575.0549138201859
31
0
0
ARC
5
116
100
AcDbEntity
8
0
100
AcDbCircle
10
1408.5767938094846
20
1574.4498849453657
30
0
40
15.269984494705614
100
AcDbArc
50
202.10013145612399
51
269.92418129624582
0
ARC
5
117
100
AcDbEntity
8
0
100
AcDbCircle
10
1385.010157084449
20
1564.894913820186
30
0
40
10.159999999999956
100
AcDbArc
50
22.024312836999162
51
90
0
LINE
5
118
100
AcDbEntity
8
0
100
AcDbLine
10
1573.656587258449
20
1559.1799138201859
30
0
11
1408.5565872584491
21
1559.1799138201852
31
0
0
LINE
5
119
100
AcDbEntity
8
0
100
AcDbLine
10
1583.8165872584489
20
1542.6699138201857
30
0
11
1583.8165872584489
21
1549.0199138201867
31
0
0
ARC
5
120
100
AcDbEntity
8
0
100
AcDbCircle
10
1573.656587258449
20
1549.0199138201867
30
0
40
10.160000000000764
100
AcDbArc
50
0
51
90
0
ARC
5
121
100
AcDbEntity
8
0
100
AcDbCircle
10
1599.0565872584489
20
1542.6699138201857
30
0
40
15.240000000000009
100
AcDbArc
50
180
51
270
0
LINE
5
122
100
AcDbEntity
8
0
100
AcDbLine
10
1980.0565872584491
20
760.34991382018643
30
0
11
2049.1780000000008
21
760.34991382018643
31
0
0
LINE
5
123
100
AcDbEntity
8
0
100
AcDbLine
10
2049.1780000000008
20
1527.4299138201868
30
0
11
1599.0565872584489
21
1527.4299138201857
31
0
0
ARC
5
124
100
AcDbEntity
8
0
100
AcDbCircle
10
1980.0565872584491
20
745.10991382018585
30
0
40
15.240000000000578
100
AcDbArc
50
90
51
180
0
ARC
5
125
100
AcDbEntity
8
0
100
AcDbCircle
10
1954.6565872584492
20
580.00991382018628
30
0
40
10.160000000000693
100
AcDbArc
50
-90
51
0
0
LINE
5
126
100
AcDbEntity
8
0
100
AcDbLine
10
1964.81658725845
20
580.00991382018628
30
0
11
1964.8165872584486
21
745.10991382018585
31
0
0
LINE
5
127
100
AcDbEntity
8
0
100
AcDbLine
10
1588.896587258449
20
569.84991382018609
30
0
11
1954.6565872584492
21
569.84991382018563
31
0
0
ARC
5
128
100
AcDbEntity
8
0
100
AcDbCircle
10
1588.896587258449
20
580.00991382018628
30
0
40
10.160000000000196
100
AcDbArc
50
180
51
270
0
LINE
5
129
100
AcDbEntity
8
0
100
AcDbLine
10
1578.7365872584492
20
586.35991382018631
30
0
11
1578.7365872584487
21
580.00991382018628
31
0
0
LINE
5
130
100
AcDbEntity
8
0
100
AcDbLine
10
1396.5430174578491
20
601.59991382018654
30
0
11
1563.4965872584489
21
601.59991382018654
31
0
0
ARC
5
131
100
AcDbEntity
8
0
100
AcDbCircle
10
1563.4965872584489
20
586.35991382018631
30
0
40
15.240000000000578
100
AcDbArc
50
0
51
90
0
ARC
5
132
100
AcDbEntity
8
0
100
AcDbCircle
10
1396.5215380536595
20
611.72805471946549
30
0
40
10.128163675634864
100
AcDbArc
50
201.90280216603105
51
270.12151068727383
0
ARC
5
133
100
AcDbEntity
8
0
100
AcDbCircle
10
1372.9965872584489
20
602.23491382018597
30
0
40
15.239999999999883
100
AcDbArc
50
22.02431283700011
51
90
0
LINE
5
134
100
AcDbEntity
8
0
100
AcDbLine
10
1218.0565872584489
20
617.47491382018654
30
0
11
1372.9965872584489
21
617.47491382018575
31
0
0
ARC
5
135
100
AcDbEntity
8
0
100
AcDbCircle
10
1194.510157084449
20
611.75991382018617
30
0
40
10.160000000000267
100
AcDbArc
50
270
51
337.97568716299952
0
ARC
5
136
100
AcDbEntity
8
0
100
AcDbCircle
10
1218.0559294411503
20
602.2358895543324
30
0
40
15.239024280051961
100
AcDbArc
50
89.997526734374915
51
157.9781605132579
0
LINE
5
137
100
AcDbEntity
8
0
100
AcDbLine
10
1017.396587258449
20
601.59991382018654
30
0
11
1194.510157084449
21
601.59991382018586
31
0
0
ARC
5
138
100
AcDbEntity
8
0
100
AcDbCircle
10
1017.396587258449
20
611.75991382018617
30
0
40
10.159999999999769
100
AcDbArc
50
180
51
270
0
LINE
5
139
100
AcDbEntity
8
0
100
AcDbLine
10
1007.2365872584489
20
764.15991382018649
30
0
11
1007.2365872584493
21
611.75991382018617
31
0
0
LINE
5
140
100
AcDbEntity
8
0
100
AcDbLine
10
847.18559682004923
20
779.39991382018616
30
0
11
991.99658725844915
21
779.39991382018616
31
0
0
ARC
5
141
100
AcDbEntity
8
0
100
AcDbCircle
10
991.99658725844915
20
764.15991382018649
30
0
40
15.239999999999725
100
AcDbArc
50
0
51
90
0
ARC
5
142
100
AcDbEntity
8
0
100
AcDbCircle
10
847.35050852857557
20
764.05485347898957
30
0
40
15.34594645978453
100
AcDbArc
50
90.615727859185071
51
204.38427215931119
0
LINE
5
143
100
AcDbEntity
8
0
100
AcDbLine
10
979.37581562424953
20
444.61616266258636
30
0
11
833.37346615124943
21
757.71921151238598
31
0
0
ARC
5
144
100
AcDbEntity
8
0
100
AcDbCircle
10
970.0394847402797
20
440.36903804537542
30
0
40
10.256955780788996
100
AcDbArc
50
-64.460928920739804
51
24.460928907880408
0
ARC
5
145
100
AcDbEntity
8
0
100
AcDbCircle
10
466.02270270290495
20
205.23052803269184
30
0
40
10.155336531288174
100
AcDbArc
50
204.97368291119935
51
295.02631707466651
0
LINE
5
146
100
AcDbEntity
8
0
100
AcDbLine
10
470.3187604358493
20
196.02863974718628
30
0
11
974.46153005024928
21
431.11427401998634
31
0
0
CIRCLE
5
147
100
AcDbEntity
8
0
100
AcDbCircle
10
599.9122626584716
20
1803.4992373415341
30
0
40
15
0
CIRCLE
5
148
100
AcDbEntity
8
0
100
AcDbCircle
10
182.49265271135238
20
728.14285122443312
30
0
40
15
0
CIRCLE
5
149
100
AcDbEntity
8
0
100
AcDbCircle
10
448.35703285094098
20
157.98205197269971
30
0
40
15
0
CIRCLE
5
150
100
AcDbEntity
8
0
100
AcDbCircle
10
1281.379200000001
20
526.28799999999251
30
0
40
15
0
CIRCLE
5
151
100
AcDbEntity
8
0
100
AcDbCircle
10
2085.4392400000011
20
560.35176265848008
30
0
40
15
0
LINE
5
152
100
AcDbEntity
8
0
100
AcDbLine
10
2059.1780000000008
20
770.34991382018643
30
0
11
2059.1780000000008
21
1517.4299138201868
31
0
0
ARC
5
153
100
AcDbEntity
8
0
100
AcDbCircle
10
762.84278044515884
20
769.42884005323606
30
0
40
10.007424336098609
100
AcDbArc
50
-69.884989524123441
51
94.884989418504929
0
CIRCLE
5
154
100
AcDbEntity
8
0
100
AcDbCircle
10
2085.4392373415299
20
1803.4992373415332
30
0
40
15
0
LINE
5
155
100
AcDbEntity
8
0
100
AcDbLine
10
766.28439080464932
20
760.03182669918647
30
0
11
661.66565589724939
21
711.2473094093865
31
0
0
ARC
5
156
100
AcDbEntity
8
0
100
AcDbCircle
10
655.48779903039997
20
725.78160196752401
30
0
40
15.792769726454498
100
AcDbArc
50
206.97189505692151
51
293.02810482640501
0
LINE
5
157
100
AcDbEntity
8
0
100
AcDbLine
10
641.41282292064932
20
718.61873779578627
30
0
11
571.63854791524898
21
868.25015341678659
31
0
0
LINE
5
158
100
AcDbEntity
8
0
100
AcDbLine
10
558.37936046028585
20
873.0937782509211
30
0
11
226.64552306904909
21
718.58758357818658
31
0
0
ARC
5
159
100
AcDbEntity
8
0
100
AcDbCircle
10
562.29667277154317
20
863.24722733647809
30
0
40
10.597164741836435
100
AcDbArc
50
28.170726892909588
51
111.69444293273918
0
ARC
5
160
100
AcDbEntity
8
0
100
AcDbCircle
10
231.26104695988548
20
709.26239911407765
30
0
40
10.404908749073227
100
AcDbArc
50
116.33322662558039
51
203.66677337589152
0
LINE
5
161
100
AcDbEntity
8
0
100
AcDbLine
10
221.73123749976401
20
705.08569494328458
30
0
11
456.81687177256424
21
200.94292532888431
31
0
0
CIRCLE
5
162
100
AcDbEntity
8
0
100
AcDbCircle
10
1134.7450000000008
20
1821.6880000000049
30
0
40
15
0
ENDSEC
0
SECTION
2
OBJECTS
0
DICTIONARY
5
C
100
AcDbDictionary
3
ACAD_GROUP
350
D
3
ACAD_MLINESTYLE
350
17
0
DICTIONARY
5
D
100
AcDbDictionary
0
DICTIONARY
5
1A
330
C
100
AcDbDictionary
0
DICTIONARY
5
17
100
AcDbDictionary
0
ENDSEC
0
EOF
