0
SECTION
2
HEADER
9
$INSUNITS
70
4
9
$ACADVER
1
AC1014
9
$HANDSEED
5
FFFF
0
ENDSEC
0
SECTION
2
TABLES
0
TABLE
2
VPORT
5
8
100
AcDbSymbolTable
0
ENDTAB
0
TABLE
2
LTYPE
5
5
100
AcDbSymbolTable
0
LTYPE
5
14
100
AcDbSymbolTableRecord
100
AcDbLinetypeTableRecord
2
BYBLOCK
70
0
0
LTYPE
5
15
100
AcDbSymbolTableRecord
100
AcDbLinetypeTableRecord
2
BYLAYER
70
0
0
ENDTAB
0
TABLE
2
LAYER
5
2
100
AcDbSymbolTable
70
2
0
LAYER
5
50
100
AcDbSymbolTableRecord
100
AcDbLayerTableRecord
2
0
70
0
6
CONTINUOUS
0
ENDTAB
0
TABLE
2
STYLE
5
3
100
AcDbSymbolTable
70
1
0
STYLE
5
11
100
AcDbSymbolTableRecord
100
AcDbTextStyleTableRecord
2
STANDARD
70
0
0
ENDTAB
0
TABLE
2
VIEW
5
6
100
AcDbSymbolTable
70
0
0
ENDTAB
0
TABLE
2
UCS
5
7
100
AcDbSymbolTable
70
0
0
ENDTAB
0
TABLE
2
APPID
5
9
100
AcDbSymbolTable
70
2
0
APPID
5
12
100
AcDbSymbolTableRecord
100
AcDbRegAppTableRecord
2
ACAD
70
0
0
ENDTAB
0
TABLE
2
DIMSTYLE
5
A
100
AcDbSymbolTable
70
1
0
ENDTAB
0
TABLE
2
BLOCK_RECORD
5
1
100
AcDbSymbolTable
70
1
0
BLOCK_RECORD
5
1F
100
AcDbSymbolTableRecord
100
AcDbBlockTableRecord
2
*MODEL_SPACE
0
BLOCK_RECORD
5
1B
100
AcDbSymbolTableRecord
100
AcDbBlockTableRecord
2
*PAPER_SPACE
0
ENDTAB
0
ENDSEC
0
SECTION
2
BLOCKS
0
BLOCK
5
20
100
AcDbEntity
100
AcDbBlockBegin
2
*MODEL_SPACE
0
ENDBLK
5
21
100
AcDbEntity
100
AcDbBlockEnd
0
BLOCK
5
1C
100
AcDbEntity
100
AcDbBlockBegin
2
*PAPER_SPACE
0
ENDBLK
5
1D
100
AcDbEntity
100
AcDbBlockEnd
0
ENDSEC
0
SECTION
2
ENTITIES
0
CIRCLE
5
100
100
AcDbEntity
8
0
100
AcDbCircle
10
2085.4392400000002
20
560.35176265799998
30
0
40
15
0
LWPOLYLINE
5
101
100
AcDbEntity
8
0
100
AcDbPolyline
90
21
70
1
43
0.0
10
447.64959999999996
20
221.6404
10
230.8098
20
686.66359999999997
10
246.17680000000001
20
728.85300000000007
10
577.08799999999997
20
883.1579999999999
10
626.11000000000001
20
883.1579999999999
10
626.11000000000001
20
1745.4880000000001
10
658.11400000000003
20
1777.2380000000001
10
778.76400000000001
20
1777.2380000000001
10
778.76400000000001
20
1795.018
10
950.46800000000007
20
1795.018
10
950.46800000000007
20
1777.2380000000001
10
1319.0219999999999
20
1777.2380000000001
10
1319.0219999999999
20
1795.018
10
1434.0840000000001
20
1795.018
10
1434.0840000000001
20
1777.2380000000001
10
2027.4279999999999
20
1777.2380000000001
10
2059.1779999999999
20
1745.4880000000001
10
2059.1779999999999
20
665.98799999999994
10
1963.9279999999999
20
570.73799999999994
10
1271.5239999999999
20
570.73799999999994
10
489.839
20
206.2988
0
CIRCLE
5
102
100
AcDbEntity
8
0
100
AcDbCircle
10
2085.4392373400001
20
1803.49923734
30
0
40
15
0
LWPOLYLINE
5
103
100
AcDbEntity
8
0
100
AcDbPolyline
90
22
70
1
43
0.0
10
1522.9817894000003
20
1866.1379999999999
10
2078.078
20
1866.1379999999997
42
-0.41421356237300111
10
2148.078
20
1796.1379999999999
10
2148.078
20
551.83799999999997
42
-0.41421356237300172
10
2078.078
20
481.83799999999997
10
1306.75007994
20
481.83800000000008
42
0.10949751085899914
10
1277.17189233
20
475.28191868199997
10
481.49211005300003
20
104.32806893399997
42
-0.41419101926399943
10
388.47228051100001
20
138.18891696700001
10
128.82841645200011
20
695.00173902799997
42
-0.41422217770099962
10
162.68885385099998
20
788.02732175200003
10
496.79120453300004
20
943.80851085400025
42
0.29148228585400038
10
537.21000000000004
20
1007.2510229299999
10
537.20999999999992
20
1796.1379999999997
42
-0.41421356237300172
10
607.21000000000004
20
1866.1379999999999
10
688.34000000000003
20
1866.1379999999999
10
827.13700000000006
20
1815.0077999999999
10
900.57100000000003
20
1815.0077999999999
10
1039.3679999999999
20
1866.1379999999999
10
1230.1215491200001
20
1866.1389669299999
10
1322.9191491200002
20
1815.0087669299999
10
1429.9319491200001
20
1815.0087669299999
0
CIRCLE
5
104
100
AcDbEntity
8
0
100
AcDbCircle
10
448.35703285100004
20
157.98205197300001
30
0
40
15
0
CIRCLE
5
105
100
AcDbEntity
8
0
100
AcDbCircle
10
1281.3792000000001
20
526.28800000000001
30
0
40
15
0
CIRCLE
5
106
100
AcDbEntity
8
0
100
AcDbCircle
10
182.49265271100001
20
728.14285122399997
30
0
40
15
0
CIRCLE
5
107
100
AcDbEntity
8
0
100
AcDbCircle
10
1134.7450000000001
20
1821.6880000000001
30
0
40
15
0
CIRCLE
5
108
100
AcDbEntity
8
0
100
AcDbCircle
10
599.91226265800003
20
1803.49923734
30
0
40
15
0
ENDSEC
0
SECTION
2
OBJECTS
0
DICTIONARY
5
C
100
AcDbDictionary
3
ACAD_GROUP
350
D
3
ACAD_MLINESTYLE
350
17
0
DICTIONARY
5
D
100
AcDbDictionary
0
DICTIONARY
5
1A
330
C
100
AcDbDictionary
0
DICTIONARY
5
17
100
AcDbDictionary
0
ENDSEC
0
EOF
