0
SECTION
2
HEADER
9
$INSUNITS
70
4
9
$ACADVER
1
AC1014
9
$HANDSEED
5
FFFF
0
ENDSEC
0
SECTION
2
TABLES
0
TABLE
2
VPORT
5
8
100
AcDbSymbolTable
0
ENDTAB
0
TABLE
2
LTYPE
5
5
100
AcDbSymbolTable
0
LTYPE
5
14
100
AcDbSymbolTableRecord
100
AcDbLinetypeTableRecord
2
BYBLOCK
70
0
0
LTYPE
5
15
100
AcDbSymbolTableRecord
100
AcDbLinetypeTableRecord
2
BYLAYER
70
0
0
ENDTAB
0
TABLE
2
LAYER
5
2
100
AcDbSymbolTable
70
2
0
LAYER
5
50
100
AcDbSymbolTableRecord
100
AcDbLayerTableRecord
2
0
70
0
6
CONTINUOUS
0
ENDTAB
0
TABLE
2
STYLE
5
3
100
AcDbSymbolTable
70
1
0
STYLE
5
11
100
AcDbSymbolTableRecord
100
AcDbTextStyleTableRecord
2
STANDARD
70
0
0
ENDTAB
0
TABLE
2
VIEW
5
6
100
AcDbSymbolTable
70
0
0
ENDTAB
0
TABLE
2
UCS
5
7
100
AcDbSymbolTable
70
0
0
ENDTAB
0
TABLE
2
APPID
5
9
100
AcDbSymbolTable
70
2
0
APPID
5
12
100
AcDbSymbolTableRecord
100
AcDbRegAppTableRecord
2
ACAD
70
0
0
ENDTAB
0
TABLE
2
DIMSTYLE
5
A
100
AcDbSymbolTable
70
1
0
ENDTAB
0
TABLE
2
BLOCK_RECORD
5
1
100
AcDbSymbolTable
70
1
0
BLOCK_RECORD
5
1F
100
AcDbSymbolTableRecord
100
AcDbBlockTableRecord
2
*MODEL_SPACE
0
BLOCK_RECORD
5
1B
100
AcDbSymbolTableRecord
100
AcDbBlockTableRecord
2
*PAPER_SPACE
0
ENDTAB
0
ENDSEC
0
SECTION
2
BLOCKS
0
BLOCK
5
20
100
AcDbEntity
100
AcDbBlockBegin
2
*MODEL_SPACE
0
ENDBLK
5
21
100
AcDbEntity
100
AcDbBlockEnd
0
BLOCK
5
1C
100
AcDbEntity
100
AcDbBlockBegin
2
*PAPER_SPACE
0
ENDBLK
5
1D
100
AcDbEntity
100
AcDbBlockEnd
0
ENDSEC
0
SECTION
2
ENTITIES
0
LWPOLYLINE
5
100
100
AcDbEntity
8
0
100
AcDbPolyline
90
12
70
1
43
0.0
10
74,999999569056598
20
160,2332666805454
10
74,999999569056698
20
170,43532668054542
10
52,807845088375274
20
170,43532668054542
10
52,807845088375274
20
172,43532668054539
10
40,807845088375252
20
172,43532668054539
10
40,807845088375252
20
170,43532668054542
10
38,307845088375252
20
170,43532668054542
10
38,307845088375252
20
160,2332666805454
10
40,807845088375252
20
160,2332666805454
10
40,807845088375252
20
158,2332666805454
10
52,807845088375274
20
158,2332666805454
10
52,807845088375274
20
160,2332666805454
0
LWPOLYLINE
5
101
100
AcDbEntity
8
0
100
AcDbPolyline
90
16
70
1
43
0.0
10
19,999999999999915
20
176,69800000000021
42
-0,41421356237309481
10
26,999999999999904
20
183,69800000000021
10
130,8709999999999
20
183,69800000000009
10
144,75069999999991
20
178,58498000000009
10
152,0941
20
178,58498000000009
10
165,9737999999999
20
183,69800000000009
10
174,08679999999976
20
183,69800000000029
42
-0,41421356237310542
10
181,08679999999998
20
176,69800000000032
10
181,08680000000004
20
97,80930229289649
42
0,29148228585437941
10
185,12867954666382
20
91,465051085420995
10
218,53891461493225
20
75,88693217522416
42
-0,41422217770076158
10
221,92495835475518
20
66,584373902848583
10
178,56652027719892
20
-26,398891285084684
42
-0,29147430747406688
10
172,2223560840398
20
-30,440584220184608
10
26,999999999999741
20
-30,440584220184554
42
-0,41421356237309503
10
19,999999999999737
20
-23,440584220184562
0
CIRCLE
5
102
100
AcDbEntity
8
0
100
AcDbCircle
10
172,94101334278821
20
-24,568646079736443
30
0
40
1,5000000000000002
0
CIRCLE
5
103
100
AcDbEntity
8
0
100
AcDbCircle
10
26,26387599999973
20
-24,176684220184544
30
0
40
1,5000000000000002
0
LWPOLYLINE
5
104
100
AcDbEntity
8
0
100
AcDbPolyline
90
4
70
1
43
0.0
10
154,8077999999999
20
177,08420000000007
10
142,03699999999992
20
177,08420000000018
10
142,03699999999992
20
163,5842000000001
10
154,8077999999999
20
163,5842000000001
0
LINE
5
105
100
AcDbEntity
8
0
100
AcDbLine
10
171,16814127415509
20
75,024191382018444
30
0
11
158,60874107169511
21
75,024191382018302
31
0
0
LINE
5
106
100
AcDbEntity
8
0
100
AcDbLine
10
172,18414127415511
20
150,71619138201842
30
0
11
172,18414127415511
21
76,040191382018293
31
0
0
ARC
5
107
100
AcDbEntity
8
0
100
AcDbCircle
10
171,16814127415509
20
76,040191382018378
30
0
40
1,0160000000000657
100
AcDbArc
50
270
51
360
0
ARC
5
108
100
AcDbEntity
8
0
100
AcDbCircle
10
171,16814127415509
20
150,71619138201842
30
0
40
1,0160000000000835
100
AcDbArc
50
0
51
90
0
LINE
5
109
100
AcDbEntity
8
0
100
AcDbLine
10
135,60814127415509
20
151,73219138201841
30
0
11
171,16814127415509
21
151,7321913820185
31
0
0
ARC
5
110
100
AcDbEntity
8
0
100
AcDbCircle
10
135,60814127415509
20
153,25619138201833
30
0
40
1,5240000000000564
100
AcDbArc
50
210,00000000000051
51
270
0
LINE
5
111
100
AcDbEntity
8
0
100
AcDbLine
10
116,5581412741551
20
153,00219138201842
30
0
11
133,4084367479951
21
153,00219138201842
31
0
0
ARC
5
112
100
AcDbEntity
8
0
100
AcDbCircle
10
133,4084367479951
20
151,98619138201843
30
0
40
1,0160000000000722
100
AcDbArc
50
29,999999984556005
51
90
0
ARC
5
113
100
AcDbEntity
8
0
100
AcDbCircle
10
116,5581412741551
20
154,52619138201834
30
0
40
1,5240000000000067
100
AcDbArc
50
202,02431283700105
51
270
0
ARC
5
114
100
AcDbEntity
8
0
100
AcDbCircle
10
114,20349825421511
20
153,57369138201841
30
0
40
1,0159999999999856
100
AcDbArc
50
22,024312831028148
51
90
0
LINE
5
115
100
AcDbEntity
8
0
100
AcDbLine
10
96,256966940294944
20
154,5865994869784
30
0
11
114,20349825421511
21
154,5896913820184
31
0
0
ARC
5
116
100
AcDbEntity
8
0
100
AcDbCircle
10
93,952141274155153
20
154,52619138201834
30
0
40
1,5240000000000542
100
AcDbArc
50
270
51
337,97568716299958
0
ARC
5
117
100
AcDbEntity
8
0
100
AcDbCircle
10
96,365210601884712
20
153,48821329070407
30
0
40
1,1037069024158386
100
AcDbArc
50
95,62820634443159
51
154,99820145806581
0
LINE
5
118
100
AcDbEntity
8
0
100
AcDbLine
10
77,442141274155119
20
153,00219138201842
30
0
11
93,952141274155153
21
153,00219138201828
31
0
0
ARC
5
119
100
AcDbEntity
8
0
100
AcDbCircle
10
77,442141274155119
20
151,98619138201852
30
0
40
1,0160000000000657
100
AcDbArc
50
90
51
180
0
LINE
5
120
100
AcDbEntity
8
0
100
AcDbLine
10
76,426141274155157
20
151,35119138201833
30
0
11
76,426141274155057
21
151,98619138201852
31
0
0
LINE
5
121
100
AcDbEntity
8
0
100
AcDbLine
10
29,889999999999873
20
149,8271913820185
30
0
11
74,902141274155099
21
149,8271913820185
31
0
0
ARC
5
122
100
AcDbEntity
8
0
100
AcDbCircle
10
74,902141274155099
20
151,35119138201841
30
0
40
1,5240000000000187
100
AcDbArc
50
270
51
360
0
LINE
5
123
100
AcDbEntity
8
0
100
AcDbLine
10
36,802141274155076
20
73,119191382018414
30
0
11
29,889999999999873
21
73,119191382018414
31
0
0
LINE
5
124
100
AcDbEntity
8
0
100
AcDbLine
10
38,326141274155027
20
55,085191382018401
30
0
11
38,326141274155027
21
71,595191382018356
31
0
0
ARC
5
125
100
AcDbEntity
8
0
100
AcDbCircle
10
36,802141274155076
20
71,595191382018356
30
0
40
1,5240000000000586
100
AcDbArc
50
0
51
90
0
ARC
5
126
100
AcDbEntity
8
0
100
AcDbCircle
10
39,342141274155104
20
55,085191382018401
30
0
40
1,0160000000000702
100
AcDbArc
50
180
51
270
0
ARC
5
127
100
AcDbEntity
8
0
100
AcDbCircle
10
75,918141274155118
20
55,085191382018373
30
0
40
1,0160000000000213
100
AcDbArc
50
-90
51
0
0
LINE
5
128
100
AcDbEntity
8
0
100
AcDbLine
10
75,918141274155118
20
54,069191382018353
30
0
11
39,342141274155104
21
54,069191382018332
31
0
0
LINE
5
129
100
AcDbEntity
8
0
100
AcDbLine
10
76,934141274155081
20
55,72019138201842
30
0
11
76,934141274155138
21
55,085191382018373
31
0
0
LINE
5
130
100
AcDbEntity
8
0
100
AcDbLine
10
95,153498254215094
20
57,244191382018492
30
0
11
78,458141274155082
21
57,24419138201845
31
0
0
ARC
5
131
100
AcDbEntity
8
0
100
AcDbCircle
10
78,458141274155082
20
55,720191382018349
30
0
40
1,5240000000000542
100
AcDbArc
50
90
51
180
0
ARC
5
132
100
AcDbEntity
8
0
100
AcDbCircle
10
95,153498254215094
20
58,260191382018405
30
0
40
1,0159999999999858
100
AcDbArc
50
270
51
337,97568716300032
0
LINE
5
133
100
AcDbEntity
8
0
100
AcDbLine
10
113,00214127415512
20
58,831691382018356
30
0
11
97,508141274155108
21
58,831691382018363
31
0
0
ARC
5
134
100
AcDbEntity
8
0
100
AcDbCircle
10
97,508141274155108
20
57,307691382018284
30
0
40
1,5239999999999831
100
AcDbArc
50
90
51
157,97568716697356
0
ARC
5
135
100
AcDbEntity
8
0
100
AcDbCircle
10
113,00235269226327
20
57,308004969090163
30
0
40
1,5236864275957798
100
AcDbArc
50
22,01636271414721
51
90,007950038229097
0
LINE
5
136
100
AcDbEntity
8
0
100
AcDbLine
10
133,0681412741551
20
57,244191382018641
30
0
11
115,3567842915551
21
57,244191382018556
31
0
0
ARC
5
137
100
AcDbEntity
8
0
100
AcDbCircle
10
115,3567842915551
20
58,260191382018469
30
0
40
1,0160000000000222
100
AcDbArc
50
202,0243128370002
51
270
0
ARC
5
138
100
AcDbEntity
8
0
100
AcDbCircle
10
133,0681412741551
20
58,260191382018505
30
0
40
1,0159999999999769
100
AcDbArc
50
-90
51
0
0
ARC
5
139
100
AcDbEntity
8
0
100
AcDbCircle
10
135,60814127415509
20
73,500191382018443
30
0
40
1,5239999999999654
100
AcDbArc
50
90
51
180
0
LINE
5
140
100
AcDbEntity
8
0
100
AcDbLine
10
134,08414127415514
20
73,500191382018443
30
0
11
134,08414127415509
21
58,260191382018505
31
0
0
LINE
5
141
100
AcDbEntity
8
0
100
AcDbLine
10
150,08924031799509
20
75,024191382018415
30
0
11
135,60814127415509
21
75,024191382018415
31
0
0
LINE
5
142
100
AcDbEntity
8
0
100
AcDbLine
10
136,87021843757501
20
41,545816266258683
30
0
11
151,47045338487499
21
72,856121151238312
31
0
0
ARC
5
143
100
AcDbEntity
8
0
100
AcDbCircle
10
150,08924031799509
20
73,500191382018443
30
0
40
1,5240000000000538
100
AcDbArc
50
-25,000000005120611
51
90
0
ARC
5
144
100
AcDbEntity
8
0
100
AcDbCircle
10
137,78350959811777
20
41,113699948849813
30
0
40
1,0103589736804266
100
AcDbArc
50
154,67920715125121
51
245,32079293218629
0
ARC
5
145
100
AcDbEntity
8
0
100
AcDbCircle
10
29,889999999999873
20
74,1191913820184
30
0
40
1,0000000000000009
100
AcDbArc
50
180
51
270
0
LINE
5
146
100
AcDbEntity
8
0
100
AcDbLine
10
187,77592395641511
20
16,687063974718463
30
0
11
137,36164699574493
21
40,195627402469981
31
0
0
CIRCLE
5
147
100
AcDbEntity
8
0
100
AcDbCircle
10
121,33329999999992
20
179,25300000000033
30
0
40
1,5000000000000002
0
CIRCLE
5
148
100
AcDbEntity
8
0
100
AcDbCircle
10
174,81657373415283
20
177,43412373415322
30
0
40
1,5000000000000002
0
CIRCLE
5
149
100
AcDbEntity
8
0
100
AcDbCircle
10
106,66987999999991
20
49,712999999999106
30
0
40
1,5000000000000002
0
CIRCLE
5
150
100
AcDbEntity
8
0
100
AcDbCircle
10
216,55853472886466
20
69,898485122443077
30
0
40
1,5000000000000002
0
CIRCLE
5
151
100
AcDbEntity
8
0
100
AcDbCircle
10
26,263875999999872
20
53,119376265847762
30
0
40
1,5000000000000002
0
LINE
5
152
100
AcDbEntity
8
0
100
AcDbLine
10
28,889999999999873
20
74,1191913820184
30
0
11
28,889999999999905
21
148,8271913820185
31
0
0
CIRCLE
5
153
100
AcDbEntity
8
0
100
AcDbCircle
10
26,263876265847021
20
177,4341237341531
30
0
40
1,5000000000000002
0
LINE
5
154
100
AcDbEntity
8
0
100
AcDbLine
10
158,17936091953501
20
73,087382669918355
30
0
11
168,64123441027499
21
68,208930940938359
31
0
0
ARC
5
155
100
AcDbEntity
8
0
100
AcDbCircle
10
158,62371420968765
20
74,004871917425092
30
0
40
1,0194294314762224
100
AcDbArc
50
90,841577097255112
51
244,15842300835939
0
ARC
5
156
100
AcDbEntity
8
0
100
AcDbCircle
10
169,22661793450601
20
69,751384407379177
30
0
40
1,6497989473194627
100
AcDbArc
50
249,21751784122347
51
330,78248225945129
0
ARC
5
157
100
AcDbEntity
8
0
100
AcDbCircle
10
178,59060510648487
20
83,408809637316097
30
0
40
1,0707804777162457
100
AcDbArc
50
67,860990818621588
51
152,1390091249543
0
LINE
5
158
100
AcDbEntity
8
0
100
AcDbLine
10
170,66651770849779
20
68,946073779462992
30
0
11
177,64394520847509
21
83,909215341678433
31
0
0
LINE
5
159
100
AcDbEntity
8
0
100
AcDbLine
10
178,99413407527501
20
84,400643899078318
30
0
11
212,14324769309513
21
68,942958357818583
31
0
0
LINE
5
160
100
AcDbEntity
8
0
100
AcDbLine
10
212,6346762500236
20
67,592769494328138
30
0
11
189,12611282274361
21
17,178492532888122
31
0
0
ARC
5
161
100
AcDbEntity
8
0
100
AcDbCircle
10
211,09821234130965
20
67,798069480791284
30
0
40
1,5501191654909277
100
AcDbArc
50
-7,610695622195994
51
47,610695620712661
0
ARC
5
162
100
AcDbEntity
8
0
100
AcDbCircle
10
188,20095649699954
20
17,619817656869131
30
0
40
1,0250278494369194
100
AcDbArc
50
245,50243141346525
51
334,49756860065389
0
ARC
5
163
100
AcDbEntity
8
0
100
AcDbCircle
10
29,889999999999873
20
148,8271913820185
30
0
40
0,99999999999999645
100
AcDbArc
50
90
51
180
0
ENDSEC
0
SECTION
2
OBJECTS
0
DICTIONARY
5
C
100
AcDbDictionary
3
ACAD_GROUP
350
D
3
ACAD_MLINESTYLE
350
17
0
DICTIONARY
5
D
100
AcDbDictionary
0
DICTIONARY
5
1A
330
C
100
AcDbDictionary
0
DICTIONARY
5
17
100
AcDbDictionary
0
ENDSEC
0
EOF
