0
SECTION
2
HEADER
9
$INSUNITS
70
4
9
$ACADVER
1
AC1014
9
$HANDSEED
5
FFFF
0
ENDSEC
0
SECTION
2
TABLES
0
TABLE
2
VPORT
5
8
100
AcDbSymbolTable
0
ENDTAB
0
TABLE
2
LTYPE
5
5
100
AcDbSymbolTable
0
LTYPE
5
14
100
AcDbSymbolTableRecord
100
AcDbLinetypeTableRecord
2
BYBLOCK
70
0
0
LTYPE
5
15
100
AcDbSymbolTableRecord
100
AcDbLinetypeTableRecord
2
BYLAYER
70
0
0
ENDTAB
0
TABLE
2
LAYER
5
2
100
AcDbSymbolTable
70
2
0
LAYER
5
50
100
AcDbSymbolTableRecord
100
AcDbLayerTableRecord
2
0
70
0
6
CONTINUOUS
0
ENDTAB
0
TABLE
2
STYLE
5
3
100
AcDbSymbolTable
70
1
0
STYLE
5
11
100
AcDbSymbolTableRecord
100
AcDbTextStyleTableRecord
2
STANDARD
70
0
0
ENDTAB
0
TABLE
2
VIEW
5
6
100
AcDbSymbolTable
70
0
0
ENDTAB
0
TABLE
2
UCS
5
7
100
AcDbSymbolTable
70
0
0
ENDTAB
0
TABLE
2
APPID
5
9
100
AcDbSymbolTable
70
2
0
APPID
5
12
100
AcDbSymbolTableRecord
100
AcDbRegAppTableRecord
2
ACAD
70
0
0
ENDTAB
0
TABLE
2
DIMSTYLE
5
A
100
AcDbSymbolTable
70
1
0
ENDTAB
0
TABLE
2
BLOCK_RECORD
5
1
100
AcDbSymbolTable
70
1
0
BLOCK_RECORD
5
1F
100
AcDbSymbolTableRecord
100
AcDbBlockTableRecord
2
*MODEL_SPACE
0
BLOCK_RECORD
5
1B
100
AcDbSymbolTableRecord
100
AcDbBlockTableRecord
2
*PAPER_SPACE
0
ENDTAB
0
ENDSEC
0
SECTION
2
BLOCKS
0
BLOCK
5
20
100
AcDbEntity
100
AcDbBlockBegin
2
*MODEL_SPACE
0
ENDBLK
5
21
100
AcDbEntity
100
AcDbBlockEnd
0
BLOCK
5
1C
100
AcDbEntity
100
AcDbBlockBegin
2
*PAPER_SPACE
0
ENDBLK
5
1D
100
AcDbEntity
100
AcDbBlockEnd
0
ENDSEC
0
SECTION
2
ENTITIES
0
LWPOLYLINE
5
100
100
AcDbEntity
8
0
100
AcDbPolyline
90
20
70
1
43
0.0
10
2148,078
20
1796,1380000000031
10
2148,078
20
-205,24784220183648
42
-0,41421356237309503
10
2078,078
20
-275,24784220183648
10
625,8544391596007
20
-275,24784220183648
42
-0,29147430747406772
10
562,41279722800823
20
-234,83091285083759
10
128,82841645244713
20
695,00173902848883
42
-0,4142221777007607
10
162,68885385067728
20
788,02732175224492
10
496,79120453336122
20
943,80851085421284
42
0,29148228585438207
10
537,21000000000038
20
1007,251022928968
10
537,21000000000072
20
1796,1380000000051
42
-0,41421356237310575
10
607,21000000000322
20
1866,1380000000051
10
688,34000000000117
20
1866,1380000000042
10
827,13700000000108
20
1815,0078000000042
10
900,57100000000094
20
1815,0078000000042
10
1039,3680000000008
20
1866,1380000000042
10
1230,1215491162541
20
1866,138966931587
10
1323,1731491162541
20
1815,0087669315869
10
1429,9319491162541
20
1815,0087669315869
10
1522,9817894022119
20
1866,1380000000042
10
2078,0780000000009
20
1866,1380000000031
42
-0,41421356237309503
0
CIRCLE
5
101
100
AcDbEntity
8
0
100
AcDbCircle
10
618,66786657211537
20
-216,52846079735531
30
0
40
15
0
CIRCLE
5
102
100
AcDbEntity
8
0
100
AcDbCircle
10
2085,4392400000002
20
-212,60884220183664
30
0
40
15
0
LWPOLYLINE
5
103
100
AcDbEntity
8
0
100
AcDbPolyline
90
53
70
1
43
0.0
10
2049,1780000000008
20
1527,4299138201868
42
-0,41421356237309503
10
2059,1780000000008
20
1517,4299138201868
10
2059,1780000000008
20
770,34991382018643
42
-0,41421356237309503
10
2049,1780000000008
20
760,34991382018643
10
1980,0565872584491
20
760,34991382018643
42
0,41421356237309503
10
1964,8165872584486
20
745,10991382018585
10
1964,81658725845
20
580,00991382018628
42
-0,41421356237309503
10
1954,6565872584492
20
569,84991382018563
10
1588,896587258449
20
569,84991382018609
42
-0,41421356237309503
10
1578,7365872584487
20
580,00991382018628
10
1578,7365872584496
20
586,35991382018631
42
0,41421356237309503
10
1563,4965872584489
20
601,59991382018688
10
1396,5430174578491
20
601,59991382018654
42
-0,30638665695470735
10
1387,1244453763702
20
607,94991382017554
42
0,30561468458090035
10
1372,9965872584489
20
617,47491382018575
10
1218,0565872584489
20
617,47491382018563
42
0,30561468458090058
10
1203,9287291405276
20
607,94991382017554
42
-0,29667736869976241
10
1194,510157084449
20
601,59991382018586
10
1017,396587258449
20
601,59991382018643
42
-0,41421356237309503
10
1007,2365872584489
20
611,75991382018617
10
1007,2365872584488
20
764,15991382018649
42
0,41421356237309503
10
991,99658725844915
20
779,39991382018616
10
847,18559682004923
20
779,39991382018707
42
0,55546209268337599
10
833,37346615124943
20
757,71921151238598
10
979,37581562424839
20
444,61616266258591
42
-0,41419587217019499
10
974,46153005024928
20
431,11427401998634
10
470,3187604358493
20
196,02863974718622
42
-0,40287084872182594
10
456,81687177256424
20
200,94292532888431
10
221,73123749976401
20
705,08569494328458
42
-0,39796625493432475
10
226,64552306904909
20
718,58758357818658
10
558,13665924724944
20
873,16443899078592
42
-0,40375686198552962
10
571,63854791524898
20
868,25015341678659
10
641,41282292064932
20
718,61873779578627
42
0,41395775591882245
10
661,66565589724939
20
711,2473094093865
10
766,28439080464932
20
760,03182669918647
42
0,82256799548297643
10
761,99058928304908
20
779,39991382018616
10
636,39658725844913
20
779,39991382018547
42
-0,41421356237309503
10
626,23658725844848
20
789,55991382018613
10
626,23658725844837
20
1536,3199138201858
42
-0,41421356237309503
10
636,39658725844913
20
1546,4799138201865
10
991,99658725844915
20
1546,4799138201852
42
0,26794919243112286
10
1005,1948144121243
20
1554,0999138201855
42
-0,26794414816583439
10
1013,993632520049
20
1559,1799138201875
10
1182,4965872584489
20
1559,1799138201859
42
0,30453921021931268
10
1196,6244453792347
20
1568,7049138201789
42
-0,30561468458090335
10
1206,0430174578491
20
1575,0549138201859
10
1385,010157084449
20
1575,0549138201859
42
-0,30561468458090485
10
1394,4287291630633
20
1568,7049138201789
42
0,30529282329798946
10
1408,5565872584491
20
1559,1799138201852
10
1573,656587258449
20
1559,1799138201875
42
-0,41421356237309503
10
1583,8165872584489
20
1549,0199138201867
10
1583,8165872584489
20
1542,6699138201857
42
0,41421356237309503
10
1599,0565872584489
20
1527,4299138201857
0
LWPOLYLINE
5
104
100
AcDbEntity
8
0
100
AcDbPolyline
90
8
70
1
43
0.0
10
1190,0000000000009
20
1600
10
1592,1912
20
1600
10
1592,1912
20
1580
10
1920,0000000000009
20
1580
10
1920,0000000000009
20
1775,0000000000043
10
1310,0000000000009
20
1775,0000000000043
10
1310,0000000000009
20
1728,4700000000041
10
1190,0000000000009
20
1728,4700000000041
0
LWPOLYLINE
5
105
100
AcDbEntity
8
0
100
AcDbPolyline
90
4
70
1
43
0.0
10
927,70800000000099
20
1800,0000000000043
10
927,70800000000099
20
1665,0000000000041
10
800,00000000000102
20
1665,0000000000041
10
800,00000000000102
20
1800,0000000000043
0
CIRCLE
5
106
100
AcDbEntity
8
0
100
AcDbCircle
10
182,49265271135238
20
728,14285122443312
30
0
40
15
0
CIRCLE
5
107
100
AcDbEntity
8
0
100
AcDbCircle
10
1281,3796499999999
20
526,28702999999996
30
0
40
15
0
CIRCLE
5
108
100
AcDbEntity
8
0
100
AcDbCircle
10
2085,4392400000011
20
560,35176265848008
30
0
40
15
0
CIRCLE
5
109
100
AcDbEntity
8
0
100
AcDbCircle
10
2085,4392373415299
20
1803,4992373415332
30
0
40
15
0
CIRCLE
5
110
100
AcDbEntity
8
0
100
AcDbCircle
10
1134,7450000000008
20
1821,6880000000049
30
0
40
15
0
CIRCLE
5
111
100
AcDbEntity
8
0
100
AcDbCircle
10
599,9122626584716
20
1803,4992373415341
30
0
40
15
0
ENDSEC
0
SECTION
2
OBJECTS
0
DICTIONARY
5
C
100
AcDbDictionary
3
ACAD_GROUP
350
D
3
ACAD_MLINESTYLE
350
17
0
DICTIONARY
5
D
100
AcDbDictionary
0
DICTIONARY
5
1A
330
C
100
AcDbDictionary
0
DICTIONARY
5
17
100
AcDbDictionary
0
ENDSEC
0
EOF
