0
SECTION
2
HEADER
9
$INSUNITS
70
4
9
$ACADVER
1
AC1014
9
$HANDSEED
5
FFFF
0
ENDSEC
0
SECTION
2
TABLES
0
TABLE
2
VPORT
5
8
100
AcDbSymbolTable
0
ENDTAB
0
TABLE
2
LTYPE
5
5
100
AcDbSymbolTable
0
LTYPE
5
14
100
AcDbSymbolTableRecord
100
AcDbLinetypeTableRecord
2
BYBLOCK
70
0
0
LTYPE
5
15
100
AcDbSymbolTableRecord
100
AcDbLinetypeTableRecord
2
BYLAYER
70
0
0
ENDTAB
0
TABLE
2
LAYER
5
2
100
AcDbSymbolTable
70
2
0
LAYER
5
50
100
AcDbSymbolTableRecord
100
AcDbLayerTableRecord
2
0
70
0
6
CONTINUOUS
0
ENDTAB
0
TABLE
2
STYLE
5
3
100
AcDbSymbolTable
70
1
0
STYLE
5
11
100
AcDbSymbolTableRecord
100
AcDbTextStyleTableRecord
2
STANDARD
70
0
0
ENDTAB
0
TABLE
2
VIEW
5
6
100
AcDbSymbolTable
70
0
0
ENDTAB
0
TABLE
2
UCS
5
7
100
AcDbSymbolTable
70
0
0
ENDTAB
0
TABLE
2
APPID
5
9
100
AcDbSymbolTable
70
2
0
APPID
5
12
100
AcDbSymbolTableRecord
100
AcDbRegAppTableRecord
2
ACAD
70
0
0
ENDTAB
0
TABLE
2
DIMSTYLE
5
A
100
AcDbSymbolTable
70
1
0
ENDTAB
0
TABLE
2
BLOCK_RECORD
5
1
100
AcDbSymbolTable
70
1
0
BLOCK_RECORD
5
1F
100
AcDbSymbolTableRecord
100
AcDbBlockTableRecord
2
*MODEL_SPACE
0
BLOCK_RECORD
5
1B
100
AcDbSymbolTableRecord
100
AcDbBlockTableRecord
2
*PAPER_SPACE
0
ENDTAB
0
ENDSEC
0
SECTION
2
BLOCKS
0
BLOCK
5
20
100
AcDbEntity
100
AcDbBlockBegin
2
*MODEL_SPACE
0
ENDBLK
5
21
100
AcDbEntity
100
AcDbBlockEnd
0
BLOCK
5
1C
100
AcDbEntity
100
AcDbBlockBegin
2
*PAPER_SPACE
0
ENDBLK
5
1D
100
AcDbEntity
100
AcDbBlockEnd
0
ENDSEC
0
SECTION
2
ENTITIES
0
LWPOLYLINE
5
100
100
AcDbEntity
8
0
100
AcDbPolyline
90
20
70
1
43
0.0
10
625,8544391596007
20
-275,24784220183653
42
-0,29147430747406727
10
562,41279722800959
20
-234,83091285083717
10
128,82841645244713
20
695,00173902848906
42
-0,41422217770076214
10
162,6888538506779
20
788,02732175224435
10
496,79120453336282
20
943,80851085421125
42
0,29148228585437658
10
537,21000000000072
20
1007,251022928966
10
537,21000000000072
20
1796,1380000000051
42
-0,41421356237310575
10
607,21000000000322
20
1866,1380000000051
10
688,34000000000117
20
1866,1380000000042
10
827,13700000000063
20
1815,0078000000019
10
900,5710000000015
20
1815,0078000000051
10
1039,3680000000008
20
1866,1380000000042
10
1230,1215491162541
20
1866,138966931587
10
1323,1731491162541
20
1815,0087669315869
10
1429,9319491162541
20
1815,0087669315869
10
1522,9817894022119
20
1866,1380000000042
10
2078,0780000000009
20
1866,1380000000031
42
-0,41421356237309503
10
2148,0780000000009
20
1796,1380000000031
10
2148,078
20
-205,24784220183648
42
-0,41421356237309503
10
2078,078
20
-275,24784220183648
0
CIRCLE
5
101
100
AcDbEntity
8
0
100
AcDbCircle
10
2085,4392400000011
20
560,35176265848008
30
0
40
15
0
CIRCLE
5
102
100
AcDbEntity
8
0
100
AcDbCircle
10
1281,379200000001
20
526,28799999999251
30
0
40
15
0
CIRCLE
5
103
100
AcDbEntity
8
0
100
AcDbCircle
10
618,66786657211537
20
-216,52846079735531
30
0
40
15
0
CIRCLE
5
104
100
AcDbEntity
8
0
100
AcDbCircle
10
2085,4392400000002
20
-212,60884220183664
30
0
40
15
0
CIRCLE
5
105
100
AcDbEntity
8
0
100
AcDbCircle
10
2085,4392373415299
20
1803,4992373415332
30
0
40
15
0
LWPOLYLINE
5
106
100
AcDbEntity
8
0
100
AcDbPolyline
90
21
70
1
43
0.0
10
626,11000000000149
20
883,15800000000593
10
626,11000000000149
20
1745,4880000000048
10
658,11400000000106
20
1777,238000000003
10
778,76400000000149
20
1777,2380000000041
10
778,76400000000046
20
1795,0180000000021
10
950,46800000000133
20
1795,0180000000032
10
950,46800000000133
20
1777,238000000003
10
1319,0220000000011
20
1777,2380000000041
10
1319,0220000000011
20
1795,0180000000032
10
1434,0840000000007
20
1795,0180000000032
10
1434,0840000000007
20
1777,2380000000041
10
2027,4279999999999
20
1777,2380000000041
10
2059,1780000000008
20
1745,4880000000044
10
2059,1780000000008
20
665,98800000000381
10
1963,9280000000008
20
570,73800000000153
10
1271,5240000000008
20
570,7380000000046
10
489,83900000000011
20
206,2988
10
447,64960000000031
20
221,64040000000554
10
230,80980000000011
20
686,66360000000043
10
246,17680000000121
20
728,85300000000495
10
577,08800000000178
20
883,15800000000206
0
CIRCLE
5
107
100
AcDbEntity
8
0
100
AcDbCircle
10
1134,7450000000008
20
1821,6880000000049
30
0
40
15
0
CIRCLE
5
108
100
AcDbEntity
8
0
100
AcDbCircle
10
599,9122626584716
20
1803,4992373415341
30
0
40
15
0
CIRCLE
5
109
100
AcDbEntity
8
0
100
AcDbCircle
10
182,49265271135238
20
728,14285122443312
30
0
40
15
0
ENDSEC
0
SECTION
2
OBJECTS
0
DICTIONARY
5
C
100
AcDbDictionary
3
ACAD_GROUP
350
D
3
ACAD_MLINESTYLE
350
17
0
DICTIONARY
5
D
100
AcDbDictionary
0
DICTIONARY
5
1A
330
C
100
AcDbDictionary
0
DICTIONARY
5
17
100
AcDbDictionary
0
ENDSEC
0
EOF
