0
SECTION
2
HEADER
9
$INSUNITS
70
4
9
$ACADVER
1
AC1014
9
$HANDSEED
5
FFFF
0
ENDSEC
0
SECTION
2
TABLES
0
TABLE
2
VPORT
5
8
100
AcDbSymbolTable
0
ENDTAB
0
TABLE
2
LTYPE
5
5
100
AcDbSymbolTable
0
LTYPE
5
14
100
AcDbSymbolTableRecord
100
AcDbLinetypeTableRecord
2
BYBLOCK
70
0
0
LTYPE
5
15
100
AcDbSymbolTableRecord
100
AcDbLinetypeTableRecord
2
BYLAYER
70
0
0
ENDTAB
0
TABLE
2
LAYER
5
2
100
AcDbSymbolTable
70
2
0
LAYER
5
50
100
AcDbSymbolTableRecord
100
AcDbLayerTableRecord
2
0
70
0
6
CONTINUOUS
0
ENDTAB
0
TABLE
2
STYLE
5
3
100
AcDbSymbolTable
70
1
0
STYLE
5
11
100
AcDbSymbolTableRecord
100
AcDbTextStyleTableRecord
2
STANDARD
70
0
0
ENDTAB
0
TABLE
2
VIEW
5
6
100
AcDbSymbolTable
70
0
0
ENDTAB
0
TABLE
2
UCS
5
7
100
AcDbSymbolTable
70
0
0
ENDTAB
0
TABLE
2
APPID
5
9
100
AcDbSymbolTable
70
2
0
APPID
5
12
100
AcDbSymbolTableRecord
100
AcDbRegAppTableRecord
2
ACAD
70
0
0
ENDTAB
0
TABLE
2
DIMSTYLE
5
A
100
AcDbSymbolTable
70
1
0
ENDTAB
0
TABLE
2
BLOCK_RECORD
5
1
100
AcDbSymbolTable
70
1
0
BLOCK_RECORD
5
1F
100
AcDbSymbolTableRecord
100
AcDbBlockTableRecord
2
*MODEL_SPACE
0
BLOCK_RECORD
5
1B
100
AcDbSymbolTableRecord
100
AcDbBlockTableRecord
2
*PAPER_SPACE
0
ENDTAB
0
ENDSEC
0
SECTION
2
BLOCKS
0
BLOCK
5
20
100
AcDbEntity
100
AcDbBlockBegin
2
*MODEL_SPACE
0
ENDBLK
5
21
100
AcDbEntity
100
AcDbBlockEnd
0
BLOCK
5
1C
100
AcDbEntity
100
AcDbBlockBegin
2
*PAPER_SPACE
0
ENDBLK
5
1D
100
AcDbEntity
100
AcDbBlockEnd
0
ENDSEC
0
SECTION
2
ENTITIES
0
LWPOLYLINE
5
100
100
AcDbEntity
8
0
100
AcDbPolyline
90
12
70
1
43
0.0
10
2148,078
20
1796,1380000000031
10
2148,078
20
-205,24784220183648
42
-0,41421356237309503
10
2078,078
20
-275,24784220183648
10
625,8544391596007
20
-275,24784220183653
42
-0,29147430747406727
10
562,41279722800948
20
-234,83091285083717
10
128,82841645244719
20
695,00173902848883
42
-0,41422217770076125
10
162,68885385067728
20
788,02732175224492
10
496,79120453336122
20
943,80851085421284
42
0,29148228585438207
10
537,21000000000038
20
1007,251022928968
10
537,21000000000072
20
1796,1380000000051
42
-0,41421356237309476
10
607,2100000000006
20
1866,1380000000042
10
2078,0780000000009
20
1866,1380000000031
42
-0,41421356237309503
0
CIRCLE
5
101
100
AcDbEntity
8
0
100
AcDbCircle
10
618,66786657211537
20
-216,52846079735531
30
0
40
15
0
CIRCLE
5
102
100
AcDbEntity
8
0
100
AcDbCircle
10
2085,4392400000002
20
-212,60884220183664
30
0
40
15
0
CIRCLE
5
103
100
AcDbEntity
8
0
100
AcDbCircle
10
1872,0779999999993
20
1686,138000000004
30
0
40
15
0
ARC
5
104
100
AcDbEntity
8
0
100
AcDbCircle
10
2049,1780000000008
20
1517,4299138201868
30
0
40
10
100
AcDbArc
50
0
51
90
0
ARC
5
105
100
AcDbEntity
8
0
100
AcDbCircle
10
2049,1780000000008
20
770,34991382018643
30
0
40
10
100
AcDbArc
50
-90
51
0
0
LINE
5
106
100
AcDbEntity
8
0
100
AcDbLine
10
636,39658725844913
20
779,39991382018616
30
0
11
761,99058928304908
21
779,39991382018616
31
0
0
CIRCLE
5
107
100
AcDbEntity
8
0
100
AcDbCircle
10
1134,7454508837482
20
1821,6870330684219
30
0
40
15
0
ARC
5
108
100
AcDbEntity
8
0
100
AcDbCircle
10
636,39658725844913
20
789,55991382018613
30
0
40
10,160000000000693
100
AcDbArc
50
180
51
270
0
ARC
5
109
100
AcDbEntity
8
0
100
AcDbCircle
10
636,39658725844913
20
1536,3199138201858
30
0
40
10,160000000000764
100
AcDbArc
50
90
51
180
0
LINE
5
110
100
AcDbEntity
8
0
100
AcDbLine
10
626,23658725844848
20
1536,3199138201858
30
0
11
626,23658725844848
21
789,55991382018613
31
0
0
LINE
5
111
100
AcDbEntity
8
0
100
AcDbLine
10
991,99658725844915
20
1546,4799138201856
30
0
11
636,39658725844913
21
1546,4799138201865
31
0
0
ARC
5
112
100
AcDbEntity
8
0
100
AcDbCircle
10
1013,993632520049
20
1549,0199138201867
30
0
40
10,160000000000764
100
AcDbArc
50
90
51
149,99999999999977
0
ARC
5
113
100
AcDbEntity
8
0
100
AcDbCircle
10
991,92455839358445
20
1561,8446714832753
30
0
40
15,364926495198297
100
AcDbArc
50
270,26859647373317
51
329,73140350569429
0
LINE
5
114
100
AcDbEntity
8
0
100
AcDbLine
10
1182,4965872584489
20
1559,1799138201859
30
0
11
1013,993632520049
21
1559,1799138201875
31
0
0
ARC
5
115
100
AcDbEntity
8
0
100
AcDbCircle
10
1206,1467931993659
20
1564,7409895164333
30
0
40
10,314446371379635
100
AcDbArc
50
90,576474210103598
51
157,39921293659975
0
ARC
5
116
100
AcDbEntity
8
0
100
AcDbCircle
10
1182,4965872584489
20
1574,4199138201859
30
0
40
15,240000000000009
100
AcDbArc
50
270
51
337,9756871629998
0
LINE
5
117
100
AcDbEntity
8
0
100
AcDbLine
10
1385,010157084449
20
1575,0549138201859
30
0
11
1206,0430174578491
21
1575,0549138201859
31
0
0
ARC
5
118
100
AcDbEntity
8
0
100
AcDbCircle
10
1408,5373847218602
20
1574,3914318222553
30
0
40
15,211530122400966
100
AcDbArc
50
201,95198442077813
51
270,07232833159117
0
ARC
5
119
100
AcDbEntity
8
0
100
AcDbCircle
10
1385,010157084449
20
1564,894913820186
30
0
40
10,159999999999956
100
AcDbArc
50
22,024312836999162
51
90
0
LINE
5
120
100
AcDbEntity
8
0
100
AcDbLine
10
1573,656587258449
20
1559,1799138201859
30
0
11
1408,5565872584491
21
1559,1799138201852
31
0
0
ARC
5
121
100
AcDbEntity
8
0
100
AcDbCircle
10
1573,656587258449
20
1549,0199138201867
30
0
40
10,160000000000764
100
AcDbArc
50
0
51
90
0
LINE
5
122
100
AcDbEntity
8
0
100
AcDbLine
10
1583,8165872584489
20
1542,6699138201857
30
0
11
1583,8165872584498
21
1549,0199138201867
31
0
0
LINE
5
123
100
AcDbEntity
8
0
100
AcDbLine
10
2049,1780000000008
20
1527,4299138201868
30
0
11
1599,0565872584489
21
1527,4299138201868
31
0
0
ARC
5
124
100
AcDbEntity
8
0
100
AcDbCircle
10
1599,0565872584489
20
1542,6699138201857
30
0
40
15,240000000000009
100
AcDbArc
50
180
51
270
0
LINE
5
125
100
AcDbEntity
8
0
100
AcDbLine
10
1980,0565872584491
20
760,34991382018643
30
0
11
2049,1780000000008
21
760,34991382018643
31
0
0
ARC
5
126
100
AcDbEntity
8
0
100
AcDbCircle
10
1980,0565872584491
20
745,10991382018585
30
0
40
15,240000000000578
100
AcDbArc
50
90
51
180
0
LINE
5
127
100
AcDbEntity
8
0
100
AcDbLine
10
1964,81658725845
20
580,00991382018628
30
0
11
1964,8165872584486
21
745,10991382018585
31
0
0
LINE
5
128
100
AcDbEntity
8
0
100
AcDbLine
10
1588,896587258449
20
569,84991382018609
30
0
11
1954,6565872584492
21
569,84991382018609
31
0
0
ARC
5
129
100
AcDbEntity
8
0
100
AcDbCircle
10
1954,6565872584492
20
580,00991382018628
30
0
40
10,160000000000693
100
AcDbArc
50
-90
51
0
0
ARC
5
130
100
AcDbEntity
8
0
100
AcDbCircle
10
1588,896587258449
20
580,00991382018628
30
0
40
10,160000000000196
100
AcDbArc
50
180
51
270
0
LINE
5
131
100
AcDbEntity
8
0
100
AcDbLine
10
1578,7365872584492
20
586,35991382018631
30
0
11
1578,7365872584487
21
580,00991382018628
31
0
0
ARC
5
132
100
AcDbEntity
8
0
100
AcDbCircle
10
1563,4965872584489
20
586,35991382018631
30
0
40
15,240000000000578
100
AcDbArc
50
0
51
90
0
ARC
5
133
100
AcDbEntity
8
0
100
AcDbCircle
10
1396,5430174578491
20
611,75991382018617
30
0
40
10,159999999999719
100
AcDbArc
50
202,02431283700025
51
270
0
LINE
5
134
100
AcDbEntity
8
0
100
AcDbLine
10
1396,5430174578491
20
601,59991382018632
30
0
11
1563,4965872584489
21
601,59991382018688
31
0
0
ARC
5
135
100
AcDbEntity
8
0
100
AcDbCircle
10
1373,0559100789987
20
602,32290377834613
30
0
40
15,152126171103827
100
AcDbArc
50
21,799990802805777
51
90,224322045064199
0
LINE
5
136
100
AcDbEntity
8
0
100
AcDbLine
10
1218,0565872584489
20
617,47491382018654
30
0
11
1372,9965872584489
21
617,47491382018575
31
0
0
ARC
5
137
100
AcDbEntity
8
0
100
AcDbCircle
10
1218,1224393795862
20
602,13723937352813
30
0
40
15,33781581365276
100
AcDbArc
50
90,245997230046754
51
157,72969001758463
0
LINE
5
138
100
AcDbEntity
8
0
100
AcDbLine
10
1017,396587258449
20
601,59991382018654
30
0
11
1194,510157084449
21
601,59991382018654
31
0
0
ARC
5
139
100
AcDbEntity
8
0
100
AcDbCircle
10
1194,510157084449
20
611,75991382018617
30
0
40
10,160000000000267
100
AcDbArc
50
270
51
337,97568716299952
0
CIRCLE
5
140
100
AcDbEntity
8
0
100
AcDbCircle
10
182,49265271135238
20
728,14285122443312
30
0
40
15
0
CIRCLE
5
141
100
AcDbEntity
8
0
100
AcDbCircle
10
1281,379200000001
20
526,28799999999251
30
0
40
15
0
CIRCLE
5
142
100
AcDbEntity
8
0
100
AcDbCircle
10
2085,4392400000011
20
560,35176265848008
30
0
40
15
0
LINE
5
143
100
AcDbEntity
8
0
100
AcDbLine
10
2059,1780000000008
20
770,34991382018643
30
0
11
2059,1780000000008
21
1517,4299138201868
31
0
0
CIRCLE
5
144
100
AcDbEntity
8
0
100
AcDbCircle
10
2085,4392373415299
20
1803,4992373415332
30
0
40
15
0
ARC
5
145
100
AcDbEntity
8
0
100
AcDbCircle
10
761,99058928304908
20
769,23991382018653
30
0
40
10,159999996792548
100
AcDbArc
50
-65,000000101608933
51
90
0
LINE
5
146
100
AcDbEntity
8
0
100
AcDbLine
10
766,28439080464932
20
760,03182669918647
30
0
11
661,66565589724939
21
711,2473094093865
31
0
0
ARC
5
147
100
AcDbEntity
8
0
100
AcDbCircle
10
655,13372354715227
20
724,8087875756006
30
0
40
15,052568893014577
100
AcDbArc
50
204,28204923538655
51
295,71795064794048
0
ARC
5
148
100
AcDbEntity
8
0
100
AcDbCircle
10
562,31695042855608
20
863,64448470269167
30
0
40
10,397324848628759
100
AcDbArc
50
26,293322256379216
51
113,70667780004311
0
LINE
5
149
100
AcDbEntity
8
0
100
AcDbLine
10
641,41282292064932
20
718,61873779578627
30
0
11
571,63854791524898
21
868,25015341678659
31
0
0
LINE
5
150
100
AcDbEntity
8
0
100
AcDbLine
10
558,13665924724944
20
873,16443899078592
30
0
11
226,64552306904909
21
718,58758357818658
31
0
0
ARC
5
151
100
AcDbEntity
8
0
100
AcDbCircle
10
231,6301524064389
20
709,12805571823196
30
0
40
10,692483199164929
100
AcDbArc
50
117,78666193163457
51
202,21333806983679
0
LINE
5
152
100
AcDbEntity
8
0
100
AcDbLine
10
221,73123749976401
20
705,08569494328458
30
0
11
456,81687177256424
21
200,94292532888431
31
0
0
LINE
5
153
100
AcDbEntity
8
0
100
AcDbLine
10
470,3187604358493
20
196,02863974718628
30
0
11
974,46153005024928
21
431,11427401998634
31
0
0
ARC
5
154
100
AcDbEntity
8
0
100
AcDbCircle
10
465,96328271355173
20
205,06727295374247
30
0
40
10,033298382490672
100
AcDbArc
50
204,27181555868196
51
295,72818442718432
0
ARC
5
155
100
AcDbEntity
8
0
100
AcDbCircle
10
970,16772850324912
20
440,32236114098646
30
0
40
10,160000007527017
100
AcDbArc
50
-64,999999971790501
51
25,000000000399915
0
LINE
5
156
100
AcDbEntity
8
0
100
AcDbLine
10
979,37581561660465
20
444,61616267898074
30
0
11
833,37346615124943
21
757,71921151238598
31
0
0
ARC
5
157
100
AcDbEntity
8
0
100
AcDbCircle
10
847,0267870676231
20
764,26108679447475
30
0
40
15,139659978080772
100
AcDbArc
50
89,39897623539477
51
205,60102378310378
0
ARC
5
158
100
AcDbEntity
8
0
100
AcDbCircle
10
991,99658725844915
20
764,15991382018649
30
0
40
15,239999999999725
100
AcDbArc
50
0
51
90
0
LINE
5
159
100
AcDbEntity
8
0
100
AcDbLine
10
847,18559682004923
20
779,39991382018707
30
0
11
991,99658725844915
21
779,39991382018616
31
0
0
LINE
5
160
100
AcDbEntity
8
0
100
AcDbLine
10
1007,2365872584488
20
764,15991382018649
30
0
11
1007,2365872584489
21
611,75991382018617
31
0
0
ARC
5
161
100
AcDbEntity
8
0
100
AcDbCircle
10
1017,396587258449
20
611,75991382018617
30
0
40
10,159999999999769
100
AcDbArc
50
180
51
270
0
CIRCLE
5
162
100
AcDbEntity
8
0
100
AcDbCircle
10
599,9122626584716
20
1803,4992373415341
30
0
40
15
0
ENDSEC
0
SECTION
2
OBJECTS
0
DICTIONARY
5
C
100
AcDbDictionary
3
ACAD_GROUP
350
D
3
ACAD_MLINESTYLE
350
17
0
DICTIONARY
5
D
100
AcDbDictionary
0
DICTIONARY
5
1A
330
C
100
AcDbDictionary
0
DICTIONARY
5
17
100
AcDbDictionary
0
ENDSEC
0
EOF
