0
SECTION
2
HEADER
9
$INSUNITS
70
4
9
$ACADVER
1
AC1014
9
$HANDSEED
5
FFFF
0
ENDSEC
0
SECTION
2
TABLES
0
TABLE
2
VPORT
5
8
100
AcDbSymbolTable
0
ENDTAB
0
TABLE
2
LTYPE
5
5
100
AcDbSymbolTable
0
LTYPE
5
14
100
AcDbSymbolTableRecord
100
AcDbLinetypeTableRecord
2
BYBLOCK
70
0
0
LTYPE
5
15
100
AcDbSymbolTableRecord
100
AcDbLinetypeTableRecord
2
BYLAYER
70
0
0
ENDTAB
0
TABLE
2
LAYER
5
2
100
AcDbSymbolTable
70
2
0
LAYER
5
50
100
AcDbSymbolTableRecord
100
AcDbLayerTableRecord
2
0
70
0
6
CONTINUOUS
0
ENDTAB
0
TABLE
2
STYLE
5
3
100
AcDbSymbolTable
70
1
0
STYLE
5
11
100
AcDbSymbolTableRecord
100
AcDbTextStyleTableRecord
2
STANDARD
70
0
0
ENDTAB
0
TABLE
2
VIEW
5
6
100
AcDbSymbolTable
70
0
0
ENDTAB
0
TABLE
2
UCS
5
7
100
AcDbSymbolTable
70
0
0
ENDTAB
0
TABLE
2
APPID
5
9
100
AcDbSymbolTable
70
2
0
APPID
5
12
100
AcDbSymbolTableRecord
100
AcDbRegAppTableRecord
2
ACAD
70
0
0
ENDTAB
0
TABLE
2
DIMSTYLE
5
A
100
AcDbSymbolTable
70
1
0
ENDTAB
0
TABLE
2
BLOCK_RECORD
5
1
100
AcDbSymbolTable
70
1
0
BLOCK_RECORD
5
1F
100
AcDbSymbolTableRecord
100
AcDbBlockTableRecord
2
*MODEL_SPACE
0
BLOCK_RECORD
5
1B
100
AcDbSymbolTableRecord
100
AcDbBlockTableRecord
2
*PAPER_SPACE
0
ENDTAB
0
ENDSEC
0
SECTION
2
BLOCKS
0
BLOCK
5
20
100
AcDbEntity
100
AcDbBlockBegin
2
*MODEL_SPACE
0
ENDBLK
5
21
100
AcDbEntity
100
AcDbBlockEnd
0
BLOCK
5
1C
100
AcDbEntity
100
AcDbBlockBegin
2
*PAPER_SPACE
0
ENDBLK
5
1D
100
AcDbEntity
100
AcDbBlockEnd
0
ENDSEC
0
SECTION
2
ENTITIES
0
LWPOLYLINE
5
100
100
AcDbEntity
8
0
100
AcDbPolyline
90
20
70
1
43
0.0
10
155.43284551931851
20
148.95089691334351
10
169.4028455193185
20
148.95089691334351
10
169.4028455193185
20
147.97045691334341
10
170.21564551931851
20
147.97045691334341
10
170.21564551931851
20
144.4703369133434
10
169.4028455193185
20
144.4703369133434
10
169.4028455193185
20
139.46145691334351
10
170.21564551931851
20
139.46145691334351
10
170.21564551931851
20
135.96133691334342
10
169.4028455193185
20
135.96133691334353
10
169.4028455193185
20
134.9808969133434
10
155.43284551931851
20
134.9808969133434
10
155.43284551931851
20
135.96133691334342
10
154.6200455193185
20
135.96133691334342
10
154.6200455193185
20
139.46145691334351
10
155.43284551931851
20
139.46145691334351
10
155.43284551931851
20
144.47033691334352
10
154.6200455193185
20
144.4703369133434
10
154.6200455193185
20
147.97045691334341
10
155.43284551931851
20
147.9704569133435
0
CIRCLE
5
101
100
AcDbEntity
8
0
100
AcDbCircle
10
26.26387669679033
20
177.43412395433671
30
0
40
1.5000000000000002
0
LWPOLYLINE
5
102
100
AcDbEntity
8
0
100
AcDbPolyline
90
12
70
1
43
0.0
10
74.999999999999901
20
160.23326690072903
10
75.000000000000028
20
170.43532690072902
10
52.80784551931859
20
170.43532690072902
10
52.80784551931859
20
172.435326900729
10
40.807845519318562
20
172.435326900729
10
40.807845519318562
20
170.43532690072902
10
38.307845519318562
20
170.43532690072902
10
38.307845519318562
20
160.23326690072903
10
40.807845519318562
20
160.23326690072903
10
40.807845519318562
20
158.23326690072901
10
52.80784551931859
20
158.23326690072901
10
52.80784551931859
20
160.23326690072903
0
LWPOLYLINE
5
103
100
AcDbEntity
8
0
100
AcDbPolyline
90
34
70
1
43
0.0
10
20.000000430943242
20
176.69800022018387
42
-0.41421356237309481
10
27.000000430943238
20
183.69800022018384
10
130.8710455193185
20
183.69809691334339
10
144.75074551931851
20
178.58507691334339
10
145.5370455193185
20
178.58507691334339
10
145.5370455193185
20
177.08429691334342
10
142.26624551931852
20
177.08429691334342
10
142.26624551931852
20
173.54148333551703
10
139.26990351931852
20
173.54148333551703
10
139.27069356069919
20
165.58237042637191
10
142.26624551931852
20
165.58429691334351
10
142.2662906076938
20
163.5842002201839
10
155.03709060769381
20
163.58420022018404
10
155.0370455193185
20
166.62711049116967
10
158.03259747793783
20
166.62518400419853
10
158.0333875193185
20
174.58429691334342
10
155.0370455193185
20
174.58429691334342
10
155.0370455193185
20
177.08429691334342
10
151.5370455193185
20
177.08429691334342
10
151.5370455193185
20
178.58507691334339
10
152.09414551931852
20
178.58507691334339
10
165.9738455193185
20
183.69809691334339
10
174.08680043094293
20
183.6980002201841
42
-0.41421356237310542
10
181.08680043094319
20
176.6980002201841
10
181.08680043094321
20
97.809302513080141
42
0.29148228585438057
10
185.12867997760708
20
91.465051305604632
10
218.53891504587551
20
75.886932395407911
42
-0.41422217770075709
10
221.92495878569844
20
66.584374123032376
10
195.96057237986173
20
10.90309191684554
42
-0.41419101926410168
10
186.65858942566857
20
7.5170071135776872
10
107.09061119758822
20
44.612392088359144
42
0.10851419896682953
10
104.13279243655401
20
45.268096913343598
10
27.000000430943775
20
45.26800022018535
42
-0.41421356237311774
10
20.000000430943231
20
52.268000220185357
0
CIRCLE
5
104
100
AcDbEntity
8
0
100
AcDbCircle
10
26.263876430943217
20
53.119376486031513
30
0
40
1.5000000000000002
0
CIRCLE
5
105
100
AcDbEntity
8
0
100
AcDbCircle
10
106.66988043094321
20
49.713000220182771
30
0
40
1.5000000000000002
0
CIRCLE
5
106
100
AcDbEntity
8
0
100
AcDbCircle
10
189.9720971458492
20
12.88240541745413
30
0
40
1.5000000000000002
0
CIRCLE
5
107
100
AcDbEntity
8
0
100
AcDbCircle
10
216.558535159808
20
69.898485342626799
30
0
40
1.5000000000000002
0
CIRCLE
5
108
100
AcDbEntity
8
0
100
AcDbCircle
10
174.81657416509609
20
177.43412395433691
30
0
40
1.5000000000000002
0
CIRCLE
5
109
100
AcDbEntity
8
0
100
AcDbCircle
10
121.33334551931851
20
179.25309691334351
30
0
40
1.5000000000000002
0
CIRCLE
5
110
100
AcDbEntity
8
0
100
AcDbCircle
10
167.39624551931851
20
169.93129691334354
30
0
40
1.524
0
CIRCLE
5
111
100
AcDbEntity
8
0
100
AcDbCircle
10
116.59624551931861
20
169.93129691334354
30
0
40
1.524
0
CIRCLE
5
112
100
AcDbEntity
8
0
100
AcDbCircle
10
33.665245519318553
20
169.93129691334343
30
0
40
1.524
0
CIRCLE
5
113
100
AcDbEntity
8
0
100
AcDbCircle
10
95.768245519318555
20
115.47369691334352
30
0
40
1.524
0
CIRCLE
5
114
100
AcDbEntity
8
0
100
AcDbCircle
10
33.030245519318555
20
67.010496913343445
30
0
40
1.524
0
CIRCLE
5
115
100
AcDbEntity
8
0
100
AcDbCircle
10
129.37244551931852
20
49.306696913343103
30
0
40
1.524
0
CIRCLE
5
116
100
AcDbEntity
8
0
100
AcDbCircle
10
175.1432455193185
20
85.400096913343461
30
0
40
1.524
0
CIRCLE
5
117
100
AcDbEntity
8
0
100
AcDbCircle
10
180.90904551931854
20
41.229496913344541
30
0
40
1.524
0
LWPOLYLINE
5
118
100
AcDbEntity
8
0
100
AcDbPolyline
90
4
70
1
43
0.0
10
180.75664551931851
20
52.641716913343366
10
168.09474551931854
20
58.54721691334332
10
169.4917455193185
20
61.539336913343483
10
182.15110551931849
20
55.633836913343373
0
LWPOLYLINE
5
119
100
AcDbEntity
8
0
100
AcDbPolyline
90
4
70
1
43
0.0
10
170.66522551931851
20
31.003456913343435
10
158.00586551931849
20
36.906416913343072
10
159.4003255193185
20
39.898536913340465
10
172.06222551931853
20
33.995576913343875
0
LWPOLYLINE
5
120
100
AcDbEntity
8
0
100
AcDbPolyline
90
4
70
1
43
0.0
10
143.5177055193185
20
47.307716913342958
10
156.1796055193185
20
41.40221691334321
10
154.78260551931851
20
38.410096913343722
10
142.12324551931852
20
44.31559691334386
0
LWPOLYLINE
5
121
100
AcDbEntity
8
0
100
AcDbPolyline
90
4
70
1
43
0.0
10
153.6091255193185
20
68.945976913343372
10
166.26848551931855
20
63.043016913343422
10
164.87402551931851
20
60.05089691334345
10
152.2121255193185
20
65.953856913343458
0
LWPOLYLINE
5
122
100
AcDbEntity
8
0
100
AcDbPolyline
90
20
70
1
43
0.0
10
50.340345519318596
20
89.89843691334363
10
50.340345519318532
20
88.91799691334343
10
51.153145519318514
20
88.9179969133437
10
51.153145519318514
20
85.417876913343378
10
50.340345519318532
20
85.417876913343406
10
50.340345519318532
20
80.408996913343344
10
51.153145519318514
20
80.408996913343685
10
51.153145519318571
20
76.908876913343391
10
50.340345519318532
20
76.908876913343661
10
50.340345519318532
20
75.928436913343404
10
36.370345519318562
20
75.928436913343589
10
36.370345519318562
20
76.908876913343505
10
35.557545519318523
20
76.908876913343562
10
35.557545519318523
20
80.408996913343685
10
36.370345519318562
20
80.408996913343344
10
36.370345519318562
20
85.41787691334352
10
35.557545519318523
20
85.41787691334369
10
35.557545519318573
20
88.9179969133437
10
36.370345519318562
20
88.917996913343543
10
36.370345519318562
20
89.898436913343431
0
LWPOLYLINE
5
123
100
AcDbEntity
8
0
100
AcDbPolyline
90
20
70
1
43
0.0
10
50.340345519318596
20
108.94843691334351
10
50.340345519318596
20
107.9679969133436
10
51.153145519318514
20
107.9679969133436
10
51.153145519318514
20
104.4678769133435
10
50.340345519318532
20
104.46787691334362
10
50.340345519318596
20
99.458996913343725
10
51.153145519318514
20
99.458996913343327
10
51.153145519318514
20
95.958876913343616
10
50.340345519318532
20
95.958876913343715
10
50.340345519318532
20
94.978436913343529
10
36.370345519318562
20
94.978436913343444
10
36.370345519318562
20
95.958876913343531
10
35.557545519318523
20
95.958876913343531
10
35.557545519318523
20
99.458996913343611
10
36.370345519318562
20
99.458996913343611
10
36.370345519318562
20
104.46787691334343
10
35.557545519318523
20
104.46787691334343
10
35.557545519318523
20
107.96799691334343
10
36.370345519318562
20
107.96799691334351
10
36.370345519318562
20
108.94843691334351
0
LWPOLYLINE
5
124
100
AcDbEntity
8
0
100
AcDbPolyline
90
20
70
1
43
0.0
10
50.340345519318532
20
127.99843691334343
10
50.340345519318596
20
127.01799691334342
10
51.153145519318514
20
127.01799691334351
10
51.153145519318571
20
123.5178769133436
10
50.340345519318596
20
123.51787691334343
10
50.340345519318532
20
118.50899691334351
10
51.153145519318514
20
118.50899691334341
10
51.153145519318514
20
115.00887691334341
10
50.340345519318532
20
115.0088769133435
10
50.340345519318532
20
114.02843691334353
10
36.370345519318562
20
114.02843691334353
10
36.370345519318562
20
115.00887691334341
10
35.557545519318523
20
115.00887691334341
10
35.557545519318523
20
118.50899691334361
10
36.370345519318562
20
118.50899691334361
10
36.370345519318562
20
123.51787691334351
10
35.557545519318523
20
123.51787691334351
10
35.557545519318523
20
127.01799691334351
10
36.370345519318562
20
127.01799691334351
10
36.370345519318562
20
127.99843691334343
0
LWPOLYLINE
5
125
100
AcDbEntity
8
0
100
AcDbPolyline
90
20
70
1
43
0.0
10
50.340345519318532
20
147.04589691334351
10
50.340345519318596
20
146.0654569133435
10
51.153145519318571
20
146.06545691334361
10
51.153145519318514
20
142.56533691334351
10
50.340345519318532
20
142.56533691334351
10
50.340345519318596
20
137.55645691334351
10
51.153145519318514
20
137.5564569133434
10
51.153145519318514
20
134.0563369133435
10
50.340345519318596
20
134.0563369133435
10
50.340345519318468
20
133.0758969133434
10
36.370345519318562
20
133.07589691334351
10
36.370345519318562
20
134.05633691334342
10
35.557545519318573
20
134.05633691334361
10
35.557545519318523
20
137.55645691334351
10
36.370345519318619
20
137.55645691334351
10
36.370345519318562
20
142.5653369133434
10
35.557545519318523
20
142.56533691334351
10
35.557545519318474
20
146.06545691334341
10
36.370345519318562
20
146.0654569133435
10
36.370345519318619
20
147.0458969133436
0
LWPOLYLINE
5
126
100
AcDbEntity
8
0
100
AcDbPolyline
90
20
70
1
43
0.0
10
150.35284551931849
20
148.9508969133434
10
150.35284551931849
20
147.9704569133435
10
151.1656455193185
20
147.97045691334341
10
151.1656455193185
20
144.47033691334352
10
150.35284551931849
20
144.4703369133434
10
150.35284551931849
20
139.46145691334351
10
151.1656455193185
20
139.46145691334351
10
151.1656455193185
20
135.96133691334342
10
150.35284551931849
20
135.96133691334353
10
150.35284551931849
20
134.9808969133434
10
136.38284551931861
20
134.98089691334351
10
136.38284551931861
20
135.96133691334342
10
135.57004551931851
20
135.96133691334342
10
135.57004551931851
20
139.46145691334351
10
136.38284551931861
20
139.46145691334351
10
136.38284551931861
20
144.4703369133434
10
135.57004551931851
20
144.4703369133434
10
135.57004551931851
20
147.97045691334341
10
136.38284551931861
20
147.9704569133435
10
136.38284551931861
20
148.95089691334351
0
LWPOLYLINE
5
127
100
AcDbEntity
8
0
100
AcDbPolyline
90
20
70
1
43
0.0
10
93.202845519318544
20
131.17343691334349
10
93.202845519318544
20
130.19299691334351
10
94.015645519318582
20
130.19299691334362
10
94.015645519318539
20
126.69287691334341
10
93.202845519318544
20
126.69287691334353
10
93.202845519318544
20
121.68399691334351
10
94.015645519318582
20
121.68399691334361
10
94.015645519318582
20
118.18387691334351
10
93.202845519318544
20
118.18387691334351
10
93.202845519318544
20
117.20343691334351
10
79.232845519318559
20
117.20343691334361
10
79.232845519318559
20
118.18387691334351
10
78.420045519318535
20
118.18387691334351
10
78.420045519318535
20
121.68399691334351
10
79.232845519318559
20
121.68399691334351
10
79.232845519318516
20
126.69287691334341
10
78.420045519318535
20
126.69287691334353
10
78.420045519318592
20
130.19299691334351
10
79.232845519318516
20
130.19299691334351
10
79.232845519318516
20
131.17343691334341
0
LWPOLYLINE
5
128
100
AcDbEntity
8
0
100
AcDbPolyline
90
20
70
1
43
0.0
10
174.1475655193185
20
36.665116913343439
10
173.25856551931849
20
37.081676913343827
10
172.91566551931851
20
36.345076913342893
10
169.74320551931851
20
37.823356913343588
10
170.08610551931849
20
38.559956913343292
10
165.54712551931854
20
40.675776913343796
10
165.20422551931853
20
39.939176913339871
10
162.0317655193185
20
41.419996913342906
10
162.37466551931851
20
42.156596913343265
10
161.4856655193185
20
42.570616913343578
10
167.39116551931852
20
55.232516913343581
10
168.2801655193185
20
54.815956913343513
10
168.62306551931852
20
55.552556913343608
10
171.79552551931852
20
54.074276913343624
10
171.4526255193185
20
53.337676913343621
10
175.99160551931851
20
51.221856913343792
10
176.3345055193185
20
51.958456913343625
10
179.50696551931853
20
50.477636913343609
10
179.16406551931854
20
49.741036913343322
10
180.05306551931849
20
49.327016913343527
0
LWPOLYLINE
5
129
100
AcDbEntity
8
0
100
AcDbPolyline
90
20
70
1
43
0.0
10
156.88318551931852
20
44.716916913343013
10
155.99418551931851
20
45.133476913343884
10
155.65128551931849
20
44.396876913343839
10
152.47882551931849
20
45.875156913343872
10
152.82172551931851
20
46.61175691334315
10
148.2827455193185
20
48.72757691334364
10
147.93984551931851
20
47.990976913343516
10
144.76738551931851
20
49.471796913343724
10
145.1102855193185
20
50.208396913343314
10
144.22128551931851
20
50.622416913343599
10
150.1267855193185
20
63.284316913343574
10
151.01578551931851
20
62.867756913343591
10
151.3586855193185
20
63.604356913343452
10
154.5311455193185
20
62.126076913343553
10
154.18824551931851
20
61.389476913343579
10
158.72722551931849
20
59.273656913343473
10
159.07012551931851
20
60.010256913343483
10
162.24258551931851
20
58.529436913343361
10
161.89968551931852
20
57.792836913343649
10
162.78868551931851
20
57.378816913343542
0
LWPOLYLINE
5
130
100
AcDbEntity
8
0
100
AcDbPolyline
90
20
70
1
43
0.0
10
131.30284551931851
20
74.023436913343488
10
131.30284551931851
20
73.042996913343472
10
132.11564551931849
20
73.042996913343643
10
132.11564551931849
20
69.542876913343605
10
131.30284551931851
20
69.542876913343576
10
131.30284551931851
20
64.5339969133436
10
132.11564551931849
20
64.533996913343458
10
132.11564551931849
20
61.033876913343562
10
131.30284551931851
20
61.033876913343619
10
131.30284551931851
20
60.053436913343496
10
117.33284551931852
20
60.053436913343752
10
117.33284551931852
20
61.033876913343683
10
116.52004551931851
20
61.03387691334342
10
116.52004551931851
20
64.533996913343515
10
117.33284551931852
20
64.5339969133436
10
117.33284551931852
20
69.542876913343491
10
116.52004551931851
20
69.54287691334352
10
116.52004551931851
20
73.042996913343416
10
117.33284551931852
20
73.042996913343472
10
117.33284551931852
20
74.023436913343446
0
LWPOLYLINE
5
131
100
AcDbEntity
8
0
100
AcDbPolyline
90
20
70
1
43
0.0
10
112.2528455193185
20
75.621096913343493
10
112.2528455193185
20
74.640656913343548
10
113.06564551931851
20
74.64065691334352
10
113.06564551931851
20
71.140536913343567
10
112.2528455193185
20
71.140536913343425
10
112.2528455193185
20
66.131656913343477
10
113.06564551931851
20
66.131656913343562
10
113.06564551931851
20
62.631536913343496
10
112.2528455193185
20
62.631536913343552
10
112.2528455193185
20
61.651096913343451
10
98.282845519318528
20
61.651096913343366
10
98.282845519318528
20
62.631536913343588
10
97.470045519318575
20
62.631536913343496
10
97.470045519318575
20
66.131656913343477
10
98.282845519318528
20
66.131656913343321
10
98.282845519318528
20
71.140536913343411
10
97.470045519318575
20
71.140536913343539
10
97.470045519318575
20
74.640656913343491
10
98.282845519318528
20
74.640656913343406
10
98.282845519318528
20
75.621096913343422
0
LWPOLYLINE
5
132
100
AcDbEntity
8
0
100
AcDbPolyline
90
20
70
1
43
0.0
10
74.152845519318532
20
70.848436913343591
10
74.152845519318532
20
69.867996913343575
10
74.965645519318514
20
69.867996913343575
10
74.965645519318514
20
66.367876913343338
10
74.152845519318532
20
66.367876913343736
10
74.152845519318532
20
61.358996913343532
10
74.965645519318514
20
61.358996913343624
10
74.965645519318514
20
57.858876913343522
10
74.152845519318532
20
57.858876913343551
10
74.152845519318532
20
56.878436913343322
10
60.182845519318562
20
56.878436913343222
10
60.182845519318562
20
57.858876913343465
10
59.370045519318531
20
57.858876913343721
10
59.370045519318531
20
61.358996913343589
10
60.182845519318562
20
61.358996913343248
10
60.182845519318562
20
66.367876913343608
10
59.370045519318531
20
66.367876913343736
10
59.370045519318531
20
69.867996913343347
10
60.182845519318562
20
69.867996913343404
10
60.182845519318562
20
70.848436913343448
0
LWPOLYLINE
5
133
100
AcDbEntity
8
0
100
AcDbPolyline
90
20
70
1
43
0.0
10
150.35284551931849
20
91.803436913343432
10
150.35284551931849
20
90.822996913343545
10
151.1656455193185
20
90.822996913343545
10
151.1656455193185
20
87.322876913343492
10
150.35284551931849
20
87.322876913343492
10
150.35284551931849
20
82.313996913343487
10
151.1656455193185
20
82.313996913343516
10
151.1656455193185
20
78.813876913343449
10
150.35284551931849
20
78.813876913343535
10
150.35284551931849
20
77.83343691334359
10
136.38284551931861
20
77.833436913343405
10
136.38284551931861
20
78.813876913343563
10
135.57004551931851
20
78.813876913343506
10
135.57004551931851
20
82.313996913343516
10
136.38284551931861
20
82.313996913343487
10
136.38284551931861
20
87.322876913343435
10
135.57004551931851
20
87.322876913343492
10
135.57004551931851
20
90.822996913343431
10
136.38284551931861
20
90.822996913343545
10
136.38284551931861
20
91.803436913343432
0
LWPOLYLINE
5
134
100
AcDbEntity
8
0
100
AcDbPolyline
90
20
70
1
43
0.0
10
131.30284551931851
20
93.073436913343528
10
131.30284551931851
20
92.092996913343526
10
132.11564551931849
20
92.092996913343526
10
132.11564551931849
20
88.592876913343432
10
131.30284551931851
20
88.592876913343531
10
131.30284551931851
20
83.583996913343441
10
132.11564551931849
20
83.58399691334354
10
132.11564551931849
20
80.083876913343545
10
131.30284551931851
20
80.083876913343659
10
131.30284551931851
20
79.103436913343387
10
117.33284551931852
20
79.103436913343586
10
117.33284551931852
20
80.083876913343516
10
116.52004551931851
20
80.083876913343417
10
116.52004551931851
20
83.583996913343327
10
117.33284551931852
20
83.583996913343498
10
117.33284551931852
20
88.592876913343616
10
116.52004551931851
20
88.592876913343432
10
116.52004551931851
20
92.092996913343313
10
117.33284551931852
20
92.092996913343526
10
117.33284551931852
20
93.073436913343528
0
LWPOLYLINE
5
135
100
AcDbEntity
8
0
100
AcDbPolyline
90
20
70
1
43
0.0
10
112.25284551931861
20
94.671096913343519
10
112.2528455193185
20
93.690656913343432
10
113.06564551931851
20
93.690656913343432
10
113.06564551931851
20
90.190536913343522
10
112.25284551931861
20
90.190536913343621
10
112.2528455193185
20
85.181656913343588
10
113.06564551931851
20
85.181656913343431
10
113.06564551931851
20
81.68153691334345
10
112.25284551931861
20
81.681536913343507
10
112.2528455193185
20
80.701096913343406
10
98.282845519318528
20
80.701096913343434
10
98.282845519318528
20
81.681536913343407
10
97.470045519318575
20
81.681536913343507
10
97.470045519318575
20
85.181656913343517
10
98.282845519318528
20
85.181656913343488
10
98.282845519318528
20
90.190536913343436
10
97.470045519318575
20
90.190536913343522
10
97.470045519318575
20
93.690656913343432
10
98.282845519318528
20
93.690656913343545
10
98.282845519318528
20
94.671096913343433
0
LWPOLYLINE
5
136
100
AcDbEntity
8
0
100
AcDbPolyline
90
20
70
1
43
0.0
10
93.202845519318544
20
93.073436913343528
10
93.202845519318544
20
92.092996913343526
10
94.015645519318539
20
92.092996913343526
10
94.015645519318539
20
88.592876913343616
10
93.202845519318544
20
88.592876913343432
10
93.202845519318544
20
83.58399691334354
10
94.015645519318582
20
83.58399691334364
10
94.015645519318539
20
80.083876913343516
10
93.202845519318544
20
80.083876913343545
10
93.202845519318544
20
79.103436913343529
10
79.232845519318516
20
79.103436913343501
10
79.232845519318516
20
80.08387691334346
10
78.420045519318592
20
80.083876913343559
10
78.420045519318535
20
83.583996913343469
10
79.232845519318516
20
83.583996913343441
10
79.232845519318516
20
88.592876913343531
10
78.420045519318535
20
88.592876913343531
10
78.420045519318535
20
92.092996913343427
10
79.232845519318516
20
92.092996913343427
10
79.232845519318516
20
93.073436913343414
0
LWPOLYLINE
5
137
100
AcDbEntity
8
0
100
AcDbPolyline
90
20
70
1
43
0.0
10
74.152845519318532
20
89.898436913343431
10
74.152845519318589
20
88.9179969133437
10
74.965645519318514
20
88.917996913343615
10
74.965645519318514
20
85.41787691334352
10
74.152845519318532
20
85.417876913343335
10
74.152845519318532
20
80.408996913343572
10
74.965645519318514
20
80.408996913343572
10
74.965645519318514
20
76.908876913343448
10
74.152845519318589
20
76.908876913343505
10
74.152845519318532
20
75.928436913343546
10
60.182845519318562
20
75.92843691334366
10
60.182845519318562
20
76.908876913343363
10
59.370045519318531
20
76.90887691334342
10
59.370045519318531
20
80.408996913343572
10
60.182845519318562
20
80.408996913343586
10
60.182845519318562
20
85.417876913343463
10
59.370045519318531
20
85.417876913343434
10
59.370045519318531
20
88.917996913343543
10
60.182845519318562
20
88.917996913343543
10
60.182845519318562
20
89.898436913343431
0
LWPOLYLINE
5
138
100
AcDbEntity
8
0
100
AcDbPolyline
90
20
70
1
43
0.0
10
150.35284551931849
20
110.85343691334351
10
150.35284551931849
20
109.8729969133435
10
151.1656455193185
20
109.8729969133435
10
151.1656455193185
20
106.3728769133435
10
150.35284551931849
20
106.3728769133435
10
150.35284551931849
20
101.3639969133435
10
151.1656455193185
20
101.36399691334341
10
151.1656455193185
20
97.863876913343432
10
150.35284551931849
20
97.863876913343546
10
150.35284551931849
20
96.88343691334353
10
136.38284551931861
20
96.88343691334353
10
136.38284551931861
20
97.863876913343546
10
135.57004551931851
20
97.863876913343432
10
135.57004551931851
20
101.3639969133435
10
136.38284551931861
20
101.3639969133435
10
136.38284551931861
20
106.37287691334342
10
135.57004551931851
20
106.37287691334342
10
135.57004551931851
20
109.8729969133435
10
136.38284551931861
20
109.8729969133435
10
136.38284551931861
20
110.85343691334351
0
LWPOLYLINE
5
139
100
AcDbEntity
8
0
100
AcDbPolyline
90
20
70
1
43
0.0
10
131.30284551931851
20
112.12343691334353
10
131.30284551931851
20
111.14299691334352
10
132.11564551931849
20
111.14299691334352
10
132.11564551931849
20
107.64287691334351
10
131.30284551931851
20
107.64287691334351
10
131.30284551931851
20
102.63399691334342
10
132.11564551931849
20
102.63399691334351
10
132.11564551931849
20
99.133876913343528
10
131.30284551931851
20
99.133876913343428
10
131.30284551931851
20
98.15343691334354
10
117.33284551931852
20
98.15343691334354
10
117.33284551931852
20
99.133876913343528
10
116.52004551931851
20
99.133876913343528
10
116.52004551931851
20
102.63399691334342
10
117.33284551931852
20
102.63399691334359
10
117.33284551931852
20
107.6428769133436
10
116.52004551931851
20
107.64287691334351
10
116.52004551931851
20
111.14299691334341
10
117.33284551931852
20
111.14299691334359
10
117.33284551931852
20
112.12343691334361
0
LWPOLYLINE
5
140
100
AcDbEntity
8
0
100
AcDbPolyline
90
20
70
1
43
0.0
10
112.2528455193185
20
113.72109691334343
10
112.25284551931861
20
112.7406569133436
10
113.06564551931859
20
112.7406569133435
10
113.06564551931859
20
109.2405369133435
10
112.2528455193185
20
109.2405369133435
10
112.2528455193185
20
104.2316569133435
10
113.06564551931859
20
104.2316569133435
10
113.06564551931851
20
100.73153691334352
10
112.2528455193185
20
100.73153691334352
10
112.25284551931861
20
99.751096913343616
10
98.282845519318528
20
99.751096913343531
10
98.282845519318528
20
100.7315369133434
10
97.470045519318575
20
100.7315369133434
10
97.470045519318575
20
104.23165691334341
10
98.282845519318585
20
104.2316569133435
10
98.282845519318528
20
109.24053691334342
10
97.470045519318575
20
109.24053691334342
10
97.470045519318575
20
112.7406569133436
10
98.282845519318585
20
112.7406569133435
10
98.282845519318528
20
113.72109691334352
0
LWPOLYLINE
5
141
100
AcDbEntity
8
0
100
AcDbPolyline
90
20
70
1
43
0.0
10
93.202845519318544
20
112.12343691334361
10
93.202845519318544
20
111.14299691334352
10
94.015645519318539
20
111.14299691334341
10
94.015645519318539
20
107.64287691334351
10
93.202845519318544
20
107.64287691334351
10
93.202845519318544
20
102.63399691334359
10
94.015645519318539
20
102.63399691334351
10
94.015645519318582
20
99.133876913343528
10
93.202845519318544
20
99.133876913343528
10
93.202845519318544
20
98.153436913343413
10
79.232845519318516
20
98.153436913343413
10
79.232845519318559
20
99.133876913343528
10
78.420045519318535
20
99.133876913343528
10
78.420045519318592
20
102.63399691334351
10
79.232845519318559
20
102.63399691334351
10
79.232845519318559
20
107.64287691334351
10
78.420045519318535
20
107.64287691334351
10
78.420045519318535
20
111.14299691334352
10
79.232845519318516
20
111.14299691334352
10
79.232845519318516
20
112.12343691334341
0
LWPOLYLINE
5
142
100
AcDbEntity
8
0
100
AcDbPolyline
90
20
70
1
43
0.0
10
74.152845519318532
20
108.94843691334351
10
74.152845519318589
20
107.96799691334351
10
74.965645519318514
20
107.96799691334351
10
74.965645519318556
20
104.4678769133435
10
74.152845519318532
20
104.4678769133435
10
74.152845519318532
20
99.45899691334354
10
74.965645519318514
20
99.45899691334354
10
74.965645519318514
20
95.958876913343431
10
74.152845519318532
20
95.958876913343531
10
74.152845519318589
20
94.978436913343529
10
60.182845519318562
20
94.978436913343529
10
60.182845519318562
20
95.958876913343431
10
59.370045519318531
20
95.958876913343531
10
59.370045519318531
20
99.45899691334354
10
60.182845519318562
20
99.45899691334354
10
60.182845519318562
20
104.4678769133435
10
59.370045519318531
20
104.4678769133435
10
59.370045519318531
20
107.9679969133436
10
60.182845519318562
20
107.96799691334351
10
60.182845519318562
20
108.94843691334351
0
LWPOLYLINE
5
143
100
AcDbEntity
8
0
100
AcDbPolyline
90
20
70
1
43
0.0
10
131.30284551931851
20
131.17343691334341
10
131.30284551931851
20
130.19299691334342
10
132.1156455193186
20
130.19299691334351
10
132.1156455193186
20
126.69287691334361
10
131.30284551931851
20
126.69287691334353
10
131.30284551931851
20
121.68399691334342
10
132.11564551931849
20
121.68399691334351
10
132.11564551931849
20
118.18387691334351
10
131.30284551931851
20
118.18387691334351
10
131.30284551931851
20
117.20343691334342
10
117.33284551931852
20
117.20343691334351
10
117.33284551931852
20
118.1838769133436
10
116.52004551931851
20
118.18387691334343
10
116.52004551931851
20
121.68399691334351
10
117.33284551931852
20
121.68399691334351
10
117.33284551931852
20
126.69287691334341
10
116.52004551931851
20
126.69287691334341
10
116.52004551931851
20
130.19299691334342
10
117.33284551931852
20
130.19299691334351
10
117.33284551931852
20
131.17343691334349
0
LWPOLYLINE
5
144
100
AcDbEntity
8
0
100
AcDbPolyline
90
20
70
1
43
0.0
10
112.25284551931861
20
132.77109691334351
10
112.25284551931861
20
131.79065691334353
10
113.06564551931859
20
131.79065691334341
10
113.06564551931859
20
128.29053691334352
10
112.2528455193185
20
128.29053691334352
10
112.2528455193185
20
123.28165691334351
10
113.06564551931851
20
123.28165691334351
10
113.06564551931851
20
119.7815369133435
10
112.2528455193185
20
119.78153691334342
10
112.25284551931861
20
118.80109691334351
10
98.282845519318585
20
118.80109691334341
10
98.282845519318528
20
119.7815369133435
10
97.470045519318575
20
119.78153691334342
10
97.470045519318575
20
123.28165691334351
10
98.282845519318585
20
123.28165691334351
10
98.282845519318585
20
128.29053691334352
10
97.470045519318575
20
128.29053691334352
10
97.470045519318575
20
131.79065691334353
10
98.282845519318585
20
131.79065691334353
10
98.282845519318528
20
132.77109691334351
0
LWPOLYLINE
5
145
100
AcDbEntity
8
0
100
AcDbPolyline
90
20
70
1
43
0.0
10
74.152845519318532
20
127.99843691334353
10
74.152845519318589
20
127.01799691334351
10
74.965645519318514
20
127.01799691334351
10
74.965645519318514
20
123.5178769133436
10
74.152845519318532
20
123.51787691334351
10
74.152845519318589
20
118.50899691334351
10
74.965645519318556
20
118.50899691334351
10
74.965645519318514
20
115.0088769133435
10
74.152845519318589
20
115.00887691334361
10
74.152845519318589
20
114.02843691334361
10
60.182845519318562
20
114.02843691334341
10
60.182845519318562
20
115.00887691334341
10
59.370045519318531
20
115.0088769133433
10
59.370045519318531
20
118.50899691334351
10
60.182845519318562
20
118.50899691334351
10
60.182845519318562
20
123.51787691334351
10
59.370045519318531
20
123.51787691334351
10
59.370045519318531
20
127.01799691334359
10
60.182845519318562
20
127.01799691334351
10
60.182845519318562
20
127.99843691334343
0
LWPOLYLINE
5
146
100
AcDbEntity
8
0
100
AcDbPolyline
90
20
70
1
43
0.0
10
93.202845519318544
20
74.023436913343446
10
93.202845519318544
20
73.042996913343444
10
94.015645519318539
20
73.042996913343586
10
94.015645519318539
20
69.542876913343548
10
93.202845519318544
20
69.542876913343548
10
93.202845519318544
20
64.533996913343529
10
94.015645519318539
20
64.533996913343458
10
94.015645519318539
20
61.033876913343654
10
93.202845519318544
20
61.033876913343619
10
93.202845519318544
20
60.053436913343496
10
79.232845519318516
20
60.053436913343575
10
79.232845519318516
20
61.033876913343683
10
78.420045519318535
20
61.033876913343562
10
78.420045519318535
20
64.533996913343529
10
79.232845519318516
20
64.533996913343515
10
79.232845519318516
20
69.542876913343463
10
78.420045519318535
20
69.54287691334352
10
78.420045519318535
20
73.042996913343444
10
79.232845519318516
20
73.042996913343558
10
79.232845519318516
20
74.023436913343545
0
LWPOLYLINE
5
147
100
AcDbEntity
8
0
100
AcDbPolyline
90
20
70
1
43
0.0
10
131.30284551931851
20
150.22343691334351
10
131.30284551931851
20
149.24299691334352
10
132.11564551931849
20
149.24299691334352
10
132.11564551931849
20
145.74287691334351
10
131.30284551931851
20
145.74287691334351
10
131.30284551931851
20
140.7339969133435
10
132.11564551931849
20
140.7339969133435
10
132.11564551931849
20
137.23387691334349
10
131.30284551931851
20
137.23387691334341
10
131.30284551931851
20
136.25343691334342
10
117.33284551931852
20
136.25343691334351
10
117.33284551931852
20
137.23387691334341
10
116.52004551931851
20
137.23387691334349
10
116.52004551931851
20
140.7339969133435
10
117.3328455193186
20
140.73399691334359
10
117.33284551931852
20
145.74287691334351
10
116.52004551931851
20
145.74287691334342
10
116.52004551931851
20
149.24299691334352
10
117.33284551931852
20
149.24299691334352
10
117.33284551931852
20
150.22343691334351
0
LWPOLYLINE
5
148
100
AcDbEntity
8
0
100
AcDbPolyline
90
20
70
1
43
0.0
10
112.2528455193185
20
151.8210969133435
10
112.25284551931861
20
150.84065691334354
10
113.06564551931859
20
150.84065691334354
10
113.06564551931851
20
147.3405369133435
10
112.25284551931861
20
147.3405369133435
10
112.2528455193185
20
142.33165691334341
10
113.06564551931859
20
142.33165691334349
10
113.06564551931859
20
138.83153691334351
10
112.2528455193185
20
138.83153691334351
10
112.2528455193185
20
137.8510969133435
10
98.282845519318585
20
137.8510969133435
10
98.282845519318528
20
138.8315369133434
10
97.470045519318575
20
138.83153691334351
10
97.470045519318575
20
142.33165691334349
10
98.282845519318585
20
142.33165691334349
10
98.282845519318528
20
147.3405369133435
10
97.470045519318575
20
147.34053691334341
10
97.470045519318575
20
150.84065691334342
10
98.282845519318499
20
150.84065691334342
10
98.282845519318528
20
151.82109691334341
0
LWPOLYLINE
5
149
100
AcDbEntity
8
0
100
AcDbPolyline
90
20
70
1
43
0.0
10
93.202845519318544
20
150.22343691334351
10
93.202845519318544
20
149.24299691334352
10
94.015645519318582
20
149.24299691334352
10
94.015645519318539
20
145.74287691334342
10
93.202845519318544
20
145.74287691334342
10
93.202845519318544
20
140.7339969133435
10
94.015645519318582
20
140.7339969133435
10
94.015645519318539
20
137.23387691334349
10
93.202845519318544
20
137.23387691334349
10
93.202845519318544
20
136.25343691334342
10
79.232845519318516
20
136.25343691334342
10
79.232845519318559
20
137.23387691334349
10
78.420045519318592
20
137.23387691334341
10
78.420045519318535
20
140.7339969133433
10
79.232845519318559
20
140.7339969133435
10
79.232845519318559
20
145.74287691334342
10
78.420045519318535
20
145.74287691334342
10
78.420045519318492
20
149.2429969133434
10
79.232845519318516
20
149.24299691334352
10
79.232845519318516
20
150.22343691334342
0
LWPOLYLINE
5
150
100
AcDbEntity
8
0
100
AcDbPolyline
90
20
70
1
43
0.0
10
74.152845519318532
20
147.04589691334351
10
74.152845519318532
20
146.0654569133435
10
74.965645519318556
20
146.0654569133435
10
74.965645519318556
20
142.56533691334363
10
74.152845519318589
20
142.56533691334363
10
74.152845519318589
20
137.5564569133436
10
74.965645519318556
20
137.55645691334351
10
74.965645519318556
20
134.0563369133435
10
74.152845519318589
20
134.0563369133435
10
74.152845519318532
20
133.07589691334351
10
60.182845519318562
20
133.0758969133434
10
60.182845519318562
20
134.05633691334342
10
59.370045519318531
20
134.0563369133435
10
59.370045519318531
20
137.5564569133434
10
60.182845519318562
20
137.55645691334351
10
60.182845519318562
20
142.56533691334363
10
59.370045519318531
20
142.56533691334363
10
59.370045519318531
20
146.0654569133435
10
60.182845519318562
20
146.0654569133435
10
60.182845519318562
20
147.04589691334351
0
LWPOLYLINE
5
151
100
AcDbEntity
8
0
100
AcDbPolyline
90
20
70
1
43
0.0
10
192.12822551931851
20
75.224856913343473
10
191.7116655193185
20
74.335856913343449
10
192.44826551931851
20
73.992956913343491
10
190.9699855193185
20
70.820496913343533
10
190.23338551931855
20
71.163396913343576
10
188.1175655193185
20
66.624416913343566
10
188.85416551931851
20
66.281516913343495
10
187.37334551931849
20
63.109056913343473
10
186.63674551931851
20
63.451956913343459
10
186.22272551931854
20
62.562956913343506
10
173.56082551931851
20
68.468456913343502
10
173.97738551931852
20
69.357456913343469
10
173.24078551931851
20
69.700356913343455
10
174.71906551931849
20
72.872816913343485
10
175.45566551931853
20
72.529916913343499
10
177.57148551931851
20
77.068896913343522
10
176.8348855193185
20
77.411796913343494
10
178.3157055193185
20
80.584256913343509
10
179.05230551931851
20
80.241356913343495
10
179.46632551931853
20
81.130356913343491
0
LWPOLYLINE
5
152
100
AcDbEntity
8
0
100
AcDbPolyline
90
20
70
1
43
0.0
10
209.39260551931852
20
67.175596913343554
10
208.97604551931852
20
66.28659691334353
10
209.71264551931853
20
65.94369691334353
10
208.23436551931852
20
62.771236913343465
10
207.49776551931853
20
63.114136913343458
10
205.38194551931852
20
58.575156913343484
10
206.11854551931853
20
58.232256913343434
10
204.63772551931854
20
55.059796913343462
10
203.9011255193185
20
55.402696913343483
10
203.4871055193185
20
54.51369691334353
10
190.8252055193185
20
60.419196913343363
10
191.24176551931851
20
61.308196913343494
10
190.5051655193185
20
61.65109691334348
10
191.98344551931851
20
64.823556913343538
10
192.72004551931855
20
64.480656913343495
10
194.8358655193185
20
69.01963691334349
10
194.09926551931849
20
69.362536913343519
10
195.58008551931852
20
72.534996913343491
10
196.31668551931853
20
72.192096913343491
10
196.73070551931852
20
73.081096913343544
0
LWPOLYLINE
5
153
100
AcDbEntity
8
0
100
AcDbPolyline
90
20
70
1
43
0.0
10
193.2915455193185
20
32.644296913343517
10
192.8749855193185
20
31.755296913343511
10
193.61158551931851
20
31.412396913343468
10
192.1333055193185
20
28.239936913343399
10
191.39670551931854
20
28.582836913343577
10
189.2808855193185
20
24.043856913343529
10
190.01748551931851
20
23.700956913343397
10
188.53666551931852
20
20.528496913343339
10
187.80006551931851
20
20.871396913343425
10
187.38604551931854
20
19.98239691334345
10
174.72414551931851
20
25.887896913343305
10
175.14070551931852
20
26.776896913343716
10
174.40410551931851
20
27.119796913343354
10
175.88238551931852
20
30.292256913343291
10
176.61898551931853
20
29.949356913343372
10
178.73480551931851
20
34.488336913343467
10
177.9982055193185
20
34.831236913343545
10
179.4790255193185
20
38.003696913342921
10
180.21562551931851
20
37.660796913343745
10
180.62964551931853
20
38.54979691334384
0
LWPOLYLINE
5
154
100
AcDbEntity
8
0
100
AcDbPolyline
90
20
70
1
43
0.0
10
201.34334551931855
20
49.911216913343388
10
200.92678551931854
20
49.022216913343435
10
201.66338551931852
20
48.679316913343477
10
200.18510551931854
20
45.506856913343583
10
199.4485055193185
20
45.849756913343597
10
197.33268551931855
20
41.31077691334233
10
198.0692855193185
20
40.967876913345179
10
196.5884655193185
20
37.795416913343757
10
195.85186551931852
20
38.138316913343537
10
195.4378455193185
20
37.249316913343641
10
182.77594551931853
20
43.154816913343112
10
183.1925055193185
20
44.043816913343392
10
182.45590551931852
20
44.386716913342994
10
183.93418551931853
20
47.559176913343393
10
184.67078551931851
20
47.216276913343584
10
186.78660551931853
20
51.755256913343501
10
186.05000551931852
20
52.098156913343445
10
187.53082551931851
20
55.270616913343467
10
188.26742551931852
20
54.927716913343531
10
188.68144551931852
20
55.81671691334342
0
LWPOLYLINE
5
155
100
AcDbEntity
8
0
100
AcDbPolyline
90
20
70
1
43
0.0
10
150.35284551931849
20
129.90343691334351
10
150.35284551931849
20
128.92299691334341
10
151.1656455193185
20
128.92299691334341
10
151.1656455193185
20
125.42287691334352
10
150.35284551931849
20
125.42287691334352
10
150.35284551931849
20
120.41399691334351
10
151.1656455193185
20
120.41399691334351
10
151.1656455193185
20
116.9138769133435
10
150.35284551931849
20
116.9138769133435
10
150.35284551931849
20
115.93343691334341
10
136.38284551931861
20
115.93343691334341
10
136.38284551931861
20
116.9138769133435
10
135.57004551931851
20
116.9138769133435
10
135.57004551931851
20
120.41399691334341
10
136.38284551931861
20
120.41399691334351
10
136.38284551931861
20
125.42287691334352
10
135.57004551931851
20
125.42287691334352
10
135.57004551931851
20
128.92299691334341
10
136.38284551931861
20
128.92299691334352
10
136.38284551931861
20
129.90343691334351
0
LWPOLYLINE
5
156
100
AcDbEntity
8
0
100
AcDbPolyline
90
20
70
1
43
0.0
10
55.102845519318528
20
70.848436913343619
10
55.102845519318528
20
69.86799691334376
10
55.915645519318566
20
69.867996913343546
10
55.915645519318566
20
66.367876913343608
10
55.102845519318528
20
66.367876913343736
10
55.102845519318528
20
61.35899691334383
10
55.915645519318566
20
61.358996913343418
10
55.915645519318566
20
57.858876913343465
10
55.102845519318528
20
57.858876913343863
10
55.102845519318528
20
56.8784369133434
10
41.132845519318487
20
56.878436913343194
10
41.132845519318487
20
57.858876913343956
10
40.320045519318569
20
57.858876913343494
10
40.320045519318569
20
61.358996913343972
10
41.132845519318487
20
61.358996913343475
10
41.132845519318487
20
66.367876913343594
10
40.320045519318569
20
66.367876913343196
10
40.320045519318569
20
69.867996913343774
10
41.132845519318487
20
69.867996913343603
10
41.132845519318487
20
70.84843691334332
0
LWPOLYLINE
5
157
100
AcDbEntity
8
0
100
AcDbPolyline
90
20
70
1
43
0.0
10
169.4028455193185
20
82.595936913343451
10
168.42240551931852
20
82.595936913343451
10
168.42240551931852
20
81.783136913343469
10
164.92228551931851
20
81.783136913343512
10
164.92228551931851
20
82.595936913343436
10
159.9134055193185
20
82.595936913343522
10
159.9134055193185
20
81.78313691334354
10
156.41328551931849
20
81.783136913343512
10
156.41328551931849
20
82.595936913343564
10
155.43284551931851
20
82.595936913343522
10
155.43284551931851
20
96.565936913343521
10
156.41328551931849
20
96.565936913343521
10
156.41328551931849
20
97.378736913343545
10
159.9134055193185
20
97.378736913343545
10
159.9134055193185
20
96.565936913343521
10
164.92228551931851
20
96.565936913343435
10
164.92228551931851
20
97.378736913343431
10
168.42240551931852
20
97.378736913343545
10
168.42240551931852
20
96.565936913343521
10
169.4028455193185
20
96.565936913343521
0
LWPOLYLINE
5
158
100
AcDbEntity
8
0
100
AcDbPolyline
90
20
70
1
43
0.0
10
169.4028455193185
20
111.17093691334352
10
168.42240551931852
20
111.17093691334352
10
168.42240551931852
20
110.35813691334342
10
164.92228551931851
20
110.35813691334351
10
164.92228551931851
20
111.17093691334352
10
159.9134055193185
20
111.17093691334352
10
159.9134055193185
20
110.35813691334351
10
156.41328551931849
20
110.35813691334351
10
156.41328551931861
20
111.17093691334352
10
155.43284551931851
20
111.17093691334352
10
155.43284551931851
20
125.14093691334352
10
156.41328551931849
20
125.14093691334341
10
156.41328551931849
20
125.95373691334352
10
159.9134055193185
20
125.95373691334352
10
159.9134055193185
20
125.14093691334341
10
164.92228551931851
20
125.14093691334341
10
164.92228551931851
20
125.95373691334342
10
168.42240551931852
20
125.95373691334352
10
168.42240551931852
20
125.14093691334352
10
169.4028455193185
20
125.14093691334352
0
ENDSEC
0
SECTION
2
OBJECTS
0
DICTIONARY
5
C
100
AcDbDictionary
3
ACAD_GROUP
350
D
3
ACAD_MLINESTYLE
350
17
0
DICTIONARY
5
D
100
AcDbDictionary
0
DICTIONARY
5
1A
330
C
100
AcDbDictionary
0
DICTIONARY
5
17
100
AcDbDictionary
0
ENDSEC
0
EOF
