0
SECTION
2
HEADER
9
$INSUNITS
70
4
9
$ACADVER
1
AC1014
9
$HANDSEED
5
FFFF
0
ENDSEC
0
SECTION
2
TABLES
0
TABLE
2
VPORT
5
8
100
AcDbSymbolTable
0
ENDTAB
0
TABLE
2
LTYPE
5
5
100
AcDbSymbolTable
0
LTYPE
5
14
100
AcDbSymbolTableRecord
100
AcDbLinetypeTableRecord
2
BYBLOCK
70
0
0
LTYPE
5
15
100
AcDbSymbolTableRecord
100
AcDbLinetypeTableRecord
2
BYLAYER
70
0
0
ENDTAB
0
TABLE
2
LAYER
5
2
100
AcDbSymbolTable
70
2
0
LAYER
5
50
100
AcDbSymbolTableRecord
100
AcDbLayerTableRecord
2
0
70
0
6
CONTINUOUS
0
ENDTAB
0
TABLE
2
STYLE
5
3
100
AcDbSymbolTable
70
1
0
STYLE
5
11
100
AcDbSymbolTableRecord
100
AcDbTextStyleTableRecord
2
STANDARD
70
0
0
ENDTAB
0
TABLE
2
VIEW
5
6
100
AcDbSymbolTable
70
0
0
ENDTAB
0
TABLE
2
UCS
5
7
100
AcDbSymbolTable
70
0
0
ENDTAB
0
TABLE
2
APPID
5
9
100
AcDbSymbolTable
70
2
0
APPID
5
12
100
AcDbSymbolTableRecord
100
AcDbRegAppTableRecord
2
ACAD
70
0
0
ENDTAB
0
TABLE
2
DIMSTYLE
5
A
100
AcDbSymbolTable
70
1
0
ENDTAB
0
TABLE
2
BLOCK_RECORD
5
1
100
AcDbSymbolTable
70
1
0
BLOCK_RECORD
5
1F
100
AcDbSymbolTableRecord
100
AcDbBlockTableRecord
2
*MODEL_SPACE
0
BLOCK_RECORD
5
1B
100
AcDbSymbolTableRecord
100
AcDbBlockTableRecord
2
*PAPER_SPACE
0
ENDTAB
0
ENDSEC
0
SECTION
2
BLOCKS
0
BLOCK
5
20
100
AcDbEntity
100
AcDbBlockBegin
2
*MODEL_SPACE
0
ENDBLK
5
21
100
AcDbEntity
100
AcDbBlockEnd
0
BLOCK
5
1C
100
AcDbEntity
100
AcDbBlockBegin
2
*PAPER_SPACE
0
ENDBLK
5
1D
100
AcDbEntity
100
AcDbBlockEnd
0
ENDSEC
0
SECTION
2
ENTITIES
0
CIRCLE
5
100
100
AcDbEntity
8
0
100
AcDbCircle
10
174.816573734
20
177.43412373400002
30
0
40
1.5000000000000002
0
CIRCLE
5
101
100
AcDbEntity
8
0
100
AcDbCircle
10
121.33330000000001
20
179.25299999999999
30
0
40
1.5000000000000002
0
LWPOLYLINE
5
102
100
AcDbEntity
8
0
100
AcDbPolyline
90
21
70
1
43
0.0
10
102.90560000000001
20
174.80799999999999
10
102.90560000000001
20
176.58600000000001
10
91.399400000000014
20
176.58600000000001
10
91.399400000000014
20
174.80799999999999
10
32.064999999999998
20
174.80799999999999
10
28.890000000000001
20
171.63299999999998
10
28.890000000000001
20
63.683000000000007
10
38.414999999999999
20
54.158000000000008
10
107.65540000000001
20
54.158000000000008
10
185.82390000000001
20
17.714080000000003
10
190.04283999999998
20
19.248240000000003
10
211.72682000000006
20
65.750560000000007
10
210.19012000000004
20
69.969499999999996
10
177.09900000000002
20
85.400000000000006
10
172.1968
20
85.400000000000006
10
172.1968
20
171.63299999999998
10
168.99640000000002
20
174.80799999999999
10
156.9314
20
174.80799999999999
10
156.9314
20
176.58600000000001
10
139.761
20
176.58600000000001
10
139.761
20
174.80799999999999
0
LWPOLYLINE
5
103
100
AcDbEntity
8
0
100
AcDbPolyline
90
18
70
1
43
0.0
10
185.12867954700002
20
91.465051085400034
42
-0.29148228585399893
10
181.08680000000004
20
97.809302292900014
10
181.08680000000007
20
176.69799999999998
42
0.41421356237300588
10
174.08680000000001
20
183.69799999999998
10
165.97380000000001
20
183.69799999999998
10
152.0941
20
178.58498
10
144.75069999999999
20
178.58498
10
130.87099999999998
20
183.69799999999998
10
27
20
183.69799999999995
42
0.41421356237299245
10
20
20
176.69799999999998
10
20.000000000000004
20
52.268000000000008
42
0.41421356237299978
10
27
20
45.268000000000008
10
104.132792006
20
45.268000000000001
42
-0.10949751085899723
10
107.09061076700002
20
44.612391868200007
10
186.658588995
20
7.5170068933900041
42
0.41419101926399859
10
195.96057194900001
20
10.903091696700002
10
221.924958355
20
66.584373902799982
42
0.41422217770100178
10
218.53891461500001
20
75.886932175200002
0
CIRCLE
5
104
100
AcDbEntity
8
0
100
AcDbCircle
10
26.2638762658
20
177.43412373400002
30
0
40
1.5000000000000002
0
CIRCLE
5
105
100
AcDbEntity
8
0
100
AcDbCircle
10
26.263876000000003
20
53.119376265800007
30
0
40
1.5000000000000002
0
CIRCLE
5
106
100
AcDbEntity
8
0
100
AcDbCircle
10
106.66988000000002
20
49.713000000000001
30
0
40
1.5000000000000002
0
CIRCLE
5
107
100
AcDbEntity
8
0
100
AcDbCircle
10
216.55853472900003
20
69.898485122400004
30
0
40
1.5000000000000002
0
CIRCLE
5
108
100
AcDbEntity
8
0
100
AcDbCircle
10
189.97209671499999
20
12.882405197300002
30
0
40
1.5000000000000002
0
ENDSEC
0
SECTION
2
OBJECTS
0
DICTIONARY
5
C
100
AcDbDictionary
3
ACAD_GROUP
350
D
3
ACAD_MLINESTYLE
350
17
0
DICTIONARY
5
D
100
AcDbDictionary
0
DICTIONARY
5
1A
330
C
100
AcDbDictionary
0
DICTIONARY
5
17
100
AcDbDictionary
0
ENDSEC
0
EOF
