0
SECTION
2
HEADER
9
$INSUNITS
70
4
9
$ACADVER
1
AC1014
9
$HANDSEED
5
FFFF
0
ENDSEC
0
SECTION
2
TABLES
0
TABLE
2
VPORT
5
8
100
AcDbSymbolTable
0
ENDTAB
0
TABLE
2
LTYPE
5
5
100
AcDbSymbolTable
0
LTYPE
5
14
100
AcDbSymbolTableRecord
100
AcDbLinetypeTableRecord
2
BYBLOCK
70
0
0
LTYPE
5
15
100
AcDbSymbolTableRecord
100
AcDbLinetypeTableRecord
2
BYLAYER
70
0
0
ENDTAB
0
TABLE
2
LAYER
5
2
100
AcDbSymbolTable
70
2
0
LAYER
5
50
100
AcDbSymbolTableRecord
100
AcDbLayerTableRecord
2
0
70
0
6
CONTINUOUS
0
ENDTAB
0
TABLE
2
STYLE
5
3
100
AcDbSymbolTable
70
1
0
STYLE
5
11
100
AcDbSymbolTableRecord
100
AcDbTextStyleTableRecord
2
STANDARD
70
0
0
ENDTAB
0
TABLE
2
VIEW
5
6
100
AcDbSymbolTable
70
0
0
ENDTAB
0
TABLE
2
UCS
5
7
100
AcDbSymbolTable
70
0
0
ENDTAB
0
TABLE
2
APPID
5
9
100
AcDbSymbolTable
70
2
0
APPID
5
12
100
AcDbSymbolTableRecord
100
AcDbRegAppTableRecord
2
ACAD
70
0
0
ENDTAB
0
TABLE
2
DIMSTYLE
5
A
100
AcDbSymbolTable
70
1
0
ENDTAB
0
TABLE
2
BLOCK_RECORD
5
1
100
AcDbSymbolTable
70
1
0
BLOCK_RECORD
5
1F
100
AcDbSymbolTableRecord
100
AcDbBlockTableRecord
2
*MODEL_SPACE
0
BLOCK_RECORD
5
1B
100
AcDbSymbolTableRecord
100
AcDbBlockTableRecord
2
*PAPER_SPACE
0
ENDTAB
0
ENDSEC
0
SECTION
2
BLOCKS
0
BLOCK
5
20
100
AcDbEntity
100
AcDbBlockBegin
2
*MODEL_SPACE
0
ENDBLK
5
21
100
AcDbEntity
100
AcDbBlockEnd
0
BLOCK
5
1C
100
AcDbEntity
100
AcDbBlockBegin
2
*PAPER_SPACE
0
ENDBLK
5
1D
100
AcDbEntity
100
AcDbBlockEnd
0
ENDSEC
0
SECTION
2
ENTITIES
0
CIRCLE
5
100
100
AcDbEntity
8
0
100
AcDbCircle
10
26.263876000000003
20
53.119376265800007
30
0
40
1.5000000000000002
0
CIRCLE
5
101
100
AcDbEntity
8
0
100
AcDbCircle
10
26.2638762658
20
177.43412373400002
30
0
40
1.5000000000000002
0
LWPOLYLINE
5
102
100
AcDbEntity
8
0
100
AcDbPolyline
90
18
70
1
43
0.0
10
152.0941
20
178.58498
10
144.75069999999999
20
178.58498
10
130.87099999999998
20
183.69799999999998
10
27
20
183.69799999999995
42
0.41421356237299245
10
20
20
176.69799999999998
10
20.000000000000004
20
52.268000000000008
42
0.41421356237299978
10
27
20
45.268000000000008
10
104.13279200600002
20
45.268000000100002
42
-0.10949751085899892
10
107.09061076700002
20
44.612391868200007
10
186.658588995
20
7.5170068933900041
42
0.41419101926399876
10
195.96057194900001
20
10.903091696700002
10
221.924958355
20
66.584373902799982
42
0.41422217770100178
10
218.53891461500001
20
75.886932175200002
10
185.12867954700002
20
91.465051085400034
42
-0.29148228585399893
10
181.08680000000004
20
97.809302292900014
10
181.08680000000007
20
176.69799999999998
42
0.41421356237300588
10
174.08680000000001
20
183.69799999999998
10
165.97380000000001
20
183.69799999999998
0
LWPOLYLINE
5
103
100
AcDbEntity
8
0
100
AcDbPolyline
90
53
70
1
43
0.0
10
151.47045338500001
20
72.856121151099998
10
136.87021843799999
20
41.545816266300008
42
0.4142135623729965
10
137.36164699599999
20
40.195627402500008
10
187.77592395599993
20
16.687063974699999
42
0.41421356237298868
10
189.12611282300003
20
17.178492530299991
10
212.63467625000004
20
67.592769494300015
42
0.41421356237297718
10
212.14324769200005
20
68.942958359900004
10
178.99413407499998
20
84.400643899100004
42
0.41421356237301243
10
177.64394520900001
20
83.909215343400007
10
170.66651770799996
20
68.946073779599985
42
-0.41421356237300117
10
168.64123441000001
20
68.208930942899997
10
158.17936091999999
20
73.087382669899995
42
-0.80258485167100724
10
158.60874107200002
20
75.024191381999998
10
171.16814127400002
20
75.024191381999998
42
0.41421356237299262
10
172.18414127400001
20
76.040191382000003
10
172.18414127400001
20
150.71619138200001
42
0.4142135623729824
10
171.16814127400002
20
151.732191382
10
135.60814127399999
20
151.732191382
42
-0.2679491924310009
10
134.28831855899998
20
152.49419138200003
42
0.26794919243100218
10
133.40843674799999
20
153.00219138200001
10
116.55814127399999
20
153.00219138200003
42
-0.30561468458099239
10
115.14535546200003
20
153.95469138200002
42
0.3056146845810146
10
114.20349825400001
20
154.58969138200001
10
96.306784291599996
20
154.58969138200004
42
0.30561468458099877
10
95.364927083700039
20
153.95469138200002
42
-0.30561468458100294
10
93.952141274200017
20
153.00219138200001
10
77.442141274199997
20
153.00219138200001
42
0.4142135623729824
10
76.426141274200006
20
151.98619138200002
10
76.42614127420002
20
151.35119138200002
42
-0.41421356237300289
10
74.902141274200019
20
149.827191382
10
29.890000000000004
20
149.827191382
42
0.41421356237298318
10
28.890000000000001
20
148.827191382
10
28.890000000000001
20
74.119191381999997
42
0.41421356237300788
10
29.890000000000004
20
73.119191381999997
10
36.802141274200004
20
73.119191381999997
42
-0.41421356237300117
10
38.326141274199998
20
71.595191381999996
10
38.326141274200005
20
55.085191382000005
42
0.41421356237299772
10
39.342141274200003
20
54.069191382
10
75.918141274199996
20
54.069191382
42
0.41421356237300289
10
76.934141274200002
20
55.085191382000005
10
76.934141274200002
20
55.720191381999989
42
-0.41421356237299772
10
78.458141274200003
20
57.244191381999997
10
95.153498254200017
20
57.244191381999997
42
0.30561468458099394
10
96.095355462099988
20
57.879191381999995
42
-0.30561468458101554
10
97.5081412742
20
58.831691381999995
10
113.002141274
20
58.831691381999995
42
-0.30561468458100144
10
114.41492708600002
20
57.879191381999988
42
0.30561468458101065
10
115.35678429200003
20
57.244191381999997
10
133.068141274
20
57.244191381999997
42
0.41421356237300289
10
134.08414127399999
20
58.260191381999995
10
134.08414127399999
20
73.500191381999997
42
-0.41421356237300117
10
135.60814127399999
20
75.024191381999998
10
150.08924031800001
20
75.024191381999998
42
-0.54861878662699726
0
LWPOLYLINE
5
104
100
AcDbEntity
8
0
100
AcDbPolyline
90
12
70
1
43
0.0
10
38.307845088400001
20
170.43532668099999
10
38.307845088400001
20
160.233266681
10
40.807845088400001
20
160.233266681
10
40.807845088400001
20
158.23326668100003
10
52.807845088400001
20
158.23326668100003
10
52.807845088400001
20
160.233266681
10
74.999999569099998
20
160.233266681
10
74.999999569099998
20
170.43532668099999
10
52.807845088400001
20
170.43532668099999
10
52.807845088400001
20
172.43532668099999
10
40.807845088400001
20
172.43532668099999
10
40.807845088400001
20
170.43532668099999
0
LWPOLYLINE
5
105
100
AcDbEntity
8
0
100
AcDbPolyline
90
4
70
1
43
0.0
10
154.80779999999999
20
163.58420000000001
10
154.80779999999999
20
177.08420000000001
10
142.03700000000001
20
177.08420000000001
10
142.03700000000001
20
163.58420000000001
0
CIRCLE
5
106
100
AcDbEntity
8
0
100
AcDbCircle
10
106.66988000000002
20
49.713000000000001
30
0
40
1.5000000000000002
0
CIRCLE
5
107
100
AcDbEntity
8
0
100
AcDbCircle
10
216.55853472900003
20
69.898485122400004
30
0
40
1.5000000000000002
0
CIRCLE
5
108
100
AcDbEntity
8
0
100
AcDbCircle
10
174.816573734
20
177.43412373400002
30
0
40
1.5000000000000002
0
CIRCLE
5
109
100
AcDbEntity
8
0
100
AcDbCircle
10
121.33330000000001
20
179.25299999999999
30
0
40
1.5000000000000002
0
CIRCLE
5
110
100
AcDbEntity
8
0
100
AcDbCircle
10
189.97209671499999
20
12.882405197300002
30
0
40
1.5000000000000002
0
ENDSEC
0
SECTION
2
OBJECTS
0
DICTIONARY
5
C
100
AcDbDictionary
3
ACAD_GROUP
350
D
3
ACAD_MLINESTYLE
350
17
0
DICTIONARY
5
D
100
AcDbDictionary
0
DICTIONARY
5
1A
330
C
100
AcDbDictionary
0
DICTIONARY
5
17
100
AcDbDictionary
0
ENDSEC
0
EOF
