0
SECTION
2
HEADER
9
$INSUNITS
70
4
9
$ACADVER
1
AC1014
9
$HANDSEED
5
FFFF
0
ENDSEC
0
SECTION
2
TABLES
0
TABLE
2
VPORT
5
8
100
AcDbSymbolTable
0
ENDTAB
0
TABLE
2
LTYPE
5
5
100
AcDbSymbolTable
0
LTYPE
5
14
100
AcDbSymbolTableRecord
100
AcDbLinetypeTableRecord
2
BYBLOCK
70
0
0
LTYPE
5
15
100
AcDbSymbolTableRecord
100
AcDbLinetypeTableRecord
2
BYLAYER
70
0
0
ENDTAB
0
TABLE
2
LAYER
5
2
100
AcDbSymbolTable
70
2
0
LAYER
5
50
100
AcDbSymbolTableRecord
100
AcDbLayerTableRecord
2
0
70
0
6
CONTINUOUS
0
ENDTAB
0
TABLE
2
STYLE
5
3
100
AcDbSymbolTable
70
1
0
STYLE
5
11
100
AcDbSymbolTableRecord
100
AcDbTextStyleTableRecord
2
STANDARD
70
0
0
ENDTAB
0
TABLE
2
VIEW
5
6
100
AcDbSymbolTable
70
0
0
ENDTAB
0
TABLE
2
UCS
5
7
100
AcDbSymbolTable
70
0
0
ENDTAB
0
TABLE
2
APPID
5
9
100
AcDbSymbolTable
70
2
0
APPID
5
12
100
AcDbSymbolTableRecord
100
AcDbRegAppTableRecord
2
ACAD
70
0
0
ENDTAB
0
TABLE
2
DIMSTYLE
5
A
100
AcDbSymbolTable
70
1
0
ENDTAB
0
TABLE
2
BLOCK_RECORD
5
1
100
AcDbSymbolTable
70
1
0
BLOCK_RECORD
5
1F
100
AcDbSymbolTableRecord
100
AcDbBlockTableRecord
2
*MODEL_SPACE
0
BLOCK_RECORD
5
1B
100
AcDbSymbolTableRecord
100
AcDbBlockTableRecord
2
*PAPER_SPACE
0
ENDTAB
0
ENDSEC
0
SECTION
2
BLOCKS
0
BLOCK
5
20
100
AcDbEntity
100
AcDbBlockBegin
2
*MODEL_SPACE
0
ENDBLK
5
21
100
AcDbEntity
100
AcDbBlockEnd
0
BLOCK
5
1C
100
AcDbEntity
100
AcDbBlockBegin
2
*PAPER_SPACE
0
ENDBLK
5
1D
100
AcDbEntity
100
AcDbBlockEnd
0
ENDSEC
0
SECTION
2
ENTITIES
0
LWPOLYLINE
5
100
100
AcDbEntity
8
0
100
AcDbPolyline
90
53
70
1
43
0.0
10
158.60874107169511
20
75.024191382018302
10
171.16814127415509
20
75.024191382018316
42
0.41421356237309503
10
172.18414127415517
20
76.040191382018378
10
172.18414127415517
20
150.71619138201842
42
0.41421356237309503
10
171.16814127415509
20
151.73219138201841
10
135.60814127415509
20
151.73219138201827
42
-0.26794919247926913
10
134.28831855824015
20
152.49419138201847
42
0.26794919243112103
10
133.4084367479951
20
153.00219138201848
10
116.5581412741551
20
153.00219138201834
42
-0.30561468458089897
10
115.14535546211624
20
153.95469138191953
42
0.30561468460939029
10
114.20349825421511
20
154.5896913820184
10
96.306784291555161
20
154.5896913820184
42
0.30139439903124648
10
95.364927085947343
20
153.95469138201935
42
-0.30561468458089841
10
93.952141274155153
20
153.00219138201828
10
77.442141274155119
20
153.00219138201859
42
0.41421356237309503
10
76.426141274155057
20
151.98619138201852
10
76.426141274155114
20
151.35119138201841
42
-0.41421356237309503
10
74.902141274155099
20
149.82719138201841
10
29.889999999999873
20
149.8271913820185
42
0.41421356237309503
10
28.889999999999905
20
148.8271913820185
10
28.889999999999873
20
74.1191913820184
42
0.41421356237309503
10
29.889999999999873
20
73.119191382018414
10
36.802141274155076
20
73.119191382018428
42
-0.41421356237309503
10
38.326141274155134
20
71.595191382018356
10
38.326141274155034
20
55.085191382018401
42
0.41421356237309503
10
39.342141274155104
20
54.069191382018332
10
75.918141274155118
20
54.069191382018353
42
0.41421356237309503
10
76.934141274155138
20
55.085191382018373
10
76.934141274155024
20
55.72019138201842
42
-0.41421356237308138
10
78.458141274155082
20
57.24419138201845
10
95.153498254215094
20
57.244191382018421
42
0.30561468458090085
10
96.095355462323354
20
57.879191381919256
42
-0.30561468459985763
10
97.508141274155108
20
58.831691382018263
10
113.00214127415512
20
58.831691382018363
42
-0.30905324885724966
10
114.41492708369366
20
57.879191382019151
42
0.30561468458089996
10
115.3567842915551
20
57.24419138201845
10
133.0681412741551
20
57.244191382018528
42
0.41421356237309503
10
134.08414127415509
20
58.260191382018505
10
134.08414127415514
20
73.500191382018329
42
-0.41421356237311552
10
135.60814127415509
20
75.024191382018415
10
150.08924031799509
20
75.0241913820185
42
-0.54861878662723529
10
151.47045338543788
20
72.856121151123176
10
136.87021843757501
20
41.545816266258683
42
0.41045717671575027
10
137.36164699497499
20
40.195627401998465
10
187.77592395641511
20
16.687063974718463
42
0.4022340635751317
10
189.12611282274361
20
17.178492532888122
10
212.6346762500236
20
67.592769494328138
42
0.40920975486760203
10
212.14324769309513
20
68.942958357818583
10
178.99413407527501
20
84.400643899078318
42
0.30066957294911273
10
177.64394520847509
20
83.909215341678433
10
170.66651770849779
20
68.946073779462992
42
-0.39323392118102324
10
168.64123441027499
20
68.208930940938359
10
158.17936091953501
20
73.087382669918355
42
-0.81600802462394917
0
LWPOLYLINE
5
101
100
AcDbEntity
8
0
100
AcDbPolyline
90
14
70
1
43
0.0
10
107.0906107666449
20
44.612391868175635
10
186.65858899472579
20
7.5170068933935248
42
0.41419101926408031
10
195.96057194891844
20
10.90309169666158
10
221.92495835475526
20
66.584373902848583
42
0.41422217770076064
10
218.53891461493225
20
75.886932175224175
10
185.12867954666379
20
91.465051085420953
42
-0.29148228585437946
10
181.08679999999993
20
97.80930229289649
10
181.08679999999998
20
176.69800000000032
42
0.41421356237310542
10
174.08679999999976
20
183.69800000000029
10
26.999999999999904
20
183.69800000000004
42
0.41421356237309481
10
19.999999999999908
20
176.69800000000006
10
19.99999999999989
20
52.268000000001635
42
0.41421356237311863
10
27.000000000000455
20
45.268000000004854
10
104.1327920056103
20
45.268000000007653
42
-0.10949751085920251
0
CIRCLE
5
102
100
AcDbEntity
8
0
100
AcDbCircle
10
121.33329999999992
20
179.25300000000033
30
0
40
1.5000000000000002
0
CIRCLE
5
103
100
AcDbEntity
8
0
100
AcDbCircle
10
174.81657373415283
20
177.43412373415322
30
0
40
1.5000000000000002
0
CIRCLE
5
104
100
AcDbEntity
8
0
100
AcDbCircle
10
216.55853472886466
20
69.898485122443077
30
0
40
1.5000000000000002
0
CIRCLE
5
105
100
AcDbEntity
8
0
100
AcDbCircle
10
189.97209671490592
20
12.882405197269833
30
0
40
1.5000000000000002
0
CIRCLE
5
106
100
AcDbEntity
8
0
100
AcDbCircle
10
106.66987999999991
20
49.712999999999106
30
0
40
1.5000000000000002
0
CIRCLE
5
107
100
AcDbEntity
8
0
100
AcDbCircle
10
26.263875999999872
20
53.119376265847762
30
0
40
1.5000000000000002
0
CIRCLE
5
108
100
AcDbEntity
8
0
100
AcDbCircle
10
26.263876265847021
20
177.4341237341531
30
0
40
1.5000000000000002
0
ENDSEC
0
SECTION
2
OBJECTS
0
DICTIONARY
5
C
100
AcDbDictionary
3
ACAD_GROUP
350
D
3
ACAD_MLINESTYLE
350
17
0
DICTIONARY
5
D
100
AcDbDictionary
0
DICTIONARY
5
1A
330
C
100
AcDbDictionary
0
DICTIONARY
5
17
100
AcDbDictionary
0
ENDSEC
0
EOF
